<?xml version="1.0" encoding="UTF-8" standalone="no"?>
<!-- Created with Inkscape (http://www.inkscape.org/) -->

<svg
   xmlns:osb="http://www.openswatchbook.org/uri/2009/osb"
   xmlns:dc="http://purl.org/dc/elements/1.1/"
   xmlns:cc="http://creativecommons.org/ns#"
   xmlns:rdf="http://www.w3.org/1999/02/22-rdf-syntax-ns#"
   xmlns:svg="http://www.w3.org/2000/svg"
   xmlns="http://www.w3.org/2000/svg"
   xmlns:xlink="http://www.w3.org/1999/xlink"
   xmlns:sodipodi="http://sodipodi.sourceforge.net/DTD/sodipodi-0.dtd"
   xmlns:inkscape="http://www.inkscape.org/namespaces/inkscape"
   width="210mm"
   height="297mm"
   viewBox="0 0 744.09448819 1052.3622047"
   id="svg2"
   version="1.1"
   inkscape:version="0.91 r13725"
   sodipodi:docname="stagecraft-awesome-scifi-buttons.svg.2015_05_22_15_36_23.0.svg">
  <defs
     id="defs4">
    <linearGradient
       inkscape:collect="always"
       id="linearGradient6280">
      <stop
         style="stop-color:#b2b2b2;stop-opacity:1;"
         offset="0"
         id="stop6282" />
      <stop
         style="stop-color:#b2b2b2;stop-opacity:0;"
         offset="1"
         id="stop6284" />
    </linearGradient>
    <linearGradient
       id="linearGradient6254"
       osb:paint="gradient">
      <stop
         style="stop-color:#000000;stop-opacity:1;"
         offset="0"
         id="stop6256" />
      <stop
         style="stop-color:#000000;stop-opacity:0;"
         offset="1"
         id="stop6258" />
    </linearGradient>
    <linearGradient
       id="linearGradient5606"
       osb:paint="solid">
      <stop
         style="stop-color:#000000;stop-opacity:1;"
         offset="0"
         id="stop5608" />
    </linearGradient>
    <linearGradient
       id="linearGradient4148"
       osb:paint="solid">
      <stop
         style="stop-color:#000000;stop-opacity:1;"
         offset="0"
         id="stop4150" />
    </linearGradient>
    <linearGradient
       inkscape:collect="always"
       xlink:href="#linearGradient6280"
       id="linearGradient6286"
       x1="93.740608"
       y1="48.052429"
       x2="152.58954"
       y2="106.90136"
       gradientUnits="userSpaceOnUse" />
  </defs>
  <sodipodi:namedview
     id="base"
     pagecolor="#00ffff"
     bordercolor="#666666"
     borderopacity="1.0"
     inkscape:pageopacity="0"
     inkscape:pageshadow="2"
     inkscape:zoom="0.98994949"
     inkscape:cx="432.17329"
     inkscape:cy="804.1395"
     inkscape:document-units="px"
     inkscape:current-layer="layer1"
     showgrid="false"
     inkscape:window-width="1350"
     inkscape:window-height="781"
     inkscape:window-x="1141"
     inkscape:window-y="756"
     inkscape:window-maximized="0"
     showguides="true"
     inkscape:guide-bbox="true" />
  <metadata
     id="metadata7">
    <rdf:RDF>
      <cc:Work
         rdf:about="">
        <dc:format>image/svg+xml</dc:format>
        <dc:type
           rdf:resource="http://purl.org/dc/dcmitype/StillImage" />
        <dc:title />
      </cc:Work>
    </rdf:RDF>
  </metadata>
  <g
     inkscape:label="Layer 1"
     inkscape:groupmode="layer"
     id="layer1">
    <rect
       id="rect3336-8"
       width="159.38515"
       height="114.60184"
       x="841.95447"
       y="35.924152"
       ry="0"
       transform="matrix(1,0,-0.47234749,0.88141242,0,0)"
       style="fill:#000000;fill-opacity:1;stroke:#000000;stroke-width:5.32574558;stroke-miterlimit:4;stroke-dasharray:none;stroke-opacity:1" />
    <path
       style="fill:#000000;fill-opacity:0;stroke:#000000;stroke-width:10;stroke-miterlimit:4;stroke-dasharray:none;stroke-opacity:1"
       d="m 278.30386,295.59625 -54.13046,101.01173 158.60351,0 -0.0204,0.0762 28.84961,0 27.07752,-101.0547 -1.01172,0 -3.51663,-0.0332 -155.85119,0 z"
       id="rect3336-6-3-3"
       inkscape:connector-curvature="0"
       inkscape:export-xdpi="47.585976"
       inkscape:export-ydpi="47.585976"
       sodipodi:nodetypes="cccccccccc" />
    <path
       style="fill:#000000;fill-opacity:0;stroke:#00aadd;stroke-width:10;stroke-linecap:butt;stroke-linejoin:miter;stroke-miterlimit:4;stroke-dasharray:none;stroke-opacity:1"
       d="m 300.17476,171.98301 -54.13046,101.01172 158.60351,0 -0.0204,0.0762 28.84961,0 27.07752,-101.05469 -1.01172,0 -6.67336,-0.0332 -152.69446,0 z"
       id="rect3336-6-3"
       inkscape:connector-curvature="0"
       inkscape:export-xdpi="47.585976"
       inkscape:export-ydpi="47.585976"
       sodipodi:nodetypes="cccccccccc" />
    <rect
       id="rect3336"
       width="159.38515"
       height="114.60184"
       x="798.1593"
       y="491.13663"
       ry="0"
       transform="matrix(1,0,-0.47234749,0.88141242,0,0)"
       style="fill:#000000;fill-opacity:0;stroke:#000000;stroke-width:5.32574558;stroke-miterlimit:4;stroke-dasharray:none;stroke-opacity:1" />
    <path
       style="fill:#000000;fill-opacity:1;stroke:#000000;stroke-width:5;stroke-miterlimit:4;stroke-dasharray:none;stroke-opacity:1"
       d="m 187.92117,1213.5465 -54.13244,101.0118 159.38672,0 54.13048,-101.0118 -159.38476,0 z m 30.9788,18.2364 16.88672,0 8.32239,20.2051 19.1073,-20.2051 16.97265,0 -29.14783,30.707 13.1833,32.0078 -16.84571,0 -8.92016,-21.4219 -20.27515,21.4219 -16.92773,0 30.33623,-32.0078 -12.69201,-30.707 z"
       id="rect3336-6"
       inkscape:connector-curvature="0" />
    <flowRoot
       xml:space="preserve"
       id="flowRoot5676-7"
       style="font-style:normal;font-weight:normal;font-size:86.03048706px;line-height:125%;font-family:sans-serif;letter-spacing:0px;word-spacing:0px;fill:#00aadd;fill-opacity:1;stroke:none;stroke-width:1px;stroke-linecap:butt;stroke-linejoin:miter;stroke-opacity:1"
       transform="translate(231.75845,146.14652)"
       inkscape:export-xdpi="47.585976"
       inkscape:export-ydpi="47.585976"><flowRegion
         id="flowRegion5678-0"><rect
           id="rect5680-0"
           width="138.60468"
           height="111.29341"
           x="96.330292"
           y="21.751743"
           style="font-size:86.03048706px;fill:#00aadd;fill-opacity:1" /></flowRegion><flowPara
         id="flowPara5682-2"
         style="font-style:normal;font-variant:normal;font-weight:bold;font-stretch:normal;font-size:86.03048706px;font-family:sans-serif;-inkscape-font-specification:'sans-serif Bold';fill:#00aadd;fill-opacity:1">X</flowPara></flowRoot>    <path
       style="fill:#000000;fill-opacity:1;stroke:#000000;stroke-width:4.7794714;stroke-miterlimit:4;stroke-dasharray:none;stroke-opacity:1"
       d="m 567.41083,31.839159 -54.1324,101.011711 159.3848,0 54.13239,-101.011711 -159.38479,0 z m 54.88761,16.76172 75.46878,0 -25.28596,46.53711 -42.5176,0 13.71074,-25.23438 -32.9492,0 11.57324,-21.30273 z m -54.3438,21.35742 75.4688,0 -25.28598,46.537101 -75.4668,0 25.28398,-46.537101 z"
       id="rect3336-2"
       inkscape:connector-curvature="0"
       inkscape:export-xdpi="47.585976"
       inkscape:export-ydpi="47.585976" />
    <rect
       id="rect3336-2-7"
       width="159.38515"
       height="114.60184"
       x="517.27405"
       y="888.68768"
       ry="0"
       transform="matrix(1,0,-0.47234749,0.88141242,0,0)"
       style="fill:#000000;fill-opacity:0;stroke:#000000;stroke-width:10.65149117;stroke-miterlimit:4;stroke-dasharray:none;stroke-opacity:1" />
    <path
       style="fill:#000000;fill-opacity:1;stroke:#000000;stroke-width:5;stroke-miterlimit:4;stroke-dasharray:none;stroke-opacity:0"
       d="m 132.83397,800.0584 0.72585,21.3027 32.95117,0 0.85895,25.2364 42.51563,0 -1.58285,-46.5391 -75.46875,0 z"
       id="rect3336-2-2-0"
       inkscape:connector-curvature="0" />
    <rect
       id="rect3336-2-2-4-6-6"
       width="75.467888"
       height="46.565556"
       x="63.11277"
       y="821.91962"
       ry="0"
       transform="matrix(1,0,0.03400669,0.99942161,0,0)"
       style="fill:#000000;fill-opacity:1;stroke:#000000;stroke-width:5.00144672;stroke-miterlimit:4;stroke-dasharray:none;stroke-opacity:0" />
    <rect
       id="rect3336-2-5"
       width="159.38515"
       height="114.60184"
       x="229.80551"
       y="910.93518"
       ry="0"
       transform="matrix(1,0,-0.47234749,0.88141242,0,0)"
       style="fill:#000000;fill-opacity:1;stroke:#000000;stroke-width:5.09084988;stroke-miterlimit:4;stroke-dasharray:none;stroke-opacity:1" />
    <path
       inkscape:connector-curvature="0"
       style="fill:#000000;fill-opacity:1;stroke:#8080ff;stroke-width:4.7794714;stroke-miterlimit:4;stroke-dasharray:none;stroke-opacity:1"
       d="m -145.58445,819.67101 -11.57328,21.30272 32.94923,0 -13.71076,25.23438 42.517584,0 25.285989,-46.5371 -75.468763,0 z"
       id="rect3336-2-2-6" />
    <rect
       id="rect3336-2-2-4-6-6-6-5"
       width="75.467888"
       height="52.964161"
       x="257.02283"
       y="957.14734"
       ry="0"
       transform="matrix(1,0,-0.47740861,0.87868141,0,0)"
       style="fill:#000000;fill-opacity:1;stroke:#8080ff;stroke-width:5.33401585;stroke-miterlimit:4;stroke-dasharray:none;stroke-opacity:1" />
    <rect
       id="rect3336-2-9"
       width="159.38515"
       height="114.60184"
       x="457.53317"
       y="1039.2781"
       ry="0"
       transform="matrix(1,0,-0.47234749,0.88141242,0,0)"
       style="fill:#000000;fill-opacity:1;stroke:#000000;stroke-width:5.09084988;stroke-miterlimit:4;stroke-dasharray:none;stroke-opacity:1" />
    <path
       inkscape:connector-curvature="0"
       id="rect3336-2-2-4-6-6-6-6"
       style="fill:#000000;fill-opacity:1;stroke:#8000ff;stroke-width:5;stroke-miterlimit:4;stroke-dasharray:none;stroke-opacity:1"
       d="m -32.822284,954.15056 75.467883,0 -25.285551,46.53864 -75.467883,0 z m 54.343071,-21.35654 -11.5732925,21.30274 32.9492105,0 -13.71075,25.23437 42.51758,0 25.285731,-46.53711 -75.468749,0 z" />
    <rect
       id="rect3336-2-58"
       width="159.38515"
       height="114.60184"
       x="875.81995"
       y="709.95905"
       ry="0"
       transform="matrix(1,0,-0.47234749,0.88141242,0,0)"
       style="fill:#000000;fill-opacity:1;stroke:#000000;stroke-width:5.09084988;stroke-miterlimit:4;stroke-dasharray:none;stroke-opacity:1"
       inkscape:export-xdpi="49.429188"
       inkscape:export-ydpi="49.429188" />
    <path
       inkscape:connector-curvature="0"
       id="rect3336-2-2-4-6-6-6-62"
       style="fill:#00ffff;fill-opacity:1;stroke:#000000;stroke-width:10;stroke-miterlimit:4;stroke-dasharray:none;stroke-opacity:1"
       d="m 533.748,663.88469 75.4679,0 1.58355,46.53864 -75.4679,0 z m 42.01288,-21.35654 0.72585,21.30274 32.94922,0 0.85832,25.23434 42.51758,0 -1.58248,-46.53708 -75.46876,0 z"
       inkscape:export-xdpi="49.429188"
       inkscape:export-ydpi="49.429188" />
    <rect
       id="rect3336-2-58-1"
       width="159.38515"
       height="114.60184"
       x="728.47125"
       y="1205.912"
       ry="0"
       transform="matrix(1,0,-0.47234749,0.88141242,0,0)"
       style="fill:#000000;fill-opacity:0;stroke:#000000;stroke-width:5.09084988;stroke-miterlimit:4;stroke-dasharray:none;stroke-opacity:1" />
    <path
       inkscape:connector-curvature="0"
       id="rect3336-2-2-4-6-6-6-62-4"
       style="fill:#00ffff;fill-opacity:1;stroke:#000000;stroke-width:5;stroke-miterlimit:4;stroke-dasharray:none;stroke-opacity:1"
       d="m 152.13763,1101.0237 75.4679,0 1.5835,46.5386 -75.4679,0 z m 42.01284,-21.3566 0.72581,21.3028 32.9492,0 0.85832,25.2343 42.51761,0 -1.58243,-46.5371 -75.46881,0 z" />
    <rect
       id="rect3336-2-5-7"
       width="159.38515"
       height="114.60184"
       x="349.79578"
       y="42.671337"
       ry="0"
       transform="matrix(1,0,-0.47234749,0.88141242,0,0)"
       style="fill:#000000;fill-opacity:0;stroke:#00aadd;stroke-width:10.65149117;stroke-miterlimit:4;stroke-dasharray:none;stroke-opacity:1"
       inkscape:export-xdpi="54.102451"
       inkscape:export-ydpi="54.102451" />
    <path
       style="fill:#00aadd;fill-opacity:1;stroke:#8080ff;stroke-width:4.0059638;stroke-miterlimit:4;stroke-dasharray:none;stroke-opacity:0"
       d="m 362.40929,58.795284 -4.9161,17.855115 27.6168,0 -5.8246,21.15046 35.6366,0 10.74218,-39.005575 -63.25488,0 z"
       id="rect3336-2-2-6-8"
       inkscape:connector-curvature="0"
       inkscape:export-xdpi="54.102451"
       inkscape:export-ydpi="54.102451" />
    <rect
       id="rect3336-2-2-4-6-6-6-5-3"
       width="60.690571"
       height="38.819023"
       x="340.84677"
       y="83.550667"
       ry="0"
       transform="matrix(1,0,-0.26549233,0.96411297,0,0)"
       style="fill:#00aadd;fill-opacity:1;stroke:#000000;stroke-width:4.09510469;stroke-miterlimit:4;stroke-dasharray:none;stroke-opacity:0"
       inkscape:export-xdpi="54.102451"
       inkscape:export-ydpi="54.102451" />
    <path
       style="fill:#000000;fill-opacity:1;stroke:#000000;stroke-width:5;stroke-miterlimit:4;stroke-dasharray:none;stroke-opacity:1"
       d="m -15.314914,572.3774 -54.132419,101.01172 159.38673,0 54.130463,-101.01172 -159.384774,0 z m 30.97882,18.23633 16.88672,0 8.322395,20.20508 19.107305,-20.20508 16.97265,0 -29.147844,30.70703 13.183303,32.00781 -16.84571,0 -8.920187,-21.42187 -20.275133,21.42187 -16.9277299,0 30.3362269,-32.00781 -12.691996,-30.70703 z"
       id="rect3336-6-8"
       inkscape:connector-curvature="0" />
    <rect
       id="rect3336-6-3-4"
       width="159.38515"
       height="114.60184"
       x="317.84265"
       y="1234.4961"
       ry="0"
       transform="matrix(1,0,-0.47234749,0.88141242,0,0)"
       style="fill:#000000;fill-opacity:0;stroke:#00aadd;stroke-width:10.65149117;stroke-miterlimit:4;stroke-dasharray:none;stroke-opacity:1" />
    <flowRoot
       xml:space="preserve"
       id="flowRoot5676-7-9"
       style="font-style:normal;font-weight:normal;font-size:86.03048706px;line-height:125%;font-family:sans-serif;letter-spacing:0px;word-spacing:0px;fill:#00aadd;fill-opacity:1;stroke:none;stroke-width:1px;stroke-linecap:butt;stroke-linejoin:miter;stroke-opacity:1"
       transform="matrix(1,0,-0.26794919,1,-310.76109,1085.7516)"><flowRegion
         id="flowRegion5678-0-5"><rect
           id="rect5680-0-4"
           width="138.60468"
           height="111.29341"
           x="79.507957"
           y="-2.4509656"
           style="font-size:86.03048706px;fill:#00aadd;fill-opacity:1" /></flowRegion><flowPara
         id="flowPara5682-2-9"
         style="font-style:normal;font-variant:normal;font-weight:bold;font-stretch:normal;font-size:86.03048706px;font-family:sans-serif;-inkscape-font-specification:'sans-serif Bold';fill:#00aadd;fill-opacity:1">X</flowPara></flowRoot>    <path
       style="fill:#000000;fill-opacity:1;stroke:#000000;stroke-width:4.7794714;stroke-miterlimit:4;stroke-dasharray:none;stroke-opacity:1"
       d="m 580.34003,170.5293 -54.13045,101.01172 158.60351,0 -0.0204,0.0762 28.84961,0 27.07752,-101.05469 -1.01172,0 0.0189,-0.0332 -159.38672,0 z m 38.78729,18.95117 16.88671,0 8.3224,20.20508 19.10925,-20.20508 16.9707,0 -29.14784,30.70703 13.18277,32.00977 -16.84375,0 -8.92161,-21.42383 -20.2737,21.42383 -16.92969,0 30.33676,-32.00977 -12.692,-30.70703 z"
       id="rect3336-6-3-41"
       inkscape:connector-curvature="0"
       inkscape:export-xdpi="47.585976"
       inkscape:export-ydpi="47.585976" />
    <path
       style="fill:#000000;fill-opacity:0;stroke:#000000;stroke-width:4.77947092;stroke-miterlimit:4;stroke-dasharray:none;stroke-opacity:0"
       d="m 288.97317,280.30159 -27.06445,6.21541 158.60351,0 0,0.005 28.84961,0 0,-6.21806 -1.01172,0 0.01,-0.002 -159.38672,0 z m 43.86524,1.16609 16.88671,0 13.73633,1.24325 13.69532,-1.24325 16.9707,0 -20.91992,1.88946 21.75976,1.96961 -16.84375,0 -14.66211,-1.31825 -14.5332,1.31825 -16.92969,0 21.75977,-1.96961 -20.91992,-1.88946 z"
       id="rect3336-6-3-41-6-0"
       inkscape:connector-curvature="0"
       inkscape:export-xdpi="47.585976"
       inkscape:export-ydpi="47.585976" />
    <path
       style="fill:#000000;fill-opacity:0;stroke:#000000;stroke-width:4.77947092;stroke-miterlimit:4;stroke-dasharray:none;stroke-opacity:0"
       d="m 403.69618,263.83621 -27.06445,6.21541 158.60351,0 0,0.005 28.84961,0 0,-6.21806 -1.01172,0 0.01,-0.002 -159.38672,0 z m 43.86524,1.16609 16.88671,0 13.73633,1.24325 13.69532,-1.24325 16.9707,0 -20.91992,1.88946 21.75976,1.96961 -16.84375,0 -14.66211,-1.31825 -14.5332,1.31825 -16.92969,0 21.75977,-1.96961 -20.91992,-1.88946 z"
       id="rect3336-6-3-41-6-0-8"
       inkscape:connector-curvature="0"
       inkscape:export-xdpi="47.585976"
       inkscape:export-ydpi="47.585976" />
    <path
       style="fill:#000000;fill-opacity:0;stroke:#000000;stroke-width:4.77947092;stroke-miterlimit:4;stroke-dasharray:none;stroke-opacity:0"
       d="m 555.41047,276.47906 -27.06445,6.21541 158.6035,0 0,0.005 28.84961,0 0,-6.21806 -1.01172,0 0.01,-0.002 -159.38671,0 z m 43.86524,1.16609 16.88671,0 13.73632,1.24325 13.69532,-1.24325 16.9707,0 -20.91992,1.88946 21.75976,1.96961 -16.84375,0 -14.66211,-1.31825 -14.53319,1.31825 -16.92969,0 21.75977,-1.96961 -20.91992,-1.88946 z"
       id="rect3336-6-3-41-6-0-3"
       inkscape:connector-curvature="0"
       inkscape:export-xdpi="47.585976"
       inkscape:export-ydpi="47.585976" />
    <path
       style="fill:#000000;fill-opacity:0;stroke:#000000;stroke-width:4.77947092;stroke-miterlimit:4;stroke-dasharray:none;stroke-opacity:0"
       d="m 145.15929,146.1149 -21.20142,6.21541 124.24484,0 0,0.005 22.59985,0 0,-6.21806 -0.79255,0 0.008,-0.002 -124.85837,0 z m 34.3626,1.16609 13.2285,0 10.76059,1.24325 10.72847,-1.24325 13.2943,0 -16.38799,1.88946 17.04589,1.96961 -13.19485,0 -11.48582,-1.31825 -11.38483,1.31825 -13.26217,0 17.0459,-1.96961 -16.38799,-1.88946 z"
       id="rect3336-6-3-41-6-0-1"
       inkscape:connector-curvature="0"
       inkscape:export-xdpi="47.585976"
       inkscape:export-ydpi="47.585976" />
    <path
       style="fill:#000000;fill-opacity:0;stroke:#000000;stroke-width:4.77947092;stroke-miterlimit:4;stroke-dasharray:none;stroke-opacity:0"
       d="m 530.98698,139.39469 -20.06843,6.21541 117.60527,0 0,0.005 21.39213,0 0,-6.21806 -0.7502,0 0.007,-0.002 -118.18602,0 z m 32.52629,1.16609 12.52158,0 10.18554,1.24325 10.15514,-1.24325 12.58386,0 -15.51222,1.88946 16.13497,1.96961 -12.48973,0 -10.87202,-1.31825 -10.77643,1.31825 -12.55344,0 16.13497,-1.96961 -15.51222,-1.88946 z"
       id="rect3336-6-3-41-6-0-1-6"
       inkscape:connector-curvature="0"
       inkscape:export-xdpi="47.585976"
       inkscape:export-ydpi="47.585976" />
    <rect
       id="rect3336-2-5-7-9"
       width="159.38515"
       height="114.60184"
       x="144.22221"
       y="38.105732"
       ry="0"
       transform="matrix(1,0,-0.47234749,0.88141242,0,0)"
       style="fill:#000000;fill-opacity:0;stroke:#000000;stroke-width:10.65149117;stroke-miterlimit:4;stroke-dasharray:none;stroke-opacity:0.17747444"
       inkscape:export-xdpi="47.585976"
       inkscape:export-ydpi="47.585976" />
    <path
       style="fill:#000000;fill-opacity:0.17647059;stroke:#86c8d8;stroke-width:4.0059638;stroke-miterlimit:4;stroke-dasharray:none;stroke-opacity:0.25"
       d="m 158.99227,54.771105 -4.9161,17.855115 27.6168,0 -5.8246,21.150459 35.6366,0 10.74218,-39.005574 -63.25488,0 z"
       id="rect3336-2-2-6-8-9"
       inkscape:connector-curvature="0"
       inkscape:export-xdpi="47.585976"
       inkscape:export-ydpi="47.585976" />
    <rect
       id="rect3336-2-2-4-6-6-6-5-3-2"
       width="60.690571"
       height="38.819023"
       x="136.32159"
       y="79.376701"
       ry="0"
       transform="matrix(1,0,-0.26549233,0.96411297,0,0)"
       style="fill:#000000;fill-opacity:0.17647059;stroke:#86c8d8;stroke-width:4.09510469;stroke-miterlimit:4;stroke-dasharray:none;stroke-opacity:0.25"
       inkscape:export-xdpi="47.585976"
       inkscape:export-ydpi="47.585976" />
    <path
       style="fill:#000000;fill-opacity:0;stroke:#86c8d8;stroke-width:4.77947092;stroke-miterlimit:4;stroke-dasharray:none;stroke-opacity:0"
       d="m 105.74227,142.09072 -21.201419,6.21541 124.244839,0 0,0.005 22.59985,0 0,-6.21806 -0.79255,0 0.008,-0.002 -124.85837,0 z m 34.3626,1.16609 13.2285,0 10.76059,1.24325 10.72847,-1.24325 13.2943,0 -16.38799,1.88946 17.04589,1.96961 -13.19485,0 -11.48582,-1.31825 -11.38483,1.31825 -13.26217,0 17.0459,-1.96961 -16.38799,-1.88946 z"
       id="rect3336-6-3-41-6-0-1-1"
       inkscape:connector-curvature="0"
       inkscape:export-xdpi="47.585976"
       inkscape:export-ydpi="47.585976" />
    <path
       style="fill:#000000;fill-opacity:0;stroke:#000000;stroke-width:4.77947092;stroke-miterlimit:4;stroke-dasharray:none;stroke-opacity:0"
       d="m 267.10227,404.09341 -27.06445,6.21541 158.60351,0 0,0.005 28.84961,0 0,-6.21806 -1.01172,0 0.01,-0.002 -159.38672,0 z m 43.86524,1.16609 16.88671,0 13.73633,1.24325 13.69532,-1.24325 16.9707,0 -20.91992,1.88946 21.75976,1.96961 -16.84375,0 -14.66211,-1.31825 -14.5332,1.31825 -16.92969,0 21.75977,-1.96961 -20.91992,-1.88946 z"
       id="rect3336-6-3-41-6-0-6"
       inkscape:connector-curvature="0"
       inkscape:export-xdpi="47.585976"
       inkscape:export-ydpi="47.585976" />
    <flowRoot
       xml:space="preserve"
       id="flowRoot5676-7-6"
       style="font-style:normal;font-weight:normal;font-size:86.03048706px;line-height:125%;font-family:sans-serif;letter-spacing:0px;word-spacing:0px;fill:#000000;fill-opacity:1;stroke:none;stroke-width:1;stroke-linecap:butt;stroke-linejoin:miter;stroke-miterlimit:0;stroke-dasharray:none;stroke-opacity:1"
       transform="translate(86.633015,414.2275)"
       inkscape:export-xdpi="47.585976"
       inkscape:export-ydpi="47.585976"><flowRegion
         id="flowRegion5678-0-8"
         style="stroke:url(#linearGradient6286)"><rect
           id="rect5680-0-1"
           width="138.60468"
           height="111.29341"
           x="96.330292"
           y="21.751743"
           style="font-size:86.03048706px;fill:#000000;fill-opacity:1;stroke:none;stroke-width:1;stroke-linejoin:miter;stroke-miterlimit:0;stroke-dasharray:none;stroke-opacity:1" /></flowRegion><flowPara
         id="flowPara5682-2-2"
         style="font-style:normal;font-variant:normal;font-weight:bold;font-stretch:normal;font-size:86.03048706px;font-family:sans-serif;-inkscape-font-specification:'sans-serif Bold';fill:#000000;fill-opacity:1;stroke:none;stroke-width:1;stroke-linejoin:miter;stroke-miterlimit:0;stroke-dasharray:none;stroke-opacity:1">X</flowPara></flowRoot>    <path
       style="fill:#ff0000;fill-opacity:0;stroke:#000000;stroke-width:4.7794714;stroke-miterlimit:4;stroke-dasharray:none;stroke-opacity:1"
       d="m 866.83406,47.217961 75.46878,0 0.0825,46.537112 -42.5176,0 -0.0451,-25.234382 -32.9492,0 -0.0393,-21.30273 z"
       id="path4640" />
    <path
       style="fill:#000000;fill-opacity:1;stroke:#000000;stroke-width:0.605;stroke-miterlimit:2.29999995;stroke-dasharray:none;stroke-opacity:1;stroke-linejoin:miter"
       d="m 234.55404,388.15378 c 0.98432,-1.8259 11.9044,-22.19644 24.26685,-45.26786 l 22.47718,-41.94804 75.33313,-0.0901 75.33313,-0.0901 -5.42766,20.26868 c -2.98521,11.14778 -8.45264,31.55887 -12.14982,45.35798 l -6.72215,25.08928 -87.45016,0 -87.45016,0 1.78966,-3.31981 z m 97.50162,-21.3119 7.26517,-10.70315 4.45129,6.50672 c 2.44822,3.57869 5.74224,8.39511 7.32006,10.70314 l 2.86876,4.19643 8.52136,0 c 4.68675,0 8.52137,-0.0759 8.52137,-0.16863 0,-0.0927 -4.88926,-7.35431 -10.86502,-16.13683 l -10.86501,-15.96821 0.98478,-1.45245 c 0.54163,-0.79885 5.10975,-7.50703 10.15138,-14.90708 5.04162,-7.40004 9.26385,-13.70807 9.38272,-14.01785 0.1931,-0.50321 -0.69399,-0.56324 -8.32349,-0.56324 l -8.53962,0 -6.7498,10.00389 c -5.26045,7.79653 -6.84123,9.90453 -7.16419,9.55358 -0.22791,-0.24768 -3.18851,-4.54854 -6.5791,-9.55747 -3.3906,-5.00893 -6.35426,-9.31102 -6.58593,-9.5602 -0.32245,-0.34683 -2.40932,-0.43057 -8.90056,-0.35714 l -8.47935,0.0959 10.40769,15.27896 c 5.72423,8.40342 10.33184,15.47485 10.23913,15.71428 -0.0927,0.23944 -4.8672,7.34605 -10.60997,15.79248 -5.74277,8.44643 -10.52082,15.55804 -10.61788,15.80357 -0.13822,0.34962 1.67523,0.44643 8.36227,0.44643 l 8.53877,0 7.26517,-10.70314 z"
       id="path4636"
       inkscape:connector-curvature="0" />
    <path
       style="fill:#ff0000;fill-opacity:0;stroke:#000000;stroke-width:4.7794714;stroke-miterlimit:4;stroke-dasharray:none;stroke-opacity:1"
       d="m 824.1327,68.575381 75.4688,0 0.0825,46.537099 -75.4668,0 z"
       id="rect3336-2-6" />
    <path
       style="fill:#000000;fill-opacity:0;stroke:#000000;stroke-width:4.77947092;stroke-miterlimit:4;stroke-dasharray:none;stroke-opacity:0"
       d="m 521.55333,731.44335 -27.06445,6.21541 158.60349,0 0,0.005 28.84961,0 0,-6.21806 -1.01172,0 0.01,-0.002 -159.3867,0 z m 43.86524,1.16609 16.88671,0 13.73631,1.24325 13.69532,-1.24325 16.9707,0 -20.91992,1.88946 21.75976,1.96961 -16.84375,0 -14.66211,-1.31825 -14.53318,1.31825 -16.92969,0 21.75977,-1.96961 -20.91992,-1.88946 z"
       id="rect3336-6-3-41-6-0-3-1"
       inkscape:connector-curvature="0"
       inkscape:export-xdpi="49.429188"
       inkscape:export-ydpi="49.429188" />
    <path
       style="fill:none;fill-rule:evenodd;stroke:#000000;stroke-width:1px;stroke-linecap:butt;stroke-linejoin:miter;stroke-opacity:1"
       d="m 244.96199,362.93309 c 0,2.90185 0.37646,1.77246 -0.50507,3.53554 -0.16836,0.33671 -0.41377,0.64493 -0.50508,1.01015 -0.0817,0.32666 0.066,0.67997 0,1.01015 -0.33503,1.67513 -0.4714,1.17851 -1.01015,2.52538 -0.19773,0.49432 -0.26698,1.03904 -0.50508,1.51523 -0.27147,0.54294 -0.78471,0.95162 -1.01015,1.51523 -0.12506,0.31263 0.12505,0.69752 0,1.01015 -0.22545,0.56361 -0.69784,0.99471 -1.01015,1.51523 -0.19369,0.32281 -0.33672,0.67344 -0.50508,1.01015 -0.16836,0.33672 -0.41377,0.64494 -0.50508,1.01016 -0.0817,0.32666 0.10648,0.69071 0,1.01015 -0.0753,0.22588 -0.39859,0.29212 -0.50507,0.50508 -0.15059,0.30116 0.15058,0.70898 0,1.01015 -0.10648,0.21296 -0.3986,0.29212 -0.50508,0.50507 -0.137,0.274 0.1382,1.88211 0,2.02031 -0.11905,0.11905 -0.38603,-0.11905 -0.50508,0 -0.23809,0.23809 0.2381,0.77206 0,1.01015 -0.11904,0.11905 -0.38602,-0.11905 -0.50507,0 -0.11905,0.11905 0.0753,0.35449 0,0.50508 -0.10648,0.21296 -0.3986,0.29212 -0.50508,0.50507 -0.0753,0.15059 0.11905,0.38603 0,0.50508 -0.11905,0.11905 -0.38603,-0.11905 -0.50507,0 -0.11905,0.11905 0,0.33672 0,0.50508 0,0.16836 0,0.33671 0,0.50507"
       id="path3437"
       inkscape:connector-curvature="0" />
    <path
       style="fill:none;fill-rule:evenodd;stroke:#000000;stroke-width:5.9;stroke-linecap:butt;stroke-linejoin:miter;stroke-opacity:1;stroke-miterlimit:4;stroke-dasharray:none"
       d="m 280.71429,300.57649 c 4.7619,0 9.52381,0 14.28571,0 0.83333,0 1.66667,0 2.5,0 0.11905,0 0.2381,0 0.35714,0 0.11905,0 0.25067,0.0532 0.35715,0 0.15058,-0.0753 0.20655,-0.28185 0.35714,-0.35714 0.0939,-0.047 1.24181,0 1.42857,0 1.30952,0 2.61905,0 3.92857,0 1.30953,0 2.61905,0 3.92857,0 0.2381,0 0.47619,0 0.71429,0 0.23809,0 0.4833,-0.0577 0.71428,0 0.25826,0.0646 0.45604,0.29258 0.71429,0.35714 0.23099,0.0577 0.47619,0 0.71429,0 0.23809,0 0.47619,0 0.71428,0 0.83334,0 1.66667,0 2.5,0 2.5,0 5,0 7.5,0 0.71429,0 1.42857,0 2.14286,0 0.23809,0 0.48081,-0.0467 0.71428,0 0.36916,0.0738 0.70228,0.28331 1.07143,0.35714 0.23347,0.0467 0.47619,0 0.71429,0 0.35714,0 0.71428,0 1.07143,0 0.83333,0 1.66666,0 2.5,0 3.45238,0 6.90476,0 10.35714,0 6.07143,0 12.14286,0 18.21429,0 2.73809,0 5.47619,0 8.21428,0 0.83334,0 1.66667,0 2.5,0 0.2381,0 0.47619,0 0.71429,0 0.11905,0 0.24165,0.0289 0.35714,0 0.36522,-0.0913 0.70621,-0.26584 1.07143,-0.35714 0.26365,-0.0659 1.53096,0 1.78571,0 0.11905,0 0.25067,0.0532 0.35715,0 0.15058,-0.0753 0.19742,-0.3039 0.35714,-0.35714 0.45175,-0.15059 0.9666,0.11549 1.42857,0 0.25825,-0.0646 0.45326,-0.30494 0.71429,-0.35715 0.65462,-0.13092 1.84138,0.13173 2.5,0 0.36915,-0.0738 0.70009,-0.29525 1.07142,-0.35714 0.35229,-0.0587 0.71429,0 1.07143,0 0.83334,0 1.66667,0 2.5,0 0.95238,0 1.90477,0 2.85715,0 0.23809,0 0.4833,0.0577 0.71428,0 0.25825,-0.0646 0.45604,-0.29258 0.71429,-0.35714 0.23098,-0.0577 0.47619,0 0.71428,0 0.29907,0 1.51412,0.0679 1.78572,0 0.25825,-0.0646 0.46175,-0.27297 0.71428,-0.35715 0.11294,-0.0376 0.2381,0 0.35715,0 0.19934,0 1.62222,0.0545 1.78571,0 0.15972,-0.0532 0.20656,-0.28185 0.35714,-0.35714 0.08,-0.04 1.34371,0 1.42857,0 0.95239,0 1.90477,0 2.85715,0 1.30952,0 2.61905,0 3.92857,0 0.31919,0 1.6719,-0.0569 1.78571,0 0.15059,0.0753 0.20656,0.28185 0.35715,0.35714 0.10648,0.0532 0.23809,0 0.35714,0 0.23809,0 0.4833,-0.0577 0.71428,0 0.25826,0.0646 0.45604,0.29259 0.71429,0.35715 0.29043,0.0726 1.76899,0 2.14286,0 0.11905,0 0.23809,0 0.35714,0 0.11905,0 0.25066,-0.0532 0.35714,0 0.15059,0.0753 0.20656,0.28185 0.35715,0.35714 0.22531,0.11266 1.5604,-0.11265 1.78571,0 0.15059,0.0753 0.20656,0.28185 0.35714,0.35714 0.10593,0.053 1.79742,0 2.14286,0 0.0866,0 1.05994,-0.0115 1.07143,0 0.0842,0.0842 -0.0842,0.27297 0,0.35715 0.0115,0.0115 0.98481,0 1.07143,0 0.71428,0 1.42857,0 2.14285,0 0.0849,0 1.34853,-0.04 1.42858,0 0.15058,0.0753 0.20655,0.28185 0.35714,0.35714 0.10648,0.0532 0.23809,0 0.35714,0 0.11905,0 0.2381,0 0.35714,0 0.71429,0 1.42858,0 2.14286,0 0.71429,0 1.42857,0 2.14286,0 0.0849,0 1.34852,0.04 1.42857,0 0.15059,-0.0753 0.19742,-0.3039 0.35714,-0.35714 0.24297,-0.081 1.59635,0.0947 1.78572,0 0.15058,-0.0753 0.20656,-0.28185 0.35714,-0.35715 0.10648,-0.0532 0.2381,0 0.35714,0 0.25315,0 2.05052,0.0462 2.14286,0 0.15059,-0.0753 0.20656,-0.28185 0.35714,-0.35714 0.0939,-0.047 1.24182,0 1.42857,0 0.11905,0 0.2381,0 0.35715,0 0.11905,0 0.35714,-0.11905 0.35714,0 0,0.11905 -0.35714,0.11905 -0.35714,0 0,-0.13947 0.50084,-0.57058 0.71428,-0.35714 0.0504,0.0504 0.0366,0.99817 0,1.07143 -0.0753,0.15058 -0.28185,0.20655 -0.35714,0.35714 -0.0532,0.10648 0.0842,0.27296 0,0.35714 -0.0842,0.0842 -0.27296,-0.0842 -0.35714,0 -0.11059,0.11059 0.11059,1.67513 0,1.78572 -0.0842,0.0842 -0.27297,-0.0842 -0.35715,0 -0.0115,0.0115 0,0.98481 0,1.07142 0,0.95239 0.11905,-0.11904 -0.35714,0.35715 -0.0842,0.0842 0,0.23809 0,0.35714 0,0.33637 0.0677,1.58255 0,1.78571 -0.0532,0.15972 -0.28185,0.20656 -0.35714,0.35715 -0.0532,0.10648 0,0.23809 0,0.35714 0,0.11905 0,0.2381 0,0.35714 0,0.19935 0.0545,1.62223 0,1.78572 -0.0532,0.15972 -0.28185,0.20656 -0.35714,0.35714 -0.11266,0.22531 0.11265,1.5604 0,1.78571 -0.0753,0.15059 -0.28185,0.20656 -0.35715,0.35715 -0.0532,0.10648 0,0.23809 0,0.35714 0,0.11905 0,0.2381 0,0.35714 0,0.59524 0,1.19048 0,1.78572 0,0.11905 0.0532,0.25066 0,0.35714 -0.0753,0.15059 -0.28185,0.20656 -0.35714,0.35714 -0.0532,0.10648 0,0.2381 0,0.35715 0,0.23809 0.0753,0.48841 0,0.71428 -0.0532,0.15972 -0.3039,0.19743 -0.35714,0.35714 -0.11294,0.33882 0,0.71429 0,1.07143 0,0.71429 0,1.42857 0,2.14286 0,0.11905 0,0.2381 0,0.35714 0,0.11905 0.0532,0.25067 0,0.35715 -0.0753,0.15058 -0.28185,0.20655 -0.35715,0.35714 -0.14285,0.28571 0.14286,0.78571 0,1.07143 -0.0753,0.15058 -0.28185,0.20656 -0.35714,0.35714 -0.0708,0.1416 0.073,0.99842 0,1.07143 -0.0842,0.0842 -0.27296,-0.0842 -0.35714,0 -0.12536,0.12536 0.12334,1.53902 0,1.78571 -0.0753,0.15059 -0.28185,0.20656 -0.35714,0.35715 -0.0532,0.10648 0.0532,0.25066 0,0.35714 -0.0753,0.15058 -0.28185,0.20656 -0.35715,0.35714 -0.0532,0.10648 0.0532,0.25067 0,0.35715 -0.0753,0.15058 -0.28185,0.20655 -0.35714,0.35714 -0.14286,0.28571 0.14286,0.78571 0,1.07143 -0.0753,0.15058 -0.28185,0.20655 -0.35714,0.35714 -0.0532,0.10648 0.0842,0.27296 0,0.35714 -0.0842,0.0842 -0.27297,-0.0842 -0.35715,0 -0.16835,0.16836 0.10648,0.50133 0,0.71429 -0.0753,0.15058 -0.28185,0.20656 -0.35714,0.35714 -0.0708,0.1416 0.073,0.99842 0,1.07143 -0.0842,0.0842 -0.23809,0 -0.35714,0 -0.11905,0.23809 -0.27296,0.46175 -0.35714,0.71429 -0.0753,0.22587 0.16836,0.54592 0,0.71428 -0.0842,0.0842 -0.27297,-0.0842 -0.35715,0 -0.0842,0.0842 0,0.2381 0,0.35714 -0.11904,0.2381 -0.16891,0.52606 -0.35714,0.71429 -0.0842,0.0842 -0.3039,-0.10648 -0.35714,0 -0.11553,0.23105 0.12829,1.30028 0,1.42857 -0.0842,0.0842 -0.27297,-0.0842 -0.35715,0 -0.16835,0.16836 0.10648,0.50133 0,0.71429 -0.0753,0.15058 -0.28185,0.20655 -0.35714,0.35714 -0.10648,0.21296 0.10648,0.50133 0,0.71429 -0.0753,0.15058 -0.28185,0.20655 -0.35714,0.35714 -0.0532,0.10648 0.0842,0.27296 0,0.35714 -0.0842,0.0842 -0.3039,-0.10648 -0.35714,0 -0.10648,0.21296 0.0753,0.48841 0,0.71429 -0.0532,0.15972 -0.28185,0.20655 -0.35715,0.35714 -0.0532,0.10648 0.0532,0.25066 0,0.35714 -0.0753,0.15059 -0.28185,0.20656 -0.35714,0.35715 -0.14286,0.28571 0.14286,0.78571 0,1.07142 -0.0753,0.15059 -0.28185,0.20656 -0.35714,0.35715 -0.0708,0.1416 0.073,0.99841 0,1.07143 -0.0842,0.0842 -0.27297,-0.0842 -0.35715,0 -0.0842,0.0842 0,0.23809 0,0.35714 0,0.16839 0.0162,1.76953 0,1.78571 -0.0842,0.0842 -0.27296,-0.0842 -0.35714,0 -0.16836,0.16836 0.10648,0.50133 0,0.71429 -0.0753,0.15058 -0.3039,0.19742 -0.35714,0.35714 -0.14887,0.44661 0.14887,2.05339 0,2.5 -0.0532,0.15972 -0.3039,0.19742 -0.35714,0.35714 -0.11294,0.33882 0.11293,0.73262 0,1.07143 -0.0842,0.25254 -0.27297,0.46175 -0.35715,0.71429 -0.0376,0.11294 0.0842,0.27296 0,0.35714 -0.0842,0.0842 -0.3039,-0.10648 -0.35714,0 -0.10648,0.21296 0.0753,0.48841 0,0.71429 -0.0532,0.15972 -0.3039,0.19742 -0.35714,0.35714 -0.0753,0.22588 0,0.47619 0,0.71429 0,0.11904 0.0532,0.25066 0,0.35714 -0.0753,0.15058 -0.28185,0.20656 -0.35715,0.35714 -0.0532,0.10648 0.0532,0.25066 0,0.35714 -0.0753,0.15059 -0.28185,0.20656 -0.35714,0.35715 -0.14286,0.28571 0.14286,0.78571 0,1.07143 -0.0753,0.15058 -0.28185,0.20655 -0.35714,0.35714 -0.0708,0.1416 0.073,0.99841 0,1.07143 -0.0842,0.0842 -0.3039,-0.10648 -0.35714,0 -0.10648,0.21296 0.0753,0.48841 0,0.71428 -0.0532,0.15972 -0.28185,0.20656 -0.35715,0.35715 -0.14285,0.28571 0.14286,0.78571 0,1.07142 -0.0753,0.15059 -0.23809,0.2381 -0.35714,0.35715 0,0.23809 0.0753,0.48841 0,0.71428 -0.10648,0.31944 -0.5637,0.41312 -0.71429,0.71429 -0.0532,0.10648 0.0376,0.2442 0,0.35714 -0.0842,0.25254 -0.27296,0.46175 -0.35714,0.71429 -0.0376,0.11293 0.0532,0.25066 0,0.35714 -0.0753,0.15058 -0.3039,0.19742 -0.35714,0.35714 -0.0753,0.22588 0.0753,0.48841 0,0.71429 -0.10648,0.31944 -0.60781,0.39485 -0.71429,0.71428 0,1.62582 0.16836,0.0204 -0.35714,1.07143 -0.10648,0.21296 0.16836,0.54593 0,0.71429 -0.0842,0.0842 -0.3039,-0.10648 -0.35714,0 -0.1096,0.21919 0.11069,1.56432 0,1.78571 -0.0753,0.15059 -0.30391,0.19743 -0.35715,0.35715 -0.11293,0.33881 0.11294,0.73261 0,1.07142 -0.0842,0.25254 -0.27296,0.46175 -0.35714,0.71429 -0.0753,0.22588 0.10648,0.50133 0,0.71429 -0.0753,0.15058 -0.3039,0.19742 -0.35714,0.35714 -0.0634,0.19009 0,2.55061 0,2.85714 0,0.2381 0.0753,0.48841 0,0.71429 -0.0532,0.15972 -0.28185,0.20655 -0.35714,0.35714 -0.11327,0.22654 0.116,1.55371 0,1.78571 -0.0753,0.15059 -0.28185,0.20656 -0.35715,0.35715 -0.0532,0.10648 0,0.23809 0,0.35714 0,0.42186 0.0708,1.93048 0,2.14286 -0.0532,0.15972 -0.28185,0.20655 -0.35714,0.35714 -0.0532,0.10648 0,0.23809 0,0.35714 0,0.59524 0,1.19048 0,1.78572 0,0.23809 0.0753,0.48841 0,0.71428 -0.0842,0.25254 -0.27296,0.46175 -0.35714,0.71429 -0.0376,0.11294 0.0842,0.27296 0,0.35714 -0.0842,0.0842 -0.27297,-0.0842 -0.35715,0 -0.0859,0.0859 0.0859,1.34263 0,1.42857 -0.0842,0.0842 -0.27296,-0.0842 -0.35714,0 -0.0977,0.0977 0.0969,1.23483 0,1.42857 -0.0753,0.15059 -0.28185,0.20656 -0.35714,0.35715 -0.0532,0.10648 0.0532,0.25066 0,0.35714 -0.0753,0.15058 -0.28185,0.20656 -0.35714,0.35714 -0.0708,0.14161 0.073,0.99842 0,1.07143 -0.0842,0.0842 -0.27297,-0.0842 -0.35715,0 -0.0859,0.0859 0.0859,1.34263 0,1.42857 -0.0842,0.0842 -0.27296,-0.0842 -0.35714,0 -0.17857,0.17857 0.17857,0.89286 0,1.07143 -0.0842,0.0842 -0.27296,-0.0842 -0.35714,0 -0.0859,0.0859 0.0859,1.34263 0,1.42857 -0.0842,0.0842 -0.27297,-0.0842 -0.35715,0 -0.0842,0.0842 0.0842,0.27297 0,0.35715 -0.0842,0.0842 -0.23809,0 -0.35714,0 -0.24841,0 -1.65656,0.0646 -1.78571,0 -0.15059,-0.0753 -0.20656,-0.28186 -0.35715,-0.35715 -0.0939,-0.0469 -1.24181,0 -1.42857,0 -0.27486,0 -1.66761,-0.0591 -1.78571,0 -0.10648,0.0532 0.10648,0.30391 0,0.35715 -0.21296,0.10647 -0.47619,0 -0.71429,0 -0.11904,0 -0.27296,-0.0842 -0.35714,0 -0.0842,0.0842 0.10648,0.3039 0,0.35714 -0.31944,0.15972 -0.75199,-0.15972 -1.07143,0 -0.15058,0.0753 -0.20656,0.28185 -0.35714,0.35714 -0.23201,0.11601 -1.55917,-0.11327 -1.78572,0 -0.15058,0.0753 -0.20655,0.28185 -0.35714,0.35714 -0.0939,0.047 -1.24181,0 -1.42857,0 -0.95238,0 -1.90476,0 -2.85714,0 -0.0866,0 -1.05995,0.0115 -1.07143,0 -0.0842,-0.0842 0.0842,-0.27296 0,-0.35714 -0.0842,-0.0842 -0.2381,0 -0.35714,0 -0.11905,0 -0.2381,0 -0.35715,0 -0.71428,0 -1.42857,0 -2.14285,0 -0.11905,0 -0.27297,0.0842 -0.35715,0 -0.0842,-0.0842 0.0842,-0.27296 0,-0.35714 -0.0842,-0.0842 -0.23809,0 -0.35714,0 -0.11905,0 -0.23809,0 -0.35714,0 -1.78572,0 -3.57143,0 -5.35715,0 -1.30952,0 -2.61904,0 -3.92857,0 -0.11904,0 -0.23809,0 -0.35714,0 -0.11905,0 -0.27296,-0.0842 -0.35714,0 -0.0842,0.0842 0.0842,0.27296 0,0.35714 -0.0842,0.0842 -0.2381,0 -0.35715,0 -1.07142,0 -2.14285,0 -3.21428,0 -1.07143,0 -2.14286,0 -3.21429,0 -0.18675,0 -1.33466,-0.047 -1.42857,0 -0.15058,0.0753 -0.19742,0.3039 -0.35714,0.35714 -0.22588,0.0753 -0.50133,-0.10648 -0.71429,0 -0.10648,0.0532 0.0842,0.27297 0,0.35715 -0.0842,0.0842 -0.23809,0 -0.35714,0 -0.11905,0 -0.23809,0 -0.35714,0 -0.59524,0 -1.19048,0 -1.78572,0 -0.11904,0 -0.23809,0 -0.35714,0 -0.11905,0 -0.25066,-0.0532 -0.35714,0 -0.15059,0.0753 -0.19743,0.3039 -0.35715,0.35714 -0.43206,0.14402 -1.65638,-0.12162 -2.14285,0 -0.25825,0.0646 -0.46175,0.27296 -0.71429,0.35714 -0.11294,0.0376 -0.23809,0 -0.35714,0 -0.29239,0 -1.55432,-0.0771 -1.78572,0 -0.25253,0.0842 -0.45325,0.30494 -0.71428,0.35715 -0.35792,0.0716 -1.6778,0 -2.14286,0 -1.66666,0 -3.33333,0 -5,0 -4.28571,0 -8.57143,0 -12.85714,0 -5.2381,0 -10.47619,0 -15.71429,0 -1.78571,0 -3.57143,0 -5.35714,0 -0.3714,0 -1.86192,0.0702 -2.14286,0 -0.25825,-0.0646 -0.45603,-0.29259 -0.71428,-0.35715 -0.56023,-0.14005 -1.22549,0.14006 -1.78572,0 -0.25825,-0.0646 -0.46174,-0.27296 -0.71428,-0.35714 -0.11294,-0.0376 -0.2381,0 -0.35715,0 -0.3714,0 -1.86192,0.0702 -2.14285,0 -0.25825,-0.0646 -0.45604,-0.29258 -0.71429,-0.35714 -0.23098,-0.0577 -0.48081,0.0467 -0.71428,0 -0.36915,-0.0738 -0.70228,-0.28332 -1.07143,-0.35715 -0.23347,-0.0467 -0.47619,0 -0.71429,0 -0.35714,0 -0.71428,0 -1.07143,0 -0.35714,0 -0.72122,0.0701 -1.07143,0 -0.26102,-0.0522 -0.45603,-0.29258 -0.71428,-0.35714 -0.23099,-0.0577 -0.47619,0 -0.71429,0 -0.23809,0 -0.47619,0 -0.71428,0 -0.11905,0 -0.24421,0.0376 -0.35715,0 -0.25253,-0.0842 -0.45603,-0.29258 -0.71428,-0.35714 -0.28094,-0.0702 -1.77146,0 -2.14286,0 -0.11905,0 -0.2442,0.0376 -0.35714,0 -0.25254,-0.0842 -0.46175,-0.27297 -0.71429,-0.35714 -0.11294,-0.0376 -0.23809,0 -0.35714,0 -0.3714,0 -1.86192,0.0702 -2.14286,0 -0.25825,-0.0646 -0.45603,-0.29259 -0.71428,-0.35715 -0.46198,-0.11549 -0.9666,0.1155 -1.42857,0 -0.25825,-0.0646 -0.45604,-0.29258 -0.71429,-0.35714 -0.23099,-0.0577 -0.47619,0 -0.71429,0 -0.71428,0 -1.42857,0 -2.14285,0 -0.2381,0 -0.4833,0.0577 -0.71429,0 -0.25825,-0.0646 -0.45603,-0.29258 -0.71428,-0.35714 -0.46198,-0.1155 -0.9666,0.11549 -1.42858,0 -0.25825,-0.0646 -0.45603,-0.29258 -0.71428,-0.35715 -0.28094,-0.0702 -1.77146,0 -2.14286,0 -0.11905,0 -0.24165,0.0289 -0.35714,0 -0.36522,-0.0913 -0.70228,-0.28331 -1.07143,-0.35714 -0.5654,-0.11308 -1.60821,0.13366 -2.14286,0 -0.25825,-0.0646 -0.45603,-0.29258 -0.71428,-0.35714 -0.23099,-0.0577 -0.47619,0 -0.71429,0 -0.83333,0 -1.66666,0 -2.5,0 -2.5,0 -5,0 -7.5,0 -4.88095,0 -9.7619,0 -14.64286,0 -1.54761,0 -3.09523,0 -4.64285,0 -0.29907,0 -1.51412,-0.0679 -1.78572,0 -0.25825,0.0646 -0.45603,0.29258 -0.71428,0.35714 -0.23099,0.0577 -0.47619,0 -0.71429,0 -0.35714,0 -0.71428,0 -1.07143,0 -0.23809,0 -0.4833,-0.0577 -0.71428,0 -0.25825,0.0646 -0.45604,0.29258 -0.71429,0.35714 -0.62009,0.15503 -1.52277,-0.15502 -2.14286,0 -0.25825,0.0646 -0.46174,0.27297 -0.71428,0.35715 -0.31694,0.10564 -1.55185,-0.11693 -1.78572,0 -0.15058,0.0753 -0.20655,0.28185 -0.35714,0.35714 -0.21072,0.10536 -0.82577,-0.0819 -1.07143,0 -0.25253,0.0842 -0.46174,0.27296 -0.71428,0.35714 -0.2015,0.0672 -0.83675,0 -1.07143,0 -1.62582,0 -0.0204,-0.16836 -1.07143,0.35715 -0.10648,0.0532 -0.23809,0 -0.35714,0 -0.11905,0 -0.2381,0 -0.35715,0 -0.25532,0 -1.96004,-0.0609 -2.14285,0 -0.15972,0.0532 -0.20656,0.28185 -0.35715,0.35714 -0.12915,0.0646 -1.5373,0 -1.78571,0 -0.11905,0 -0.27296,-0.0842 -0.35714,0 -0.0842,0.0842 0.0842,0.27296 0,0.35714 -0.0842,0.0842 -0.2381,0 -0.35715,0 -0.11904,0 -0.27296,0.0842 -0.35714,0 -0.0842,-0.0842 -0.0842,-0.27296 0,-0.35714 0.0842,-0.0842 0.25067,0.0532 0.35714,0 0.15059,-0.0753 0.20656,-0.28185 0.35715,-0.35714 0.10648,-0.0532 0.27296,0.0842 0.35714,0 0.0842,-0.0842 -0.0842,-0.27297 0,-0.35715 0.73894,-0.73894 -0.0289,1.1292 0.71429,-0.35714 0.10648,-0.21296 -0.16836,-0.54593 0,-0.71429 0.73894,-0.73894 -0.0289,1.1292 0.71428,-0.35714 0.10648,-0.21296 -0.0753,-0.48841 0,-0.71428 0.25533,-0.766 0.87957,-1.23672 1.42857,-1.78572 1.1845,-1.18449 -0.16836,0.33672 0.35715,-0.71428 0.81725,-1.63451 -0.14803,1.5155 0.71428,-1.07143 0.0819,-0.24566 -0.10536,-0.86071 0,-1.07143 0.0753,-0.15059 0.28185,-0.20656 0.35714,-0.35714 0.0532,-0.10648 -0.0532,-0.25067 0,-0.35715 0.81726,-1.6345 -0.14802,1.51551 0.71429,-1.07143 0.0377,-0.11293 -0.0532,-0.25066 0,-0.35714 0.0753,-0.15058 0.28185,-0.20656 0.35714,-0.35714 0.43982,-0.87963 -1.03669,0.3224 0.35715,-1.07143 0.0842,-0.0842 0.27296,0.0842 0.35714,0 0.073,-0.073 -0.0708,-0.92982 0,-1.07143 0.0753,-0.15058 0.28185,-0.20656 0.35714,-0.35714 0.0532,-0.10648 0,-0.2381 0,-0.35714 0.11905,-0.11905 0.28185,-0.20656 0.35714,-0.35715 0.0708,-0.1416 -0.073,-0.99841 0,-1.07143 0.4762,-0.47619 0.35715,0.59524 0.35715,-0.35714 0,-0.0866 -0.0115,-1.05994 0,-1.07143 0.0842,-0.0842 0.27296,0.0842 0.35714,0 0.16836,-0.16836 -0.16836,-0.54592 0,-0.71428 0.0842,-0.0842 0.27296,0.0842 0.35714,0 0.16836,-0.16836 -0.16836,-0.54593 0,-0.71429 0.0842,-0.0842 0.27297,0.0842 0.35715,0 0.16835,-0.16836 -0.16836,-0.54593 0,-0.71428 0.0842,-0.0842 0.27296,0.0842 0.35714,0 0.0859,-0.0859 -0.0859,-1.34264 0,-1.42858 0.47619,-0.47619 0.35714,0.59524 0.35714,-0.35714 0,-1.42857 -0.11905,0.59524 0.35714,-0.35714 0.10648,-0.21296 -0.10647,-0.50133 0,-0.71429 0.0532,-0.10648 0.27297,0.0842 0.35715,0 0.16836,-0.16836 -0.16836,-0.54592 0,-0.71428 0.0842,-0.0842 0.27296,0.0842 0.35714,0 0.0842,-0.0842 -0.0842,-0.27297 0,-0.35715 0.0842,-0.0842 0.27296,0.0842 0.35714,0 0.0842,-0.0842 -0.0842,-0.27296 0,-0.35714 0.73894,-0.73894 -0.0289,1.1292 0.71429,-0.35714 0.0532,-0.10648 -0.0842,-0.27297 0,-0.35714 0.0842,-0.0842 0.25066,0.0532 0.35714,0 0.15059,-0.0753 0.2381,-0.2381 0.35714,-0.35715 0.11905,-0.11905 0.28186,-0.20656 0.35715,-0.35714 0.0532,-0.10648 -0.0842,-0.27296 0,-0.35714 0.0842,-0.0842 0.27296,0.0842 0.35714,0 0.16836,-0.16836 -0.16836,-0.54593 0,-0.71429 0.73894,-0.73894 -0.0289,1.1292 0.71429,-0.35714 0.0532,-0.10648 -0.0532,-0.25067 0,-0.35714 0.0753,-0.15059 0.28185,-0.20656 0.35714,-0.35715 0.10648,-0.21296 -0.10648,-0.50132 0,-0.71428 0.74317,-1.48635 -0.0247,0.38179 0.71428,-0.35715 0.16836,-0.16836 -0.10647,-0.50132 0,-0.71428 0.74318,-1.48635 -0.0247,0.3818 0.71429,-0.35714 0.16836,-0.16836 -0.16836,-0.54593 0,-0.71429 0.0842,-0.0842 0.27296,0.0842 0.35714,0 0.073,-0.073 -0.0708,-0.92982 0,-1.07143 0.74317,-1.48634 -0.0246,0.3818 0.71429,-0.35714 0.0842,-0.0842 -0.0532,-0.25067 0,-0.35714 0.0753,-0.15059 0.28185,-0.20656 0.35714,-0.35715 0.0532,-0.10648 -0.0532,-0.25066 0,-0.35714 0.15059,-0.30117 0.5637,-0.41312 0.71429,-0.71429 0.10648,-0.21296 -0.16836,-0.54592 0,-0.71428 0.0842,-0.0842 0.27296,0.0842 0.35714,0 0.16836,-0.16836 -0.16836,-0.54593 0,-0.71429 0.0842,-0.0842 0.27296,0.0842 0.35714,0 0.0842,-0.0842 -0.0842,-0.27296 0,-0.35714 0.0842,-0.0842 0.27297,0.0842 0.35715,0 0.16835,-0.16836 -0.16836,-0.54593 0,-0.71429 0.0842,-0.0842 0.27296,0.0842 0.35714,0 0.0842,-0.0842 -0.0842,-0.27296 0,-0.35714 0.73894,-0.73894 -0.0289,1.1292 0.71428,-0.35714 0.0532,-0.10648 -0.0532,-0.25067 0,-0.35714 0.0753,-0.15059 0.28186,-0.20656 0.35715,-0.35715 0.0532,-0.10648 -0.0842,-0.27296 0,-0.35714 0.0842,-0.0842 0.23809,0 0.35714,0 0.11905,-0.11905 0.26375,-0.21706 0.35714,-0.35714 0.78685,-0.17986 0.18879,-0.73471 0.35715,-1.07143 0.0753,-0.15059 0.28185,-0.20656 0.35714,-0.35714 0.0532,-0.10648 -0.0532,-0.25067 0,-0.35715 0.17572,-0.35144 1.25285,-1.07713 1.42857,-1.42857 0.0532,-0.10648 -0.0377,-0.2442 0,-0.35714 0.86231,-2.58694 -0.10297,0.56307 0.71429,-1.07143 0.0532,-0.10648 -0.0532,-0.25066 0,-0.35714 0.15058,-0.30117 0.5637,-0.41312 0.71428,-0.71429 0.0532,-0.10648 -0.0842,-0.27296 0,-0.35714 0.0842,-0.0842 0.27297,0.0842 0.35714,0 0.16836,-0.16836 -0.16835,-0.54593 0,-0.71429 0.0842,-0.0842 0.27297,0.0842 0.35715,0 0.073,-0.073 -0.0708,-0.92982 0,-1.07143 0.0753,-0.15058 0.28185,-0.20655 0.35714,-0.35714 0.0708,-0.1416 -0.073,-0.99841 0,-1.07143 0.0842,-0.0842 0.27296,0.0842 0.35714,0 0.0842,-0.0842 -0.0842,-0.27296 0,-0.35714 0.0842,-0.0842 0.27297,0.0842 0.35715,0 0.073,-0.073 -0.0708,-0.92983 0,-1.07143 0.0753,-0.15058 0.28185,-0.20656 0.35714,-0.35714 0.0708,-0.14161 -0.073,-0.99842 0,-1.07143 0.0842,-0.0842 0.27296,0.0842 0.35714,0 0.0977,-0.0977 -0.0969,-1.23483 0,-1.42857 0.0753,-0.15059 0.28185,-0.20656 0.35714,-0.35714 0.10648,-0.21296 -0.16835,-0.54593 0,-0.71429 0.0842,-0.0842 0.27297,0.0842 0.35715,0 0.17857,-0.17857 -0.17857,-0.89286 0,-1.07143 0.0842,-0.0842 0.27296,0.0842 0.35714,0 0.0842,-0.0842 -0.0532,-0.25066 0,-0.35714 0.0753,-0.15059 0.28185,-0.20656 0.35714,-0.35714 0.0532,-0.10648 -0.0842,-0.27297 0,-0.35715 0.0842,-0.0842 0.27297,0.0842 0.35715,0 0.16835,-0.16836 -0.16836,-0.54592 0,-0.71428 0.73894,-0.73894 -0.0289,1.1292 0.71428,-0.35715 0.0532,-0.10648 -0.0532,-0.25066 0,-0.35714 0.0753,-0.15058 0.28185,-0.20656 0.35714,-0.35714 0.0532,-0.10648 -0.0842,-0.27297 0,-0.35714 0.0842,-0.0842 0.30391,0.10647 0.35715,0 0.10648,-0.21296 -0.10648,-0.50133 0,-0.71429 0.0532,-0.10648 0.25066,0.0532 0.35714,0 0.78966,-0.39483 0.11083,-0.22166 0.35714,-0.71429 0.21429,-0.42857 0.85715,-0.64285 1.07143,-1.07142 0.14286,-0.28572 -0.14286,-0.78572 0,-1.07143 0.39483,-0.78967 0.22166,-0.11083 0.71429,-0.35715 0.0613,-0.0306 1.05664,-1.02706 1.07143,-1.07142 0.0753,-0.22588 -0.0753,-0.48841 0,-0.71429 0.10648,-0.31944 0.5637,-0.41312 0.71428,-0.71429 0.0532,-0.10648 -0.0532,-0.25066 0,-0.35714 0.0753,-0.15058 0.28185,-0.20656 0.35714,-0.35714 0.0532,-0.10648 -0.0842,-0.27297 0,-0.35714 0.73895,-0.73895 -0.0289,1.1292 0.71429,-0.35715 0.10648,-0.21296 -0.16836,-0.54592 0,-0.71428 0.0842,-0.0842 0.27296,0.0842 0.35714,0 0.0842,-0.0842 -0.0532,-0.25067 0,-0.35715 0.0753,-0.15058 0.26376,-0.21706 0.35715,-0.35714 0.14766,-0.22149 0.20948,-0.49279 0.35714,-0.71428 0.0934,-0.14009 0.26375,-0.21706 0.35714,-0.35715 0.14766,-0.22149 0.27297,-0.46175 0.35714,-0.71428 0.0376,-0.11294 -0.0842,-0.27297 0,-0.35715 0.0842,-0.0842 0.27297,0.0842 0.35715,0 0.0842,-0.0842 -0.0532,-0.25066 0,-0.35714 0.15058,-0.30117 0.5637,-0.41312 0.71428,-0.71429 0.0708,-0.1416 -0.073,-0.99841 0,-1.07142 0.0842,-0.0842 0.27297,0.0842 0.35715,0 0.0842,-0.0842 -0.0842,-0.27297 0,-0.35715 0.0842,-0.0842 0.27296,0.0842 0.35714,0 0.16836,-0.16836 -0.10648,-0.50132 0,-0.71428 0.0753,-0.15059 0.26375,-0.21706 0.35714,-0.35715 0.14766,-0.22149 0.16891,-0.52605 0.35714,-0.71428 0.0842,-0.0842 0.27297,0.0842 0.35715,0 1.39383,-1.39383 -0.0827,-0.1918 0.35714,-1.07143 0.15059,-0.30117 0.5637,-0.41312 0.71429,-0.71429 0.0532,-0.10647 -0.0842,-0.27296 0,-0.35714 0.0842,-0.0842 0.27296,0.0842 0.35714,0 0.16836,-0.16836 -0.16836,-0.54592 0,-0.71428 0.0842,-0.0842 0.27296,0.0842 0.35714,0 0.18823,-0.18823 0.27297,-0.46175 0.35714,-0.71429 0.0376,-0.11294 -0.0842,-0.27296 0,-0.35714 0.0842,-0.0842 0.25067,0.0532 0.35715,0 0.15058,-0.0753 0.23809,-0.2381 0.35714,-0.35715 0.11905,-0.11904 0.28185,-0.20655 0.35714,-0.35714 0.10648,-0.21296 -0.16836,-0.54592 0,-0.71428 0.0842,-0.0842 0.27297,0.0842 0.35715,0 0.0842,-0.0842 -0.0532,-0.25067 0,-0.35715 0.0753,-0.15058 0.28185,-0.20655 0.35714,-0.35714 0.10648,-0.21296 -0.16836,-0.54593 0,-0.71429 0.0842,-0.0842 0.25066,0.0532 0.35714,0 0.15059,-0.0753 0.2381,-0.23809 0.35714,-0.35714 0.11905,-0.11905 0.28186,-0.20656 0.35715,-0.35714 0.10648,-0.21296 -0.10648,-0.50133 0,-0.71429 0.74317,-1.48634 -0.0247,0.3818 0.71428,-0.35714 0.17857,-0.17857 -0.17857,-0.89286 0,-1.07143 0.73894,-0.73894 -0.0289,1.1292 0.71429,-0.35714 0.10648,-0.21296 -0.16836,-0.54593 0,-0.71429 0.0842,-0.0842 0.27296,0.0842 0.35714,0 0.0842,-0.0842 0,-0.23809 0,-0.35714 0,-0.83333 0,-1.66667 0,-2.5 0,-0.11905 0,-0.23809 0,-0.35714 0,-0.11905 -0.0842,-0.27297 0,-0.35715 0.0842,-0.0842 0.27297,0.0842 0.35714,0 0.073,-0.073 -0.0708,-0.92982 0,-1.07142 0.0753,-0.15059 0.28186,-0.20656 0.35715,-0.35715 0.10648,-0.21296 -0.16836,-0.54592 0,-0.71428 0.0842,-0.0842 0.27296,0.0842 0.35714,0 0.16836,-0.16836 -0.16836,-0.54593 0,-0.71429 0.0842,-0.0842 0.27296,0.0842 0.35714,0 0.17857,-0.17857 -0.17857,-0.89286 0,-1.07143 0.0842,-0.0842 0.27297,0.0842 0.35715,0 0.0842,-0.0842 0,-0.23809 0,-0.35714 0,-0.47619 0,-0.95238 0,-1.42857 z"
       id="path4249"
       inkscape:connector-curvature="0" />
  </g>
</svg>
