<?xml version="1.0" encoding="UTF-8" standalone="no"?>
<!-- Created with Inkscape (http://www.inkscape.org/) -->

<svg
   xmlns:osb="http://www.openswatchbook.org/uri/2009/osb"
   xmlns:dc="http://purl.org/dc/elements/1.1/"
   xmlns:cc="http://creativecommons.org/ns#"
   xmlns:rdf="http://www.w3.org/1999/02/22-rdf-syntax-ns#"
   xmlns:svg="http://www.w3.org/2000/svg"
   xmlns="http://www.w3.org/2000/svg"
   xmlns:xlink="http://www.w3.org/1999/xlink"
   xmlns:sodipodi="http://sodipodi.sourceforge.net/DTD/sodipodi-0.dtd"
   xmlns:inkscape="http://www.inkscape.org/namespaces/inkscape"
   width="210mm"
   height="297mm"
   viewBox="0 0 744.09448819 1052.3622047"
   id="svg2"
   version="1.1"
   inkscape:version="0.91 r13725"
   sodipodi:docname="stagecraft-awesome-scifi-buttons.svg">
  <defs
     id="defs4">
    <linearGradient
       inkscape:collect="always"
       id="linearGradient4369">
      <stop
         style="stop-color:#000000;stop-opacity:1"
         offset="0"
         id="stop4371" />
      <stop
         style="stop-color:#000000;stop-opacity:0;"
         offset="1"
         id="stop4373" />
    </linearGradient>
    <linearGradient
       inkscape:collect="always"
       id="linearGradient6280">
      <stop
         style="stop-color:#b2b2b2;stop-opacity:1;"
         offset="0"
         id="stop6282" />
      <stop
         style="stop-color:#b2b2b2;stop-opacity:0;"
         offset="1"
         id="stop6284" />
    </linearGradient>
    <linearGradient
       id="linearGradient6254"
       osb:paint="gradient">
      <stop
         style="stop-color:#000000;stop-opacity:1;"
         offset="0"
         id="stop6256" />
      <stop
         style="stop-color:#000000;stop-opacity:0;"
         offset="1"
         id="stop6258" />
    </linearGradient>
    <linearGradient
       id="linearGradient5606"
       osb:paint="solid">
      <stop
         style="stop-color:#000000;stop-opacity:1;"
         offset="0"
         id="stop5608" />
    </linearGradient>
    <linearGradient
       id="linearGradient4148"
       osb:paint="solid">
      <stop
         style="stop-color:#000000;stop-opacity:1;"
         offset="0"
         id="stop4150" />
    </linearGradient>
    <linearGradient
       inkscape:collect="always"
       xlink:href="#linearGradient6280"
       id="linearGradient6286"
       x1="93.740608"
       y1="48.052429"
       x2="152.58954"
       y2="106.90136"
       gradientUnits="userSpaceOnUse" />
    <linearGradient
       inkscape:collect="always"
       xlink:href="#linearGradient4369"
       id="linearGradient4375-5"
       x1="922.62573"
       y1="326.45892"
       x2="922.62573"
       y2="416.71832"
       gradientUnits="userSpaceOnUse"
       gradientTransform="translate(209.90899,-8.091673)" />
    <linearGradient
       inkscape:collect="always"
       xlink:href="#linearGradient6280"
       id="linearGradient4383-9"
       x1="922.62573"
       y1="326.45892"
       x2="922.62573"
       y2="416.71832"
       gradientUnits="userSpaceOnUse"
       gradientTransform="translate(209.90899,-8.091673)" />
  </defs>
  <sodipodi:namedview
     id="base"
     pagecolor="#00ffff"
     bordercolor="#666666"
     borderopacity="1.0"
     inkscape:pageopacity="0"
     inkscape:pageshadow="2"
     inkscape:zoom="2.56"
     inkscape:cx="248.95903"
     inkscape:cy="572.24174"
     inkscape:document-units="px"
     inkscape:current-layer="layer1"
     showgrid="false"
     inkscape:window-width="1438"
     inkscape:window-height="440"
     inkscape:window-x="2486"
     inkscape:window-y="810"
     inkscape:window-maximized="0"
     showguides="false"
     inkscape:guide-bbox="true"
     inkscape:object-paths="true"
     inkscape:snap-smooth-nodes="true"
     inkscape:snap-others="true"
     inkscape:snap-midpoints="true">
    <inkscape:grid
       type="xygrid"
       id="grid4406" />
  </sodipodi:namedview>
  <metadata
     id="metadata7">
    <rdf:RDF>
      <cc:Work
         rdf:about="">
        <dc:format>image/svg+xml</dc:format>
        <dc:type
           rdf:resource="http://purl.org/dc/dcmitype/StillImage" />
        <dc:title></dc:title>
      </cc:Work>
    </rdf:RDF>
  </metadata>
  <g
     inkscape:label="Layer 1"
     inkscape:groupmode="layer"
     id="layer1">
    <rect
       id="rect3336-8"
       width="159.38515"
       height="114.60184"
       x="841.95447"
       y="35.924152"
       ry="0"
       transform="matrix(1,0,-0.47234749,0.88141242,0,0)"
       style="fill:#000000;fill-opacity:1;stroke:#000000;stroke-width:5.32574558;stroke-miterlimit:4;stroke-dasharray:none;stroke-opacity:1" />
    <path
       style="fill:#000000;fill-opacity:0;stroke:#000000;stroke-width:10;stroke-miterlimit:4;stroke-dasharray:none;stroke-opacity:1"
       d="m 1428.3039,154.97125 -54.1305,101.01173 158.6035,0 -0.02,0.0762 28.8496,0 27.0775,-101.0547 -1.0117,0 -3.5166,-0.0332 -155.8512,0 z"
       id="rect3336-6-3-3"
       inkscape:connector-curvature="0"
       inkscape:export-xdpi="47.585976"
       inkscape:export-ydpi="47.585976"
       sodipodi:nodetypes="cccccccccc" />
    <path
       style="fill:#000000;fill-opacity:0;stroke:#00aadd;stroke-width:10;stroke-linecap:butt;stroke-linejoin:miter;stroke-miterlimit:4;stroke-dasharray:none;stroke-opacity:1"
       d="m 1337.5537,489.07612 -54.1304,101.01172 158.6035,0 -0.02,0.0762 28.8496,0 27.0775,-101.05468 -1.0117,0 -6.6734,-0.0332 -152.6944,0 z"
       id="rect3336-6-3"
       inkscape:connector-curvature="0"
       inkscape:export-xdpi="47.585976"
       inkscape:export-ydpi="47.585976"
       sodipodi:nodetypes="cccccccccc" />
    <rect
       id="rect3336"
       width="159.38515"
       height="114.60184"
       x="1195.2462"
       y="692.23889"
       ry="0"
       transform="matrix(1,0,-0.47234749,0.88141242,0,0)"
       style="fill:#000000;fill-opacity:0;stroke:#000000;stroke-width:5.32574558;stroke-miterlimit:4;stroke-dasharray:none;stroke-opacity:1" />
    <path
       style="fill:#000000;fill-opacity:1;stroke:#000000;stroke-width:5;stroke-miterlimit:4;stroke-dasharray:none;stroke-opacity:1"
       d="m 1356.6712,1241.6715 -54.1325,101.0118 159.3868,0 54.1304,-101.0118 -159.3847,0 z m 30.9788,18.2364 16.8867,0 8.3224,20.2051 19.1073,-20.2051 16.9726,0 -29.1478,30.707 13.1833,32.0078 -16.8457,0 -8.9202,-21.4219 -20.2751,21.4219 -16.9277,0 30.3362,-32.0078 -12.692,-30.707 z"
       id="rect3336-6"
       inkscape:connector-curvature="0" />
    <flowRoot
       xml:space="preserve"
       id="flowRoot5676-7"
       style="font-style:normal;font-weight:normal;font-size:86.03048706px;line-height:125%;font-family:sans-serif;letter-spacing:0px;word-spacing:0px;fill:#00aadd;fill-opacity:1;stroke:none;stroke-width:1px;stroke-linecap:butt;stroke-linejoin:miter;stroke-opacity:1"
       transform="translate(1269.1374,463.23963)"
       inkscape:export-xdpi="47.585976"
       inkscape:export-ydpi="47.585976"><flowRegion
         id="flowRegion5678-0"><rect
           id="rect5680-0"
           width="138.60468"
           height="111.29341"
           x="96.330292"
           y="21.751743"
           style="font-size:86.03048706px;fill:#00aadd;fill-opacity:1" /></flowRegion><flowPara
         id="flowPara5682-2"
         style="font-style:normal;font-variant:normal;font-weight:bold;font-stretch:normal;font-size:86.03048706px;font-family:sans-serif;-inkscape-font-specification:'sans-serif Bold';fill:#00aadd;fill-opacity:1">X</flowPara></flowRoot>    <path
       style="fill:#000000;fill-opacity:1;stroke:#000000;stroke-width:4.7794714;stroke-miterlimit:4;stroke-dasharray:none;stroke-opacity:1"
       d="m 845.83413,509.13624 -54.1324,101.01171 159.3848,0 54.13237,-101.01171 -159.38477,0 z m 54.88761,16.76172 75.46878,0 -25.28596,46.53711 -42.5176,0 13.71074,-25.23438 -32.9492,0 11.57324,-21.30273 z m -54.3438,21.35742 75.4688,0 -25.28598,46.5371 -75.4668,0 25.28398,-46.5371 z"
       id="rect3336-2"
       inkscape:connector-curvature="0"
       inkscape:export-xdpi="47.585976"
       inkscape:export-ydpi="47.585976" />
    <rect
       id="rect3336-2-7"
       width="159.38515"
       height="114.60184"
       x="1701.0962"
       y="920.59668"
       ry="0"
       transform="matrix(1,0,-0.47234749,0.88141242,0,0)"
       style="fill:#000000;fill-opacity:0;stroke:#000000;stroke-width:10.65149117;stroke-miterlimit:4;stroke-dasharray:none;stroke-opacity:1" />
    <path
       style="fill:#000000;fill-opacity:1;stroke:#000000;stroke-width:5;stroke-miterlimit:4;stroke-dasharray:none;stroke-opacity:0"
       d="m 1301.584,828.1834 0.7258,21.3027 32.9512,0 0.8589,25.2364 42.5157,0 -1.5829,-46.5391 -75.4687,0 z"
       id="rect3336-2-2-0"
       inkscape:connector-curvature="0" />
    <rect
       id="rect3336-2-2-4-6-6"
       width="75.467888"
       height="46.565556"
       x="1230.9058"
       y="850.06091"
       ry="0"
       transform="matrix(1,0,0.03400669,0.99942161,0,0)"
       style="fill:#000000;fill-opacity:1;stroke:#000000;stroke-width:5.00144672;stroke-miterlimit:4;stroke-dasharray:none;stroke-opacity:0" />
    <rect
       id="rect3336-2-5"
       width="159.38515"
       height="114.60184"
       x="1413.6277"
       y="942.84418"
       ry="0"
       transform="matrix(1,0,-0.47234749,0.88141242,0,0)"
       style="fill:#000000;fill-opacity:1;stroke:#000000;stroke-width:5.09084988;stroke-miterlimit:4;stroke-dasharray:none;stroke-opacity:1" />
    <path
       inkscape:connector-curvature="0"
       style="fill:#000000;fill-opacity:1;stroke:#8080ff;stroke-width:4.7794714;stroke-miterlimit:4;stroke-dasharray:none;stroke-opacity:1"
       d="m 1023.1656,847.79601 -11.5733,21.30272 32.9492,0 -13.7108,25.23438 42.5176,0 25.286,-46.5371 -75.4687,0 z"
       id="rect3336-2-2-6" />
    <rect
       id="rect3336-2-2-4-6-6-6-5"
       width="75.467888"
       height="52.964161"
       x="1441.0538"
       y="989.15552"
       ry="0"
       transform="matrix(1,0,-0.47740861,0.87868141,0,0)"
       style="fill:#000000;fill-opacity:1;stroke:#8080ff;stroke-width:5.33401585;stroke-miterlimit:4;stroke-dasharray:none;stroke-opacity:1" />
    <rect
       id="rect3336-2-9"
       width="159.38515"
       height="114.60184"
       x="1641.3553"
       y="1071.1871"
       ry="0"
       transform="matrix(1,0,-0.47234749,0.88141242,0,0)"
       style="fill:#000000;fill-opacity:1;stroke:#000000;stroke-width:5.09084988;stroke-miterlimit:4;stroke-dasharray:none;stroke-opacity:1" />
    <path
       inkscape:connector-curvature="0"
       id="rect3336-2-2-4-6-6-6-6"
       style="fill:#000000;fill-opacity:1;stroke:#8000ff;stroke-width:5;stroke-miterlimit:4;stroke-dasharray:none;stroke-opacity:1"
       d="m 1135.9277,982.27556 75.4679,0 -25.2855,46.53864 -75.4679,0 z m 54.3431,-21.35654 -11.5733,21.30274 32.9492,0 -13.7107,25.23434 42.5175,0 25.2858,-46.53708 -75.4688,0 z" />
    <rect
       id="rect3336-2-58"
       width="159.38515"
       height="114.60184"
       x="713.44019"
       y="763.14075"
       ry="0"
       transform="matrix(1,0,-0.47234749,0.88141242,0,0)"
       style="fill:#000000;fill-opacity:1;stroke:#000000;stroke-width:5.09084988;stroke-miterlimit:4;stroke-dasharray:none;stroke-opacity:1"
       inkscape:export-xdpi="49.429188"
       inkscape:export-ydpi="49.429188" />
    <path
       inkscape:connector-curvature="0"
       id="rect3336-2-2-4-6-6-6-62"
       style="fill:#00ffff;fill-opacity:1;stroke:#000000;stroke-width:10;stroke-miterlimit:4;stroke-dasharray:none;stroke-opacity:1"
       d="m 346.248,710.75969 75.4679,0 1.58355,46.53864 -75.4679,0 z m 42.01288,-21.35654 0.72585,21.30274 32.94922,0 0.85832,25.23434 42.51758,0 -1.58248,-46.53708 -75.46876,0 z"
       inkscape:export-xdpi="49.429188"
       inkscape:export-ydpi="49.429188" />
    <rect
       id="rect3336-2-58-1"
       width="159.38515"
       height="114.60184"
       x="1912.2935"
       y="1237.821"
       ry="0"
       transform="matrix(1,0,-0.47234749,0.88141242,0,0)"
       style="fill:#000000;fill-opacity:0;stroke:#000000;stroke-width:5.09084988;stroke-miterlimit:4;stroke-dasharray:none;stroke-opacity:1" />
    <path
       inkscape:connector-curvature="0"
       id="rect3336-2-2-4-6-6-6-62-4"
       style="fill:#00ffff;fill-opacity:1;stroke:#000000;stroke-width:5;stroke-miterlimit:4;stroke-dasharray:none;stroke-opacity:1"
       d="m 1320.8876,1129.1487 75.4679,0 1.5835,46.5386 -75.4679,0 z m 42.0129,-21.3566 0.7258,21.3028 32.9492,0 0.8583,25.2343 42.5176,0 -1.5824,-46.5371 -75.4688,0 z" />
    <rect
       id="rect3336-2-5-7"
       width="159.38515"
       height="114.60184"
       x="374.56998"
       y="5.066205"
       ry="0"
       transform="matrix(1,0,-0.47234749,0.88141242,0,0)"
       style="fill:#000000;fill-opacity:0;stroke:#00aadd;stroke-width:10.65149117;stroke-miterlimit:4;stroke-dasharray:none;stroke-opacity:1"
       inkscape:export-xdpi="47.432606"
       inkscape:export-ydpi="47.432606" />
    <path
       style="fill:#00aadd;fill-opacity:1;stroke:#8080ff;stroke-width:4.0059638;stroke-miterlimit:4;stroke-dasharray:none;stroke-opacity:0"
       d="m 413.02105,25.649654 -0.13184,17.855115 27.6168,0 -0.15735,21.15046 35.6366,0 0.29067,-39.005575 -63.25488,0 z"
       id="rect3336-2-2-6-8"
       inkscape:connector-curvature="0"
       inkscape:export-xdpi="47.432606"
       inkscape:export-ydpi="47.432606" />
    <rect
       id="rect3336-2-2-4-6-6-6-5-3"
       width="60.690571"
       height="37.426956"
       x="375.45825"
       y="47.407959"
       ry="0"
       transform="matrix(1,0,-0.00742531,0.99997243,0,0)"
       style="fill:#00aadd;fill-opacity:1;stroke:#000000;stroke-width:4.02100801;stroke-miterlimit:4;stroke-dasharray:none;stroke-opacity:0"
       inkscape:export-xdpi="47.432606"
       inkscape:export-ydpi="47.432606" />
    <path
       style="fill:#000000;fill-opacity:1;stroke:#000000;stroke-width:5;stroke-miterlimit:4;stroke-dasharray:none;stroke-opacity:1"
       d="m 1153.4351,600.5024 -54.1324,101.01172 159.3867,0 54.1305,-101.01172 -159.3848,0 z m 30.9788,18.23633 16.8867,0 8.3224,20.20508 19.1073,-20.20508 16.9727,0 -29.1479,30.70703 13.1833,32.00781 -16.8457,0 -8.9202,-21.42187 -20.2751,21.42187 -16.9277,0 30.3362,-32.00781 -12.692,-30.70703 z"
       id="rect3336-6-8"
       inkscape:connector-curvature="0" />
    <path
       style="fill:#000000;fill-opacity:1;stroke:#000000;stroke-width:4.77899981;stroke-miterlimit:4;stroke-dasharray:none;stroke-opacity:0"
       d="m 1230.5186,67.4043 -54.1304,101.01172 158.6035,0 -0.02,0.0762 28.8496,0 27.0775,-101.05469 -1.0117,0 0.019,-0.0332 -159.3867,0 z m 38.7873,18.95117 16.8867,0 8.3224,20.20508 19.1093,-20.20508 16.9707,0 -29.1479,30.70703 13.1828,32.00977 -16.8438,0 -8.9216,-21.42383 -20.2737,21.42383 -16.9297,0 30.3368,-32.00977 -12.692,-30.70703 z"
       id="rect3336-6-3-41"
       inkscape:connector-curvature="0"
       inkscape:export-xdpi="47.585976"
       inkscape:export-ydpi="47.585976" />
    <path
       style="fill:#000000;fill-opacity:0;stroke:#000000;stroke-width:4.77947092;stroke-miterlimit:4;stroke-dasharray:none;stroke-opacity:0"
       d="m 1326.3521,597.39469 -27.0644,6.21541 158.6035,0 0,0.005 28.8496,0 0,-6.21806 -1.0117,0 0.01,-0.002 -159.3867,0 z m 43.8653,1.16609 16.8867,0 13.7363,1.24325 13.6953,-1.24325 16.9707,0 -20.9199,1.88946 21.7598,1.96961 -16.8438,0 -14.6621,-1.31824 -14.5332,1.31824 -16.9297,0 21.7598,-1.96961 -20.9199,-1.88946 z"
       id="rect3336-6-3-41-6-0"
       inkscape:connector-curvature="0"
       inkscape:export-xdpi="47.585976"
       inkscape:export-ydpi="47.585976" />
    <path
       style="fill:#000000;fill-opacity:0;stroke:#000000;stroke-width:4.77947092;stroke-miterlimit:4;stroke-dasharray:none;stroke-opacity:0"
       d="m 403.69618,263.83621 -27.06445,6.21541 158.60351,0 0,0.005 28.84961,0 0,-6.21806 -1.01172,0 0.01,-0.002 -159.38672,0 z m 43.86524,1.16609 16.88671,0 13.73633,1.24325 13.69532,-1.24325 16.9707,0 -20.91992,1.88946 21.75976,1.96961 -16.84375,0 -14.66211,-1.31825 -14.5332,1.31825 -16.92969,0 21.75977,-1.96961 -20.91992,-1.88946 z"
       id="rect3336-6-3-41-6-0-8"
       inkscape:connector-curvature="0"
       inkscape:export-xdpi="47.585976"
       inkscape:export-ydpi="47.585976" />
    <path
       style="fill:#000000;fill-opacity:0;stroke:#000000;stroke-width:4.77947092;stroke-miterlimit:4;stroke-dasharray:none;stroke-opacity:0"
       d="m 555.41047,276.47906 -27.06445,6.21541 158.6035,0 0,0.005 28.84961,0 0,-6.21806 -1.01172,0 0.01,-0.002 -159.38671,0 z m 43.86524,1.16609 16.88671,0 13.73632,1.24325 13.69532,-1.24325 16.9707,0 -20.91992,1.88946 21.75976,1.96961 -16.84375,0 -14.66211,-1.31825 -14.53319,1.31825 -16.92969,0 21.75977,-1.96961 -20.91992,-1.88946 z"
       id="rect3336-6-3-41-6-0-3"
       inkscape:connector-curvature="0"
       inkscape:export-xdpi="47.585976"
       inkscape:export-ydpi="47.585976" />
    <path
       style="fill:#000000;fill-opacity:0;stroke:#000000;stroke-width:4.77947092;stroke-miterlimit:4;stroke-dasharray:none;stroke-opacity:0"
       d="m 530.98698,139.39469 -20.06843,6.21541 117.60527,0 0,0.005 21.39213,0 0,-6.21806 -0.7502,0 0.007,-0.002 -118.18602,0 z m 32.52629,1.16609 12.52158,0 10.18554,1.24325 10.15514,-1.24325 12.58386,0 -15.51222,1.88946 16.13497,1.96961 -12.48973,0 -10.87202,-1.31825 -10.77643,1.31825 -12.55344,0 16.13497,-1.96961 -15.51222,-1.88946 z"
       id="rect3336-6-3-41-6-0-1-6"
       inkscape:connector-curvature="0"
       inkscape:export-xdpi="47.585976"
       inkscape:export-ydpi="47.585976" />
    <rect
       id="rect3336-2-5-7-9"
       width="159.38515"
       height="114.60184"
       x="129.93274"
       y="5.5146174"
       ry="0"
       transform="matrix(1,0,-0.47234749,0.88141242,0,0)"
       style="fill:#000000;fill-opacity:0;stroke:#000000;stroke-width:10.65149117;stroke-miterlimit:4;stroke-dasharray:none;stroke-opacity:0.17747444"
       inkscape:export-xdpi="47.585976"
       inkscape:export-ydpi="47.585976" />
    <path
       style="fill:#000000;fill-opacity:0.17647059;stroke:#86c8d8;stroke-width:4.0059638;stroke-miterlimit:4;stroke-dasharray:none;stroke-opacity:0.25"
       d="m 166.17198,26.044892 -0.13183,17.855115 27.6168,0 -0.15735,21.150459 35.6366,0 0.29066,-39.005574 -63.25488,0 z"
       id="rect3336-2-2-6-8-9"
       inkscape:connector-curvature="0"
       inkscape:export-xdpi="47.585976"
       inkscape:export-ydpi="47.585976" />
    <rect
       id="rect3336-2-2-4-6-6-6-5-3-2"
       width="60.690571"
       height="37.426956"
       x="128.61214"
       y="47.803215"
       ry="0"
       transform="matrix(1,0,-0.00742531,0.99997243,0,0)"
       style="fill:#000000;fill-opacity:0.17647059;stroke:#86c8d8;stroke-width:4.02100801;stroke-miterlimit:4;stroke-dasharray:none;stroke-opacity:0.25"
       inkscape:export-xdpi="47.585976"
       inkscape:export-ydpi="47.585976" />
    <path
       style="fill:#000000;fill-opacity:0;stroke:#86c8d8;stroke-width:4.77947092;stroke-miterlimit:4;stroke-dasharray:none;stroke-opacity:0"
       d="m 106.84712,113.36451 -21.201415,6.21541 124.244835,0 0,0.005 22.59985,0 0,-6.21806 -0.79255,0 0.008,-0.002 -124.85837,0 z m 34.3626,1.16609 13.2285,0 10.76059,1.24325 10.72847,-1.24325 13.2943,0 -16.38799,1.88946 17.04589,1.96961 -13.19485,0 -11.48582,-1.31825 -11.38483,1.31825 -13.26217,0 17.0459,-1.96961 -16.38799,-1.88946 z"
       id="rect3336-6-3-41-6-0-1-1"
       inkscape:connector-curvature="0"
       inkscape:export-xdpi="47.585976"
       inkscape:export-ydpi="47.585976" />
    <path
       style="fill:#000000;fill-opacity:0;stroke:#000000;stroke-width:4.77947092;stroke-miterlimit:4;stroke-dasharray:none;stroke-opacity:0"
       d="m 1417.1023,263.46841 -27.0645,6.21541 158.6035,0 0,0.005 28.8496,0 0,-6.21806 -1.0117,0 0.01,-0.002 -159.3867,0 z m 43.8652,1.16609 16.8867,0 13.7364,1.24325 13.6953,-1.24325 16.9707,0 -20.9199,1.88946 21.7597,1.96961 -16.8437,0 -14.6621,-1.31825 -14.5332,1.31825 -16.9297,0 21.7597,-1.96961 -20.9199,-1.88946 z"
       id="rect3336-6-3-41-6-0-6"
       inkscape:connector-curvature="0"
       inkscape:export-xdpi="47.585976"
       inkscape:export-ydpi="47.585976" />
    <flowRoot
       xml:space="preserve"
       id="flowRoot5676-7-6"
       style="font-style:normal;font-weight:normal;font-size:86.03048706px;line-height:125%;font-family:sans-serif;letter-spacing:0px;word-spacing:0px;fill:#000000;fill-opacity:1;stroke:none;stroke-width:1;stroke-linecap:butt;stroke-linejoin:miter;stroke-miterlimit:0;stroke-dasharray:none;stroke-opacity:1"
       transform="translate(1236.633,273.6025)"
       inkscape:export-xdpi="47.585976"
       inkscape:export-ydpi="47.585976"><flowRegion
         id="flowRegion5678-0-8"
         style="stroke:url(#linearGradient6286)"><rect
           id="rect5680-0-1"
           width="138.60468"
           height="111.29341"
           x="96.330292"
           y="21.751743"
           style="font-size:86.03048706px;fill:#000000;fill-opacity:1;stroke:none;stroke-width:1;stroke-linejoin:miter;stroke-miterlimit:0;stroke-dasharray:none;stroke-opacity:1" /></flowRegion><flowPara
         id="flowPara5682-2-2"
         style="font-style:normal;font-variant:normal;font-weight:bold;font-stretch:normal;font-size:86.03048706px;font-family:sans-serif;-inkscape-font-specification:'sans-serif Bold';fill:#000000;fill-opacity:1;stroke:none;stroke-width:1;stroke-linejoin:miter;stroke-miterlimit:0;stroke-dasharray:none;stroke-opacity:1">X</flowPara></flowRoot>    <path
       style="fill:#000000;fill-opacity:1;stroke:#000000;stroke-width:0.60500002;stroke-linejoin:miter;stroke-miterlimit:2.29999995;stroke-dasharray:none;stroke-opacity:1"
       d="m 1384.554,247.52878 c 0.9844,-1.8259 11.9044,-22.19644 24.2669,-45.26786 l 22.4772,-41.94804 75.3331,-0.0901 75.3331,-0.0901 -5.4276,20.26868 c -2.9852,11.14778 -8.4527,31.55887 -12.1498,45.35798 l -6.7222,25.08928 -87.4502,0 -87.4501,0 1.7896,-3.31981 z m 97.5017,-21.3119 7.2651,-10.70315 4.4513,6.50672 c 2.4482,3.57869 5.7423,8.39511 7.3201,10.70314 l 2.8687,4.19643 8.5214,0 c 4.6868,0 8.5214,-0.0759 8.5214,-0.16863 0,-0.0927 -4.8893,-7.35431 -10.865,-16.13683 l -10.8651,-15.96821 0.9848,-1.45245 c 0.5417,-0.79885 5.1098,-7.50703 10.1514,-14.90708 5.0416,-7.40004 9.2639,-13.70807 9.3827,-14.01785 0.1931,-0.50321 -0.694,-0.56324 -8.3235,-0.56324 l -8.5396,0 -6.7498,10.00389 c -5.2604,7.79653 -6.8412,9.90453 -7.1642,9.55358 -0.2279,-0.24768 -3.1885,-4.54854 -6.5791,-9.55747 -3.3906,-5.00893 -6.3542,-9.31102 -6.5859,-9.5602 -0.3225,-0.34683 -2.4093,-0.43057 -8.9006,-0.35714 l -8.4793,0.0959 10.4077,15.27896 c 5.7242,8.40342 10.3318,15.47485 10.2391,15.71428 -0.093,0.23944 -4.8672,7.34605 -10.61,15.79248 -5.7427,8.44643 -10.5208,15.55804 -10.6178,15.80357 -0.1383,0.34962 1.6752,0.44643 8.3622,0.44643 l 8.5388,0 7.2652,-10.70314 z"
       id="path4636"
       inkscape:connector-curvature="0" />
    <path
       style="fill:#000000;fill-opacity:0;stroke:#000000;stroke-width:4.77947092;stroke-miterlimit:4;stroke-dasharray:none;stroke-opacity:0"
       d="m 334.05333,778.31835 -27.06445,6.21541 158.60349,0 0,0.005 28.84961,0 0,-6.21806 -1.01172,0 0.01,-0.002 -159.3867,0 z m 43.86524,1.16609 16.88671,0 13.73631,1.24325 13.69532,-1.24325 16.9707,0 -20.91992,1.88946 21.75976,1.96961 -16.84375,0 -14.66211,-1.31825 -14.53318,1.31825 -16.92969,0 21.75977,-1.96961 -20.91992,-1.88946 z"
       id="rect3336-6-3-41-6-0-3-1"
       inkscape:connector-curvature="0"
       inkscape:export-xdpi="49.429188"
       inkscape:export-ydpi="49.429188" />
    <path
       style="fill:none;fill-rule:evenodd;stroke:#000000;stroke-width:1px;stroke-linecap:butt;stroke-linejoin:miter;stroke-opacity:1"
       d="m 1394.962,222.30809 c 0,2.90185 0.3765,1.77246 -0.5051,3.53554 -0.1683,0.33671 -0.4137,0.64493 -0.5051,1.01015 -0.082,0.32666 0.066,0.67997 0,1.01015 -0.335,1.67513 -0.4714,1.17851 -1.0101,2.52538 -0.1977,0.49432 -0.267,1.03904 -0.5051,1.51523 -0.2715,0.54294 -0.7847,0.95162 -1.0101,1.51523 -0.1251,0.31263 0.125,0.69752 0,1.01015 -0.2255,0.56361 -0.6979,0.99471 -1.0102,1.51523 -0.1937,0.32281 -0.3367,0.67344 -0.5051,1.01015 -0.1683,0.33672 -0.4137,0.64494 -0.505,1.01016 -0.082,0.32666 0.1064,0.69071 0,1.01015 -0.075,0.22588 -0.3986,0.29212 -0.5051,0.50508 -0.1506,0.30116 0.1506,0.70898 0,1.01015 -0.1065,0.21296 -0.3986,0.29212 -0.5051,0.50507 -0.137,0.274 0.1382,1.88211 0,2.02031 -0.119,0.11905 -0.386,-0.11905 -0.5051,0 -0.2381,0.23809 0.2381,0.77206 0,1.01015 -0.119,0.11905 -0.386,-0.11905 -0.505,0 -0.1191,0.11905 0.075,0.35449 0,0.50508 -0.1065,0.21296 -0.3986,0.29212 -0.5051,0.50507 -0.075,0.15059 0.119,0.38603 0,0.50508 -0.1191,0.11905 -0.3861,-0.11905 -0.5051,0 -0.119,0.11905 0,0.33672 0,0.50508 0,0.16836 0,0.33671 0,0.50507"
       id="path3437"
       inkscape:connector-curvature="0" />
    <path
       style="fill:none;fill-rule:evenodd;stroke:#000000;stroke-width:5.9000001;stroke-linecap:butt;stroke-linejoin:miter;stroke-miterlimit:4;stroke-dasharray:none;stroke-opacity:1"
       d="m 1430.7143,159.95149 c 4.7619,0 9.5238,0 14.2857,0 0.8333,0 1.6667,0 2.5,0 0.1191,0 0.2381,0 0.3571,0 0.1191,0 0.2507,0.0532 0.3572,0 0.1506,-0.0753 0.2065,-0.28185 0.3571,-0.35714 0.094,-0.047 1.2418,0 1.4286,0 1.3095,0 2.6191,0 3.9286,0 1.3095,0 2.619,0 3.9285,0 0.2381,0 0.4762,0 0.7143,0 0.2381,0 0.4833,-0.0577 0.7143,0 0.2583,0.0646 0.4561,0.29258 0.7143,0.35714 0.231,0.0577 0.4762,0 0.7143,0 0.2381,0 0.4762,0 0.7143,0 0.8333,0 1.6666,0 2.5,0 2.5,0 5,0 7.5,0 0.7143,0 1.4285,0 2.1428,0 0.2381,0 0.4808,-0.0467 0.7143,0 0.3692,0.0738 0.7023,0.28331 1.0714,0.35714 0.2335,0.0467 0.4762,0 0.7143,0 0.3572,0 0.7143,0 1.0715,0 0.8333,0 1.6666,0 2.5,0 3.4523,0 6.9047,0 10.3571,0 6.0714,0 12.1429,0 18.2143,0 2.7381,0 5.4762,0 8.2143,0 0.8333,0 1.6666,0 2.5,0 0.2381,0 0.4762,0 0.7143,0 0.119,0 0.2416,0.0289 0.3571,0 0.3652,-0.0913 0.7062,-0.26584 1.0714,-0.35714 0.2637,-0.0659 1.531,0 1.7857,0 0.1191,0 0.2507,0.0532 0.3572,0 0.1506,-0.0753 0.1974,-0.3039 0.3571,-0.35714 0.4518,-0.15059 0.9666,0.11549 1.4286,0 0.2583,-0.0646 0.4533,-0.30494 0.7143,-0.35715 0.6546,-0.13092 1.8414,0.13173 2.5,0 0.3691,-0.0738 0.7001,-0.29525 1.0714,-0.35714 0.3523,-0.0587 0.7143,0 1.0714,0 0.8334,0 1.6667,0 2.5,0 0.9524,0 1.9048,0 2.8572,0 0.2381,0 0.4833,0.0577 0.7143,0 0.2582,-0.0646 0.456,-0.29258 0.7143,-0.35714 0.2309,-0.0577 0.4762,0 0.7142,0 0.2991,0 1.5142,0.0679 1.7858,0 0.2582,-0.0646 0.4617,-0.27297 0.7142,-0.35715 0.113,-0.0376 0.2381,0 0.3572,0 0.1993,0 1.6222,0.0545 1.7857,0 0.1597,-0.0532 0.2066,-0.28185 0.3571,-0.35714 0.08,-0.04 1.3438,0 1.4286,0 0.9524,0 1.9048,0 2.8572,0 1.3095,0 2.619,0 3.9285,0 0.3192,0 1.6719,-0.0569 1.7857,0 0.1506,0.0753 0.2066,0.28185 0.3572,0.35714 0.1065,0.0532 0.2381,0 0.3571,0 0.2381,0 0.4833,-0.0577 0.7143,0 0.2583,0.0646 0.4561,0.29259 0.7143,0.35715 0.2904,0.0726 1.769,0 2.1429,0 0.119,0 0.2381,0 0.3571,0 0.1191,0 0.2507,-0.0532 0.3571,0 0.1506,0.0753 0.2066,0.28185 0.3572,0.35714 0.2253,0.11266 1.5604,-0.11265 1.7857,0 0.1506,0.0753 0.2066,0.28185 0.3571,0.35714 0.106,0.053 1.7975,0 2.1429,0 0.087,0 1.0599,-0.0115 1.0714,0 0.084,0.0842 -0.084,0.27297 0,0.35715 0.012,0.0115 0.9848,0 1.0715,0 0.7142,0 1.4285,0 2.1428,0 0.085,0 1.3485,-0.04 1.4286,0 0.1506,0.0753 0.2065,0.28185 0.3571,0.35714 0.1065,0.0532 0.2381,0 0.3572,0 0.119,0 0.2381,0 0.3571,0 0.7143,0 1.4286,0 2.1429,0 0.7143,0 1.4285,0 2.1428,0 0.085,0 1.3486,0.04 1.4286,0 0.1506,-0.0753 0.1974,-0.3039 0.3571,-0.35714 0.243,-0.081 1.5964,0.0947 1.7858,0 0.1505,-0.0753 0.2065,-0.28185 0.3571,-0.35715 0.1065,-0.0532 0.2381,0 0.3571,0 0.2532,0 2.0506,0.0462 2.1429,0 0.1506,-0.0753 0.2066,-0.28185 0.3571,-0.35714 0.094,-0.047 1.2419,0 1.4286,0 0.1191,0 0.2381,0 0.3572,0 0.119,0 0.3571,-0.11905 0.3571,0 0,0.11905 -0.3571,0.11905 -0.3571,0 0,-0.13947 0.5008,-0.57058 0.7142,-0.35714 0.05,0.0504 0.037,0.99817 0,1.07143 -0.075,0.15058 -0.2818,0.20655 -0.3571,0.35714 -0.053,0.10648 0.084,0.27296 0,0.35714 -0.084,0.0842 -0.273,-0.0842 -0.3571,0 -0.1106,0.11059 0.1106,1.67513 0,1.78572 -0.084,0.0842 -0.273,-0.0842 -0.3572,0 -0.011,0.0115 0,0.98481 0,1.07142 0,0.95239 0.1191,-0.11904 -0.3571,0.35715 -0.084,0.0842 0,0.23809 0,0.35714 0,0.33637 0.068,1.58255 0,1.78571 -0.053,0.15972 -0.2819,0.20656 -0.3572,0.35715 -0.053,0.10648 0,0.23809 0,0.35714 0,0.11905 0,0.2381 0,0.35714 0,0.19935 0.054,1.62223 0,1.78572 -0.053,0.15972 -0.2818,0.20656 -0.3571,0.35714 -0.1127,0.22531 0.1126,1.5604 0,1.78571 -0.075,0.15059 -0.2819,0.20656 -0.3572,0.35715 -0.053,0.10648 0,0.23809 0,0.35714 0,0.11905 0,0.2381 0,0.35714 0,0.59524 0,1.19048 0,1.78572 0,0.11905 0.053,0.25066 0,0.35714 -0.075,0.15059 -0.2818,0.20656 -0.3571,0.35714 -0.053,0.10648 0,0.2381 0,0.35715 0,0.23809 0.075,0.48841 0,0.71428 -0.053,0.15972 -0.3039,0.19743 -0.3571,0.35714 -0.113,0.33882 0,0.71429 0,1.07143 0,0.71429 0,1.42857 0,2.14286 0,0.11905 0,0.2381 0,0.35714 0,0.11905 0.053,0.25067 0,0.35715 -0.075,0.15058 -0.2819,0.20655 -0.3572,0.35714 -0.1428,0.28571 0.1429,0.78571 0,1.07143 -0.075,0.15058 -0.2818,0.20656 -0.3571,0.35714 -0.071,0.1416 0.073,0.99842 0,1.07143 -0.084,0.0842 -0.273,-0.0842 -0.3572,0 -0.1253,0.12536 0.1234,1.53902 0,1.78571 -0.075,0.15059 -0.2818,0.20656 -0.3571,0.35715 -0.053,0.10648 0.053,0.25066 0,0.35714 -0.075,0.15058 -0.2819,0.20656 -0.3572,0.35714 -0.053,0.10648 0.053,0.25067 0,0.35715 -0.075,0.15058 -0.2818,0.20655 -0.3571,0.35714 -0.1429,0.28571 0.1429,0.78571 0,1.07143 -0.075,0.15058 -0.2818,0.20655 -0.3571,0.35714 -0.053,0.10648 0.084,0.27296 0,0.35714 -0.084,0.0842 -0.273,-0.0842 -0.3572,0 -0.1683,0.16836 0.1065,0.50133 0,0.71429 -0.075,0.15058 -0.2818,0.20656 -0.3571,0.35714 -0.071,0.1416 0.073,0.99842 0,1.07143 -0.084,0.0842 -0.2381,0 -0.3572,0 -0.119,0.23809 -0.2729,0.46175 -0.3571,0.71429 -0.075,0.22587 0.1684,0.54592 0,0.71428 -0.084,0.0842 -0.273,-0.0842 -0.3572,0 -0.084,0.0842 0,0.2381 0,0.35714 -0.119,0.2381 -0.1689,0.52606 -0.3571,0.71429 -0.084,0.0842 -0.3039,-0.10648 -0.3571,0 -0.1156,0.23105 0.1283,1.30028 0,1.42857 -0.084,0.0842 -0.273,-0.0842 -0.3572,0 -0.1683,0.16836 0.1065,0.50133 0,0.71429 -0.075,0.15058 -0.2818,0.20655 -0.3571,0.35714 -0.1065,0.21296 0.1065,0.50133 0,0.71429 -0.075,0.15058 -0.2819,0.20655 -0.3572,0.35714 -0.053,0.10648 0.084,0.27296 0,0.35714 -0.084,0.0842 -0.3039,-0.10648 -0.3571,0 -0.1065,0.21296 0.075,0.48841 0,0.71429 -0.053,0.15972 -0.2819,0.20655 -0.3572,0.35714 -0.053,0.10648 0.053,0.25066 0,0.35714 -0.075,0.15059 -0.2818,0.20656 -0.3571,0.35715 -0.1429,0.28571 0.1429,0.78571 0,1.07142 -0.075,0.15059 -0.2818,0.20656 -0.3571,0.35715 -0.071,0.1416 0.073,0.99841 0,1.07143 -0.084,0.0842 -0.273,-0.0842 -0.3572,0 -0.084,0.0842 0,0.23809 0,0.35714 0,0.16839 0.016,1.76953 0,1.78571 -0.084,0.0842 -0.2729,-0.0842 -0.3571,0 -0.1684,0.16836 0.1065,0.50133 0,0.71429 -0.075,0.15058 -0.3039,0.19742 -0.3572,0.35714 -0.1488,0.44661 0.1489,2.05339 0,2.5 -0.053,0.15972 -0.3039,0.19742 -0.3571,0.35714 -0.1129,0.33882 0.1129,0.73262 0,1.07143 -0.084,0.25254 -0.273,0.46175 -0.3572,0.71429 -0.038,0.11294 0.084,0.27296 0,0.35714 -0.084,0.0842 -0.3039,-0.10648 -0.3571,0 -0.1065,0.21296 0.075,0.48841 0,0.71429 -0.053,0.15972 -0.3039,0.19742 -0.3571,0.35714 -0.075,0.22588 0,0.47619 0,0.71429 0,0.11904 0.053,0.25066 0,0.35714 -0.075,0.15058 -0.2819,0.20656 -0.3572,0.35714 -0.053,0.10648 0.053,0.25066 0,0.35714 -0.075,0.15059 -0.2818,0.20656 -0.3571,0.35715 -0.1429,0.28571 0.1428,0.78571 0,1.07143 -0.075,0.15058 -0.2819,0.20655 -0.3572,0.35714 -0.071,0.1416 0.073,0.99841 0,1.07143 -0.084,0.0842 -0.3039,-0.10648 -0.3571,0 -0.1065,0.21296 0.075,0.48841 0,0.71428 -0.053,0.15972 -0.2819,0.20656 -0.3572,0.35715 -0.1428,0.28571 0.1429,0.78571 0,1.07142 -0.075,0.15059 -0.238,0.2381 -0.3571,0.35715 0,0.23809 0.075,0.48841 0,0.71428 -0.1065,0.31944 -0.5637,0.41312 -0.7143,0.71429 -0.053,0.10648 0.038,0.2442 0,0.35714 -0.084,0.25254 -0.2729,0.46175 -0.3571,0.71429 -0.038,0.11293 0.053,0.25066 0,0.35714 -0.075,0.15058 -0.3039,0.19742 -0.3572,0.35714 -0.075,0.22588 0.075,0.48841 0,0.71429 -0.1064,0.31944 -0.6078,0.39485 -0.7143,0.71428 0,1.62582 0.1684,0.0204 -0.3571,1.07143 -0.1065,0.21296 0.1684,0.54593 0,0.71429 -0.084,0.0842 -0.3039,-0.10648 -0.3571,0 -0.1096,0.21919 0.1107,1.56432 0,1.78571 -0.075,0.15059 -0.3039,0.19743 -0.3572,0.35715 -0.1129,0.33881 0.113,0.73261 0,1.07142 -0.084,0.25254 -0.2729,0.46175 -0.3571,0.71429 -0.075,0.22588 0.1065,0.50133 0,0.71429 -0.075,0.15058 -0.3039,0.19742 -0.3572,0.35714 -0.063,0.19009 0,2.55061 0,2.85714 0,0.2381 0.075,0.48841 0,0.71429 -0.053,0.15972 -0.2818,0.20655 -0.3571,0.35714 -0.1133,0.22654 0.116,1.55371 0,1.78571 -0.075,0.15059 -0.2819,0.20656 -0.3572,0.35715 -0.053,0.10648 0,0.23809 0,0.35714 0,0.42186 0.071,1.93048 0,2.14286 -0.053,0.15972 -0.2818,0.20655 -0.3571,0.35714 -0.053,0.10648 0,0.23809 0,0.35714 0,0.59524 0,1.19048 0,1.78572 0,0.23809 0.075,0.48841 0,0.71428 -0.084,0.25254 -0.273,0.46175 -0.3571,0.71429 -0.038,0.11294 0.084,0.27296 0,0.35714 -0.084,0.0842 -0.273,-0.0842 -0.3572,0 -0.086,0.0859 0.086,1.34263 0,1.42857 -0.084,0.0842 -0.2729,-0.0842 -0.3571,0 -0.098,0.0977 0.097,1.23483 0,1.42857 -0.075,0.15059 -0.2819,0.20656 -0.3572,0.35715 -0.053,0.10648 0.053,0.25066 0,0.35714 -0.075,0.15058 -0.2818,0.20656 -0.3571,0.35714 -0.071,0.14161 0.073,0.99842 0,1.07143 -0.084,0.0842 -0.273,-0.0842 -0.3572,0 -0.086,0.0859 0.086,1.34263 0,1.42857 -0.084,0.0842 -0.2729,-0.0842 -0.3571,0 -0.1786,0.17857 0.1786,0.89286 0,1.07143 -0.084,0.0842 -0.273,-0.0842 -0.3571,0 -0.086,0.0859 0.086,1.34263 0,1.42857 -0.084,0.0842 -0.273,-0.0842 -0.3572,0 -0.084,0.0842 0.084,0.27297 0,0.35715 -0.084,0.0842 -0.2381,0 -0.3571,0 -0.2484,0 -1.6566,0.0646 -1.7857,0 -0.1506,-0.0753 -0.2066,-0.28186 -0.3572,-0.35715 -0.094,-0.0469 -1.2418,0 -1.4286,0 -0.2748,0 -1.6676,-0.0591 -1.7857,0 -0.1064,0.0532 0.1065,0.30391 0,0.35715 -0.2129,0.10647 -0.4762,0 -0.7143,0 -0.119,0 -0.2729,-0.0842 -0.3571,0 -0.084,0.0842 0.1065,0.3039 0,0.35714 -0.3194,0.15972 -0.752,-0.15972 -1.0714,0 -0.1506,0.0753 -0.2066,0.28185 -0.3572,0.35714 -0.232,0.11601 -1.5591,-0.11327 -1.7857,0 -0.1506,0.0753 -0.2065,0.28185 -0.3571,0.35714 -0.094,0.047 -1.2418,0 -1.4286,0 -0.9524,0 -1.9048,0 -2.8571,0 -0.087,0 -1.06,0.0115 -1.0715,0 -0.084,-0.0842 0.084,-0.27296 0,-0.35714 -0.084,-0.0842 -0.2381,0 -0.3571,0 -0.1191,0 -0.2381,0 -0.3572,0 -0.7142,0 -1.4285,0 -2.1428,0 -0.1191,0 -0.273,0.0842 -0.3572,0 -0.084,-0.0842 0.084,-0.27296 0,-0.35714 -0.084,-0.0842 -0.238,0 -0.3571,0 -0.119,0 -0.2381,0 -0.3571,0 -1.7858,0 -3.5715,0 -5.3572,0 -1.3095,0 -2.619,0 -3.9286,0 -0.119,0 -0.238,0 -0.3571,0 -0.119,0 -0.273,-0.0842 -0.3571,0 -0.084,0.0842 0.084,0.27296 0,0.35714 -0.084,0.0842 -0.2381,0 -0.3572,0 -1.0714,0 -2.1428,0 -3.2143,0 -1.0714,0 -2.1428,0 -3.2143,0 -0.1867,0 -1.3346,-0.047 -1.4285,0 -0.1506,0.0753 -0.1974,0.3039 -0.3572,0.35714 -0.2258,0.0753 -0.5013,-0.10648 -0.7143,0 -0.1064,0.0532 0.084,0.27297 0,0.35715 -0.084,0.0842 -0.238,0 -0.3571,0 -0.119,0 -0.2381,0 -0.3571,0 -0.5953,0 -1.1905,0 -1.7858,0 -0.119,0 -0.238,0 -0.3571,0 -0.119,0 -0.2507,-0.0532 -0.3571,0 -0.1506,0.0753 -0.1975,0.3039 -0.3572,0.35714 -0.432,0.14402 -1.6564,-0.12162 -2.1428,0 -0.2583,0.0646 -0.4618,0.27296 -0.7143,0.35714 -0.113,0.0376 -0.2381,0 -0.3572,0 -0.2924,0 -1.5543,-0.0771 -1.7857,0 -0.2525,0.0842 -0.4532,0.30494 -0.7143,0.35715 -0.3579,0.0716 -1.6778,0 -2.1428,0 -1.6667,0 -3.3334,0 -5,0 -4.2857,0 -8.5715,0 -12.8572,0 -5.2381,0 -10.4762,0 -15.7143,0 -1.7857,0 -3.5714,0 -5.3571,0 -0.3714,0 -1.8619,0.0702 -2.1429,0 -0.2582,-0.0646 -0.456,-0.29259 -0.7142,-0.35715 -0.5603,-0.14005 -1.2255,0.14006 -1.7858,0 -0.2582,-0.0646 -0.4617,-0.27296 -0.7142,-0.35714 -0.113,-0.0376 -0.2381,0 -0.3572,0 -0.3714,0 -1.8619,0.0702 -2.1428,0 -0.2583,-0.0646 -0.4561,-0.29258 -0.7143,-0.35714 -0.231,-0.0577 -0.4808,0.0467 -0.7143,0 -0.3692,-0.0738 -0.7023,-0.28332 -1.0714,-0.35715 -0.2335,-0.0467 -0.4762,0 -0.7143,0 -0.3572,0 -0.7143,0 -1.0715,0 -0.3571,0 -0.7212,0.0701 -1.0714,0 -0.261,-0.0522 -0.456,-0.29258 -0.7143,-0.35714 -0.231,-0.0577 -0.4762,0 -0.7143,0 -0.238,0 -0.4761,0 -0.7142,0 -0.1191,0 -0.2442,0.0376 -0.3572,0 -0.2525,-0.0842 -0.456,-0.29258 -0.7143,-0.35714 -0.2809,-0.0702 -1.7714,0 -2.1428,0 -0.1191,0 -0.2442,0.0376 -0.3572,0 -0.2525,-0.0842 -0.4617,-0.27297 -0.7143,-0.35714 -0.1129,-0.0376 -0.238,0 -0.3571,0 -0.3714,0 -1.8619,0.0702 -2.1429,0 -0.2582,-0.0646 -0.456,-0.29259 -0.7142,-0.35715 -0.462,-0.11549 -0.9666,0.1155 -1.4286,0 -0.2583,-0.0646 -0.456,-0.29258 -0.7143,-0.35714 -0.231,-0.0577 -0.4762,0 -0.7143,0 -0.7143,0 -1.4286,0 -2.1428,0 -0.2381,0 -0.4833,0.0577 -0.7143,0 -0.2583,-0.0646 -0.4561,-0.29258 -0.7143,-0.35714 -0.462,-0.1155 -0.9666,0.11549 -1.4286,0 -0.2582,-0.0646 -0.456,-0.29258 -0.7143,-0.35715 -0.2809,-0.0702 -1.7714,0 -2.1428,0 -0.1191,0 -0.2417,0.0289 -0.3572,0 -0.3652,-0.0913 -0.7022,-0.28331 -1.0714,-0.35714 -0.5654,-0.11308 -1.6082,0.13366 -2.1429,0 -0.2582,-0.0646 -0.456,-0.29258 -0.7142,-0.35714 -0.231,-0.0577 -0.4762,0 -0.7143,0 -0.8334,0 -1.6667,0 -2.5,0 -2.5,0 -5,0 -7.5,0 -4.881,0 -9.7619,0 -14.6429,0 -1.5476,0 -3.0952,0 -4.6428,0 -0.2991,0 -1.5142,-0.0679 -1.7858,0 -0.2582,0.0646 -0.456,0.29258 -0.7142,0.35714 -0.231,0.0577 -0.4762,0 -0.7143,0 -0.3572,0 -0.7143,0 -1.0715,0 -0.238,0 -0.4833,-0.0577 -0.7142,0 -0.2583,0.0646 -0.4561,0.29258 -0.7143,0.35714 -0.6201,0.15503 -1.5228,-0.15502 -2.1429,0 -0.2582,0.0646 -0.4617,0.27297 -0.7143,0.35715 -0.3169,0.10564 -1.5518,-0.11693 -1.7857,0 -0.1506,0.0753 -0.2065,0.28185 -0.3571,0.35714 -0.2107,0.10536 -0.8258,-0.0819 -1.0715,0 -0.2525,0.0842 -0.4617,0.27296 -0.7142,0.35714 -0.2015,0.0672 -0.8368,0 -1.0715,0 -1.6258,0 -0.02,-0.16836 -1.0714,0.35715 -0.1065,0.0532 -0.2381,0 -0.3571,0 -0.1191,0 -0.2381,0 -0.3572,0 -0.2553,0 -1.96,-0.0609 -2.1428,0 -0.1598,0.0532 -0.2066,0.28185 -0.3572,0.35714 -0.1291,0.0646 -1.5373,0 -1.7857,0 -0.119,0 -0.273,-0.0842 -0.3571,0 -0.084,0.0842 0.084,0.27296 0,0.35714 -0.084,0.0842 -0.2381,0 -0.3572,0 -0.119,0 -0.2729,0.0842 -0.3571,0 -0.084,-0.0842 -0.084,-0.27296 0,-0.35714 0.084,-0.0842 0.2506,0.0532 0.3571,0 0.1506,-0.0753 0.2066,-0.28185 0.3572,-0.35714 0.1064,-0.0532 0.2729,0.0842 0.3571,0 0.084,-0.0842 -0.084,-0.27297 0,-0.35715 0.7389,-0.73894 -0.029,1.1292 0.7143,-0.35714 0.1065,-0.21296 -0.1684,-0.54593 0,-0.71429 0.7389,-0.73894 -0.029,1.1292 0.7143,-0.35714 0.1065,-0.21296 -0.075,-0.48841 0,-0.71428 0.2553,-0.766 0.8795,-1.23672 1.4285,-1.78572 1.1845,-1.18449 -0.1683,0.33672 0.3572,-0.71428 0.8172,-1.63451 -0.148,1.5155 0.7143,-1.07143 0.082,-0.24566 -0.1054,-0.86071 0,-1.07143 0.075,-0.15059 0.2818,-0.20656 0.3571,-0.35714 0.053,-0.10648 -0.053,-0.25067 0,-0.35715 0.8173,-1.6345 -0.148,1.51551 0.7143,-1.07143 0.038,-0.11293 -0.053,-0.25066 0,-0.35714 0.075,-0.15058 0.2819,-0.20656 0.3571,-0.35714 0.4399,-0.87963 -1.0366,0.3224 0.3572,-1.07143 0.084,-0.0842 0.273,0.0842 0.3571,0 0.073,-0.073 -0.071,-0.92982 0,-1.07143 0.075,-0.15058 0.2819,-0.20656 0.3572,-0.35714 0.053,-0.10648 0,-0.2381 0,-0.35714 0.119,-0.11905 0.2818,-0.20656 0.3571,-0.35715 0.071,-0.1416 -0.073,-0.99841 0,-1.07143 0.4762,-0.47619 0.3572,0.59524 0.3572,-0.35714 0,-0.0866 -0.012,-1.05994 0,-1.07143 0.084,-0.0842 0.2729,0.0842 0.3571,0 0.1684,-0.16836 -0.1684,-0.54592 0,-0.71428 0.084,-0.0842 0.273,0.0842 0.3571,0 0.1684,-0.16836 -0.1683,-0.54593 0,-0.71429 0.084,-0.0842 0.273,0.0842 0.3572,0 0.1683,-0.16836 -0.1684,-0.54593 0,-0.71428 0.084,-0.0842 0.273,0.0842 0.3571,0 0.086,-0.0859 -0.086,-1.34264 0,-1.42858 0.4762,-0.47619 0.3572,0.59524 0.3572,-0.35714 0,-1.42857 -0.1191,0.59524 0.3571,-0.35714 0.1065,-0.21296 -0.1065,-0.50133 0,-0.71429 0.053,-0.10648 0.273,0.0842 0.3572,0 0.1683,-0.16836 -0.1684,-0.54592 0,-0.71428 0.084,-0.0842 0.2729,0.0842 0.3571,0 0.084,-0.0842 -0.084,-0.27297 0,-0.35715 0.084,-0.0842 0.273,0.0842 0.3571,0 0.084,-0.0842 -0.084,-0.27296 0,-0.35714 0.739,-0.73894 -0.029,1.1292 0.7143,-0.35714 0.053,-0.10648 -0.084,-0.27297 0,-0.35714 0.084,-0.0842 0.2507,0.0532 0.3572,0 0.1506,-0.0753 0.2381,-0.2381 0.3571,-0.35715 0.1191,-0.11905 0.2819,-0.20656 0.3572,-0.35714 0.053,-0.10648 -0.084,-0.27296 0,-0.35714 0.084,-0.0842 0.2729,0.0842 0.3571,0 0.1684,-0.16836 -0.1684,-0.54593 0,-0.71429 0.7389,-0.73894 -0.029,1.1292 0.7143,-0.35714 0.053,-0.10648 -0.053,-0.25067 0,-0.35714 0.075,-0.15059 0.2818,-0.20656 0.3571,-0.35715 0.1065,-0.21296 -0.1064,-0.50132 0,-0.71428 0.7432,-1.48635 -0.025,0.38179 0.7143,-0.35715 0.1684,-0.16836 -0.1065,-0.50132 0,-0.71428 0.7432,-1.48635 -0.025,0.3818 0.7143,-0.35714 0.1684,-0.16836 -0.1684,-0.54593 0,-0.71429 0.084,-0.0842 0.273,0.0842 0.3571,0 0.073,-0.073 -0.071,-0.92982 0,-1.07143 0.7432,-1.48634 -0.025,0.3818 0.7143,-0.35714 0.084,-0.0842 -0.053,-0.25067 0,-0.35714 0.075,-0.15059 0.2819,-0.20656 0.3572,-0.35715 0.053,-0.10648 -0.053,-0.25066 0,-0.35714 0.1506,-0.30117 0.5637,-0.41312 0.7143,-0.71429 0.1064,-0.21296 -0.1684,-0.54592 0,-0.71428 0.084,-0.0842 0.2729,0.0842 0.3571,0 0.1684,-0.16836 -0.1684,-0.54593 0,-0.71429 0.084,-0.0842 0.273,0.0842 0.3571,0 0.084,-0.0842 -0.084,-0.27296 0,-0.35714 0.084,-0.0842 0.273,0.0842 0.3572,0 0.1683,-0.16836 -0.1684,-0.54593 0,-0.71429 0.084,-0.0842 0.273,0.0842 0.3571,0 0.084,-0.0842 -0.084,-0.27296 0,-0.35714 0.739,-0.73894 -0.029,1.1292 0.7143,-0.35714 0.053,-0.10648 -0.053,-0.25067 0,-0.35714 0.075,-0.15059 0.2819,-0.20656 0.3572,-0.35715 0.053,-0.10648 -0.084,-0.27296 0,-0.35714 0.084,-0.0842 0.2381,0 0.3571,0 0.1191,-0.11905 0.2638,-0.21706 0.3571,-0.35714 0.7869,-0.17986 0.1888,-0.73471 0.3572,-1.07143 0.075,-0.15059 0.2818,-0.20656 0.3571,-0.35714 0.053,-0.10648 -0.053,-0.25067 0,-0.35715 0.1758,-0.35144 1.2529,-1.07713 1.4286,-1.42857 0.053,-0.10648 -0.038,-0.2442 0,-0.35714 0.8623,-2.58694 -0.103,0.56307 0.7143,-1.07143 0.053,-0.10648 -0.053,-0.25066 0,-0.35714 0.1506,-0.30117 0.5637,-0.41312 0.7143,-0.71429 0.053,-0.10648 -0.084,-0.27296 0,-0.35714 0.084,-0.0842 0.2729,0.0842 0.3571,0 0.1684,-0.16836 -0.1683,-0.54593 0,-0.71429 0.084,-0.0842 0.273,0.0842 0.3572,0 0.073,-0.073 -0.071,-0.92982 0,-1.07143 0.075,-0.15058 0.2818,-0.20655 0.3571,-0.35714 0.071,-0.1416 -0.073,-0.99841 0,-1.07143 0.084,-0.0842 0.273,0.0842 0.3571,0 0.084,-0.0842 -0.084,-0.27296 0,-0.35714 0.084,-0.0842 0.273,0.0842 0.3572,0 0.073,-0.073 -0.071,-0.92983 0,-1.07143 0.075,-0.15058 0.2818,-0.20656 0.3571,-0.35714 0.071,-0.14161 -0.073,-0.99842 0,-1.07143 0.084,-0.0842 0.273,0.0842 0.3572,0 0.098,-0.0977 -0.097,-1.23483 0,-1.42857 0.075,-0.15059 0.2818,-0.20656 0.3571,-0.35714 0.1065,-0.21296 -0.1683,-0.54593 0,-0.71429 0.084,-0.0842 0.273,0.0842 0.3572,0 0.1785,-0.17857 -0.1786,-0.89286 0,-1.07143 0.084,-0.0842 0.2729,0.0842 0.3571,0 0.084,-0.0842 -0.053,-0.25066 0,-0.35714 0.075,-0.15059 0.2819,-0.20656 0.3571,-0.35714 0.053,-0.10648 -0.084,-0.27297 0,-0.35715 0.084,-0.0842 0.273,0.0842 0.3572,0 0.1683,-0.16836 -0.1684,-0.54592 0,-0.71428 0.7389,-0.73894 -0.029,1.1292 0.7143,-0.35715 0.053,-0.10648 -0.053,-0.25066 0,-0.35714 0.075,-0.15058 0.2818,-0.20656 0.3571,-0.35714 0.053,-0.10648 -0.084,-0.27297 0,-0.35714 0.084,-0.0842 0.3039,0.10647 0.3572,0 0.1064,-0.21296 -0.1065,-0.50133 0,-0.71429 0.053,-0.10648 0.2506,0.0532 0.3571,0 0.7897,-0.39483 0.1108,-0.22166 0.3571,-0.71429 0.2143,-0.42857 0.8572,-0.64285 1.0715,-1.07142 0.1428,-0.28572 -0.1429,-0.78572 0,-1.07143 0.3948,-0.78967 0.2216,-0.11083 0.7143,-0.35715 0.061,-0.0306 1.0566,-1.02706 1.0714,-1.07142 0.075,-0.22588 -0.075,-0.48841 0,-0.71429 0.1065,-0.31944 0.5637,-0.41312 0.7143,-0.71429 0.053,-0.10648 -0.053,-0.25066 0,-0.35714 0.075,-0.15058 0.2818,-0.20656 0.3571,-0.35714 0.053,-0.10648 -0.084,-0.27297 0,-0.35714 0.739,-0.73895 -0.029,1.1292 0.7143,-0.35715 0.1065,-0.21296 -0.1684,-0.54592 0,-0.71428 0.084,-0.0842 0.273,0.0842 0.3571,0 0.084,-0.0842 -0.053,-0.25067 0,-0.35715 0.075,-0.15058 0.2638,-0.21706 0.3572,-0.35714 0.1477,-0.22149 0.2095,-0.49279 0.3571,-0.71428 0.093,-0.14009 0.2638,-0.21706 0.3572,-0.35715 0.1476,-0.22149 0.2729,-0.46175 0.3571,-0.71428 0.038,-0.11294 -0.084,-0.27297 0,-0.35715 0.084,-0.0842 0.273,0.0842 0.3572,0 0.084,-0.0842 -0.053,-0.25066 0,-0.35714 0.1505,-0.30117 0.5637,-0.41312 0.7142,-0.71429 0.071,-0.1416 -0.073,-0.99841 0,-1.07142 0.084,-0.0842 0.273,0.0842 0.3572,0 0.084,-0.0842 -0.084,-0.27297 0,-0.35715 0.084,-0.0842 0.273,0.0842 0.3571,0 0.1684,-0.16836 -0.1064,-0.50132 0,-0.71428 0.075,-0.15059 0.2638,-0.21706 0.3572,-0.35715 0.1476,-0.22149 0.1689,-0.52605 0.3571,-0.71428 0.084,-0.0842 0.273,0.0842 0.3572,0 1.3938,-1.39383 -0.083,-0.1918 0.3571,-1.07143 0.1506,-0.30117 0.5637,-0.41312 0.7143,-0.71429 0.053,-0.10647 -0.084,-0.27296 0,-0.35714 0.084,-0.0842 0.273,0.0842 0.3571,0 0.1684,-0.16836 -0.1683,-0.54592 0,-0.71428 0.084,-0.0842 0.273,0.0842 0.3572,0 0.1882,-0.18823 0.2729,-0.46175 0.3571,-0.71429 0.038,-0.11294 -0.084,-0.27296 0,-0.35714 0.084,-0.0842 0.2507,0.0532 0.3572,0 0.1505,-0.0753 0.2381,-0.2381 0.3571,-0.35715 0.1191,-0.11904 0.2819,-0.20655 0.3571,-0.35714 0.1065,-0.21296 -0.1683,-0.54592 0,-0.71428 0.084,-0.0842 0.273,0.0842 0.3572,0 0.084,-0.0842 -0.053,-0.25067 0,-0.35715 0.075,-0.15058 0.2818,-0.20655 0.3571,-0.35714 0.1065,-0.21296 -0.1683,-0.54593 0,-0.71429 0.084,-0.0842 0.2507,0.0532 0.3572,0 0.1506,-0.0753 0.2381,-0.23809 0.3571,-0.35714 0.1191,-0.11905 0.2819,-0.20656 0.3572,-0.35714 0.1064,-0.21296 -0.1065,-0.50133 0,-0.71429 0.7431,-1.48634 -0.025,0.3818 0.7142,-0.35714 0.1786,-0.17857 -0.1785,-0.89286 0,-1.07143 0.739,-0.73894 -0.029,1.1292 0.7143,-0.35714 0.1065,-0.21296 -0.1683,-0.54593 0,-0.71429 0.084,-0.0842 0.273,0.0842 0.3572,0 0.084,-0.0842 0,-0.23809 0,-0.35714 0,-0.83333 0,-1.66667 0,-2.5 0,-0.11905 0,-0.23809 0,-0.35714 0,-0.11905 -0.084,-0.27297 0,-0.35715 0.084,-0.0842 0.2729,0.0842 0.3571,0 0.073,-0.073 -0.071,-0.92982 0,-1.07142 0.075,-0.15059 0.2819,-0.20656 0.3572,-0.35715 0.1064,-0.21296 -0.1684,-0.54592 0,-0.71428 0.084,-0.0842 0.2729,0.0842 0.3571,0 0.1684,-0.16836 -0.1684,-0.54593 0,-0.71429 0.084,-0.0842 0.273,0.0842 0.3571,0 0.1786,-0.17857 -0.1785,-0.89286 0,-1.07143 0.084,-0.0842 0.273,0.0842 0.3572,0 0.084,-0.0842 0,-0.23809 0,-0.35714 0,-0.47619 0,-0.95238 0,-1.42857 z"
       id="path4249"
       inkscape:connector-curvature="0" />
    <path
       style="fill:#000000;fill-opacity:1;stroke:#000000;stroke-width:0.60500002;stroke-linejoin:miter;stroke-miterlimit:3.1;stroke-dasharray:none;stroke-opacity:1"
       d="m 575.54194,290.51881 75.33313,-0.0901 54.87754,-0.0901 -0.005,90.80522 -178.7396,-0.0893 z m 50.75759,65.904 7.26517,-10.70315 4.45129,6.50672 c 2.44822,3.57869 5.74224,8.39511 7.32006,10.70314 l 2.86876,4.19643 8.52136,0 c 4.68675,0 8.52137,-0.0759 8.52137,-0.16863 0,-0.0927 -4.88926,-7.35431 -10.86502,-16.13683 l -10.86501,-15.96821 0.98478,-1.45245 c 0.54163,-0.79885 5.10975,-7.50703 10.15138,-14.90708 5.04162,-7.40004 9.26385,-13.70807 9.38272,-14.01785 0.1931,-0.50321 -0.69399,-0.56324 -8.32349,-0.56324 l -8.53962,0 -6.7498,10.00389 c -5.26045,7.79653 -6.84123,9.90453 -7.16419,9.55358 -0.22791,-0.24768 -3.18851,-4.54854 -6.5791,-9.55747 -3.3906,-5.00893 -6.35426,-9.31102 -6.58593,-9.5602 -0.32245,-0.34683 -2.40932,-0.43057 -8.90056,-0.35714 l -8.47935,0.0959 10.40769,15.27896 c 5.72423,8.40342 10.33184,15.47485 10.23913,15.71428 -0.0927,0.23944 -4.8672,7.34605 -10.60997,15.79248 -5.74277,8.44643 -10.52082,15.55804 -10.61788,15.80357 -0.13822,0.34962 1.67523,0.44643 8.36227,0.44643 l 8.53877,0 7.26517,-10.70314 z"
       id="path4636-9"
       inkscape:connector-curvature="0"
       inkscape:export-xdpi="47.585976"
       inkscape:export-ydpi="47.585976"
       sodipodi:nodetypes="ccccccccsscssscsscscscssscscscsccc" />
    <path
       style="fill:#ff0000;fill-opacity:0;stroke:#000000;stroke-width:4.7794714;stroke-miterlimit:4;stroke-dasharray:none;stroke-opacity:1"
       d="m 866.83406,47.217961 75.46878,0 0.0825,46.537112 -42.5176,0 -0.0451,-25.234382 -32.9492,0 -0.0393,-21.30273 z"
       id="path4640" />
    <path
       style="fill:#ff0000;fill-opacity:0;stroke:#000000;stroke-width:4.7794714;stroke-miterlimit:4;stroke-dasharray:none;stroke-opacity:1"
       d="m 824.1327,68.575381 75.4688,0 0.0825,46.537099 -75.4668,0 z"
       id="rect3336-2-6" />
    <path
       style="fill:#000000;fill-opacity:0;stroke:#000000;stroke-width:4.77947092;stroke-miterlimit:4;stroke-dasharray:none;stroke-opacity:0"
       d="m 355.9819,409.40764 -27.06445,6.21541 158.6035,0 0,0.005 28.84961,0 0,-6.21806 -1.01172,0 0.01,-0.002 -159.38671,0 z m 43.86524,1.16609 16.88671,0 13.73632,1.24325 13.69532,-1.24325 16.9707,0 -20.91992,1.88946 21.75976,1.96961 -16.84375,0 -14.66211,-1.31825 -14.53319,1.31825 -16.92969,0 21.75977,-1.96961 -20.91992,-1.88946 z"
       id="rect3336-6-3-41-6-0-6-4"
       inkscape:connector-curvature="0"
       inkscape:export-xdpi="47.585976"
       inkscape:export-ydpi="47.585976" />
    <path
       style="fill:#000000;fill-opacity:0;stroke:#000000;stroke-width:7.27826166;stroke-miterlimit:4;stroke-dasharray:none;stroke-opacity:0"
       d="m 563.25948,386.77384 -18.25874,21.36457 107.00012,0 0,0.016 19.46307,0 0,-21.37366 -0.68255,0 0.007,-0.006 -107.5285,0 z m 29.5932,4.00826 11.39243,0 9.26707,4.27349 9.2394,-4.27349 11.44909,0 -14.11339,6.49475 14.67998,6.77024 -11.36345,0 -9.89163,-4.53129 -9.80467,4.53129 -11.42143,0 14.67999,-6.77024 -14.11339,-6.49475 z"
       id="rect3336-6-3-41-6-0-6-6"
       inkscape:connector-curvature="0"
       inkscape:export-xdpi="47.585976"
       inkscape:export-ydpi="47.585976" />
    <path
       style="fill:url(#linearGradient4375-5);fill-opacity:1;stroke:url(#linearGradient4383-9);stroke-width:0.60500002;stroke-linejoin:miter;stroke-miterlimit:2.29999995;stroke-dasharray:none;stroke-opacity:0"
       d="m 1071.0667,289.9659 157.2953,-0.1802 -44.4632,90.71594 -73.9156,0 -87.4502,0 z m 50.7576,65.904 7.2651,-10.70315 4.4513,6.50672 c 2.4483,3.57869 5.7423,8.39511 7.3201,10.70314 l 2.8688,4.19643 8.5213,0 c 4.6868,0 8.5214,-0.0759 8.5214,-0.16863 0,-0.0927 -4.8893,-7.35431 -10.865,-16.13683 l -10.8651,-15.96821 0.9848,-1.45245 c 0.5417,-0.79885 5.1098,-7.50703 10.1514,-14.90708 5.0416,-7.40004 9.2639,-13.70807 9.3827,-14.01785 0.1931,-0.50321 -0.694,-0.56324 -8.3235,-0.56324 l -8.5396,0 -6.7498,10.00389 c -5.2604,7.79653 -6.8412,9.90453 -7.1642,9.55358 -0.2279,-0.24768 -3.1885,-4.54854 -6.5791,-9.55747 -3.3906,-5.00893 -6.3542,-9.31102 -6.5859,-9.5602 -0.3225,-0.34683 -2.4093,-0.43057 -8.9006,-0.35714 l -8.4793,0.0959 10.4077,15.27896 c 5.7242,8.40342 10.3318,15.47485 10.2391,15.71428 -0.093,0.23944 -4.8672,7.34605 -10.61,15.79248 -5.7427,8.44643 -10.5208,15.55804 -10.6178,15.80357 -0.1383,0.34962 1.6752,0.44643 8.3622,0.44643 l 8.5388,0 7.2652,-10.70314 z"
       id="path4636-9-3-2"
       inkscape:connector-curvature="0"
       inkscape:export-xdpi="47.432606"
       inkscape:export-ydpi="47.432606"
       sodipodi:nodetypes="ccccccccsscssscsscscscssscscscsccc" />
    <path
       style="fill:#000000;fill-opacity:0;stroke:#000000;stroke-width:7.27826166;stroke-miterlimit:4;stroke-dasharray:none;stroke-opacity:0"
       d="m 1062.4432,386.40955 -18.2588,21.36458 107.0002,0 0,0.016 19.463,0 0,-21.37367 -0.6825,0 0.01,-0.006 -107.5285,0 z m 29.5932,4.00827 11.3924,0 9.2671,4.27349 9.2394,-4.27349 11.4491,0 -14.1134,6.49475 14.68,6.77024 -11.3635,0 -9.8916,-4.53129 -9.8047,4.53129 -11.4214,0 14.68,-6.77024 -14.1134,-6.49475 z"
       id="rect3336-6-3-41-6-0-6-6-4-0"
       inkscape:connector-curvature="0"
       inkscape:export-xdpi="47.432606"
       inkscape:export-ydpi="47.432606" />
    <path
       style="fill:#000000;fill-opacity:0;stroke:#86c8d8;stroke-width:4.77947092;stroke-miterlimit:4;stroke-dasharray:none;stroke-opacity:0"
       d="m 353.19024,112.10796 -21.20141,6.21541 124.24484,0 0,0.005 22.59985,0 0,-6.21806 -0.79255,0 0.008,-0.002 -124.85838,0 z m 34.3626,1.16609 13.2285,0 10.76059,1.24325 10.72847,-1.24325 13.29431,0 -16.388,1.88946 17.0459,1.96961 -13.19486,0 -11.48582,-1.31825 -11.38483,1.31825 -13.26217,0 17.0459,-1.96961 -16.38799,-1.88946 z"
       id="rect3336-6-3-41-6-0-1-1-7"
       inkscape:connector-curvature="0"
       inkscape:export-xdpi="47.432606"
       inkscape:export-ydpi="47.432606" />
    <path
       style="fill:none;fill-rule:evenodd;stroke:#000000;stroke-width:1px;stroke-linecap:butt;stroke-linejoin:miter;stroke-opacity:1"
       d="m 1026.0685,368.37981 c 0,2.90185 0.3765,1.77246 -0.505,3.53554 -0.1684,0.33671 -0.4138,0.64493 -0.5051,1.01015 -0.082,0.32666 0.066,0.67997 0,1.01015 -0.335,1.67513 -0.4714,1.17851 -1.0102,2.52538 -0.1977,0.49432 -0.2669,1.03904 -0.505,1.51523 -0.2715,0.54294 -0.7848,0.95162 -1.0102,1.51523 -0.1251,0.31263 0.1251,0.69752 0,1.01015 -0.2254,0.56361 -0.6978,0.99471 -1.0101,1.51523 -0.1937,0.32281 -0.3368,0.67344 -0.5051,1.01015 -0.1684,0.33672 -0.4138,0.64494 -0.5051,1.01016 -0.082,0.32666 0.1065,0.69071 0,1.01015 -0.075,0.22588 -0.3986,0.29212 -0.5051,0.50508 -0.1506,0.30116 0.1506,0.70898 0,1.01015 -0.1065,0.21296 -0.3986,0.29212 -0.5051,0.50507 -0.137,0.274 0.1382,1.88211 0,2.02031 -0.119,0.11905 -0.386,-0.11905 -0.505,0 -0.2381,0.23809 0.2381,0.77206 0,1.01015 -0.1191,0.11905 -0.3861,-0.11905 -0.5051,0 -0.1191,0.11905 0.075,0.35449 0,0.50508 -0.1065,0.21296 -0.3986,0.29212 -0.5051,0.50507 -0.075,0.15059 0.1191,0.38603 0,0.50508 -0.119,0.11905 -0.386,-0.11905 -0.5051,0 -0.119,0.11905 0,0.33672 0,0.50508 0,0.16836 0,0.33671 0,0.50507"
       id="path3437-3"
       inkscape:connector-curvature="0" />
    <path
       style="fill:#000000;fill-opacity:1;stroke:#000000;stroke-width:0.60500002;stroke-linejoin:miter;stroke-miterlimit:2.29999995;stroke-dasharray:none;stroke-opacity:0"
       d="m 851.04904,295.78072 157.29536,-0.1802 -44.46319,90.71594 -73.9157,0 -87.45016,0 z m 50.75759,65.904 7.26518,-10.70315 4.45129,6.50672 c 2.44822,3.57869 5.74224,8.39511 7.32006,10.70314 l 2.86876,4.19643 8.52136,0 c 4.68675,0 8.52137,-0.0759 8.52137,-0.16863 0,-0.0927 -4.88926,-7.35431 -10.86502,-16.13683 l -10.86501,-15.96821 0.98478,-1.45245 c 0.54163,-0.79885 5.10975,-7.50703 10.15138,-14.90708 5.04162,-7.40004 9.26385,-13.70807 9.38272,-14.01785 0.1931,-0.50321 -0.69399,-0.56324 -8.32349,-0.56324 l -8.53962,0 -6.7498,10.00389 c -5.26045,7.79653 -6.84123,9.90453 -7.16419,9.55358 -0.22791,-0.24768 -3.18851,-4.54854 -6.5791,-9.55747 -3.39061,-5.00893 -6.35427,-9.31102 -6.58594,-9.5602 -0.32245,-0.34683 -2.40932,-0.43057 -8.90056,-0.35714 l -8.47935,0.0959 10.40769,15.27896 c 5.72423,8.40342 10.33184,15.47485 10.23913,15.71428 -0.0927,0.23944 -4.8672,7.34605 -10.60997,15.79248 -5.74277,8.44643 -10.52082,15.55804 -10.61788,15.80357 -0.13822,0.34962 1.67523,0.44643 8.36227,0.44643 l 8.53877,0 7.26517,-10.70314 z"
       id="path4636-9-3-0"
       inkscape:connector-curvature="0"
       inkscape:export-xdpi="47.432606"
       inkscape:export-ydpi="47.432606"
       sodipodi:nodetypes="ccccccccsscssscsscscscssscscscsccc" />
    <path
       style="fill:#000000;fill-opacity:0;stroke:#000000;stroke-width:7.27826166;stroke-miterlimit:4;stroke-dasharray:none;stroke-opacity:0"
       d="m 842.42554,392.22437 -18.25874,21.36457 107.00013,0 0,0.016 19.46307,0 0,-21.37366 -0.68255,0 0.007,-0.006 -107.52851,0 z m 29.5932,4.00826 11.39243,0 9.26707,4.27349 9.2394,-4.27349 11.4491,0 -14.1134,6.49475 14.67999,6.77024 -11.36345,0 -9.89164,-4.53129 -9.80467,4.53129 -11.42143,0 14.67999,-6.77024 -14.11339,-6.49475 z"
       id="rect3336-6-3-41-6-0-6-6-4-8"
       inkscape:connector-curvature="0"
       inkscape:export-xdpi="47.432606"
       inkscape:export-ydpi="47.432606" />
    <rect
       id="rect3336-6-3-4"
       width="131.84087"
       height="94.796829"
       x="435.83011"
       y="334.0773"
       ry="0"
       transform="matrix(1,0,-0.47234749,0.88141242,0,0)"
       style="fill:#000000;fill-opacity:0;stroke:#000000;stroke-width:12.78178958;stroke-miterlimit:4;stroke-dasharray:none;stroke-opacity:1"
       inkscape:export-xdpi="47.432606"
       inkscape:export-ydpi="47.432606" />
    <flowRoot
       xml:space="preserve"
       id="flowRoot5676-7-9"
       style="font-style:normal;font-weight:normal;font-size:71.16305542px;line-height:125%;font-family:sans-serif;letter-spacing:0px;word-spacing:0px;fill:#000000;fill-opacity:1;stroke:none;stroke-width:1px;stroke-linecap:butt;stroke-linejoin:miter;stroke-opacity:1"
       inkscape:export-xdpi="47.432606"
       inkscape:export-ydpi="47.432606"
       transform="translate(228.76731,290.57627)"><flowRegion
         id="flowRegion5678-0-5"><rect
           id="rect5680-0-4"
           width="114.6516"
           height="92.06015"
           x="67.888382"
           y="-0.087855481"
           style="font-size:71.16305542px;fill:#000000;fill-opacity:1" /></flowRegion><flowPara
         id="flowPara5682-2-9"
         style="font-style:normal;font-variant:normal;font-weight:bold;font-stretch:normal;font-size:71.16305542px;font-family:sans-serif;-inkscape-font-specification:'sans-serif Bold';fill:#000000;fill-opacity:1">X</flowPara></flowRoot>    <path
       style="fill:#000000;fill-opacity:0;stroke:#000000;stroke-width:7.27826166;stroke-miterlimit:4;stroke-dasharray:none;stroke-opacity:0"
       d="m 265.94813,387.12844 -18.25874,21.36457 107.00012,0 0,0.016 19.46307,0 0,-21.37366 -0.68255,0 0.007,-0.006 -107.5285,0 z m 29.5932,4.00826 11.39243,0 9.26707,4.27349 9.2394,-4.27349 11.44909,0 -14.11339,6.49475 14.67998,6.77024 -11.36345,0 -9.89163,-4.53129 -9.80467,4.53129 -11.42143,0 14.67999,-6.77024 -14.11339,-6.49475 z"
       id="rect3336-6-3-41-6-0-6-6-4"
       inkscape:connector-curvature="0"
       inkscape:export-xdpi="47.432606"
       inkscape:export-ydpi="47.432606" />
    <rect
       id="rect3336-6-3-4-3"
       width="131.84087"
       height="94.796829"
       x="226.7034"
       y="334.99872"
       ry="0"
       transform="matrix(1,0,-0.47234749,0.88141242,0,0)"
       style="fill:#000000;fill-opacity:0;stroke:#00aadd;stroke-width:12.78178958;stroke-miterlimit:4;stroke-dasharray:none;stroke-opacity:1"
       inkscape:export-xdpi="47.432606"
       inkscape:export-ydpi="47.432606" />
    <flowRoot
       xml:space="preserve"
       id="flowRoot5676-7-9-0"
       style="font-style:normal;font-weight:normal;font-size:71.16305542px;line-height:125%;font-family:sans-serif;letter-spacing:0px;word-spacing:0px;fill:#00aadd;fill-opacity:1;stroke:none;stroke-width:1px;stroke-linecap:butt;stroke-linejoin:miter;stroke-opacity:1"
       inkscape:export-xdpi="47.432606"
       inkscape:export-ydpi="47.432606"
       transform="translate(19.204806,291.38877)"><flowRegion
         id="flowRegion5678-0-5-8"><rect
           id="rect5680-0-4-9"
           width="114.6516"
           height="92.06015"
           x="67.888382"
           y="-0.087855481"
           style="font-size:71.16305542px;fill:#00aadd;fill-opacity:1" /></flowRegion><flowPara
         id="flowPara5682-2-9-0"
         style="font-style:normal;font-variant:normal;font-weight:bold;font-stretch:normal;font-size:71.16305542px;font-family:sans-serif;-inkscape-font-specification:'sans-serif Bold';fill:#00aadd;fill-opacity:1">X</flowPara></flowRoot>    <path
       style="fill:#000000;fill-opacity:0;stroke:#000000;stroke-width:7.27826166;stroke-miterlimit:4;stroke-dasharray:none;stroke-opacity:0"
       d="m 56.385627,387.94094 -18.25874,21.36457 107.000123,0 0,0.016 19.46307,0 0,-21.37366 -0.68255,0 0.007,-0.006 -107.528503,0 z m 29.593203,4.00826 11.39243,0 9.26707,4.27349 9.2394,-4.27349 11.44909,0 -14.11339,6.49475 14.67998,6.77024 -11.36345,0 -9.89163,-4.53129 -9.80467,4.53129 -11.42143,0 14.67999,-6.77024 -14.11339,-6.49475 z"
       id="rect3336-6-3-41-6-0-6-6-4-1"
       inkscape:connector-curvature="0"
       inkscape:export-xdpi="47.432606"
       inkscape:export-ydpi="47.432606" />
    <rect
       id="rect3336-6-3-4-6"
       width="131.84087"
       height="94.796829"
       x="401.7959"
       y="502.84018"
       ry="0"
       transform="matrix(1,0,-0.47234749,0.88141242,0,0)"
       style="fill:#000000;fill-opacity:0;stroke:#000000;stroke-width:12.78178978;stroke-miterlimit:4;stroke-dasharray:none;stroke-opacity:1"
       inkscape:export-xdpi="46.707264"
       inkscape:export-ydpi="46.707264" />
    <path
       style="fill:#000000;fill-opacity:0;stroke:#000000;stroke-width:7.27826166;stroke-miterlimit:4;stroke-dasharray:none;stroke-opacity:0"
       d="m 152.19918,535.87814 -18.25874,21.36457 107.00013,0 0,0.016 19.46307,0 0,-21.37366 -0.68255,0 0.007,-0.006 -107.52851,0 z m 29.5932,4.00826 11.39243,0 9.26707,4.27349 9.23941,-4.27349 11.44909,0 -14.1134,6.49475 14.67999,6.77024 -11.36345,0 -9.89164,-4.53129 -9.80467,4.53129 -11.42143,0 14.67999,-6.77024 -14.11339,-6.49475 z"
       id="rect3336-6-3-41-6-0-6-6-4-00"
       inkscape:connector-curvature="0"
       inkscape:export-xdpi="46.707264"
       inkscape:export-ydpi="46.707264" />
    <path
       style="fill:#000000;fill-opacity:1;stroke:#000000;stroke-width:0;stroke-linejoin:miter;stroke-miterlimit:4;stroke-dasharray:none;stroke-opacity:1"
       d="m 132.63518,514.70872 c 1.76086,-3.28579 10.41073,-19.4421 19.22195,-35.9029 l 16.02038,-29.92873 59.27292,-0.005 59.27291,-0.005 -3.20156,5.97754 c -1.76085,3.28764 -10.41072,19.44183 -19.22194,35.8982 l -16.02039,29.92066 -59.27291,0.01 -59.27291,0.01 3.20155,-5.97417 z M 203.633,502.65354 c 2.81827,-4.14327 5.49701,-8.00194 5.95277,-8.57481 0.77614,-0.9756 1.19608,-0.49931 6.62912,7.51884 l 5.80049,8.56042 7.33973,0.0144 7.33973,0.0144 -6.46378,-9.52937 c -3.55507,-5.24115 -7.54158,-11.06547 -8.8589,-12.94292 -1.31733,-1.87746 -2.39513,-3.65222 -2.39513,-3.94391 0,-0.2917 3.72888,-6.00537 8.28641,-12.69705 4.55752,-6.69167 8.2864,-12.31253 8.2864,-12.49079 0,-0.17826 -3.2044,-0.32411 -7.12088,-0.32411 l -7.12088,0 -5.44169,8.04722 -5.44169,8.04723 -1.12833,-1.41507 c -0.62058,-0.77828 -3.10883,-4.39177 -5.52942,-8.02997 l -4.40109,-6.61491 -7.34795,-0.0172 -7.34794,-0.0172 8.63936,12.73554 8.63936,12.73555 -2.71912,3.97537 c -5.40709,7.90522 -14.3323,21.11609 -14.72202,21.79116 -0.31029,0.53749 1.19703,0.69053 6.80134,0.69053 l 7.19998,0 5.12413,-7.53323 z"
       id="path4637"
       inkscape:connector-curvature="0"
       inkscape:export-xdpi="46.707264"
       inkscape:export-ydpi="46.707264" />
    <path
       style="fill:none;fill-rule:evenodd;stroke:#000000;stroke-width:5.3;stroke-linecap:butt;stroke-linejoin:miter;stroke-opacity:1;stroke-miterlimit:4;stroke-dasharray:none"
       d="m 131.03441,517.6964 c -0.49675,0.43246 -0.94694,0.92508 -1.49024,1.29737 -0.076,0.052 -0.0412,-0.19387 0,-0.27622 0.57477,-1.14953 -0.0191,0.29529 0.55243,-0.27621 0.0651,-0.0651 -0.0721,-0.21895 0,-0.27621 0.27365,-0.21737 0.71949,-0.19583 0.93781,-0.46873 1.77339,-2.21674 -0.30639,-0.24169 0.16704,-1.18856 0.0582,-0.11646 0.20399,-0.16787 0.27622,-0.27621 0.1142,-0.1713 0.16201,-0.38113 0.27621,-0.55243 0.3018,-0.45269 0.25063,-0.0997 0.55243,-0.55242 0.0921,-0.18415 0.18414,-0.36829 0.27621,-0.55243 0,-0.0921 -0.0412,-0.19386 0,-0.27621 0.0582,-0.11647 0.20399,-0.16788 0.27622,-0.27622 0.1142,-0.1713 0.16201,-0.38112 0.27621,-0.55242 0.14445,-0.21668 0.36828,-0.36829 0.55243,-0.55243 0.36828,-0.36829 0.73657,-0.73657 1.10485,-1.10486 0.0921,-0.0921 0.20399,-0.16787 0.27621,-0.27621 0.1142,-0.1713 0.15269,-0.38773 0.27622,-0.55243 0.0887,-0.11829 1.02112,-0.93738 1.10485,-1.10485 0.0412,-0.0823 -0.0412,-0.19386 0,-0.27621 0.1359,-0.27181 0.96896,-0.83306 1.10486,-1.10486 0.0823,-0.1647 -0.0824,-0.38772 0,-0.55243 0.0582,-0.11646 0.21798,-0.15975 0.27621,-0.27621 0.0823,-0.1647 -0.0823,-0.38773 0,-0.55243 0.0582,-0.11646 0.21798,-0.15975 0.27621,-0.27621 0.0412,-0.0824 -0.0412,-0.19386 0,-0.27621 0.0582,-0.11647 0.21799,-0.15976 0.27622,-0.27622 0.042,-0.0841 0,-0.70424 0,-0.82864 0,-0.73657 0,-1.47314 0,-2.20971 0,-0.067 -0.009,-0.81976 0,-0.82864 0.0651,-0.0651 0.21111,0.0651 0.27621,0 0.0855,-0.0855 -0.0855,-1.29554 0,-1.38107 0.0651,-0.0651 0.21111,0.0651 0.27621,0 0.13811,-0.1381 -0.1381,-0.69053 0,-0.82864 0.0651,-0.0651 0.21111,0.0651 0.27622,0 0.0651,-0.0651 0,-0.18414 0,-0.27621 0.0921,0 0.21111,0.0651 0.27621,0 0.13021,-0.13021 -0.13021,-0.42222 0,-0.55243 0.0651,-0.0651 0.18414,0 0.27622,0 0,-0.0921 -0.0651,-0.21111 0,-0.27621 0.0651,-0.0651 0.2111,0.0651 0.27621,0 0.0651,-0.0651 -0.0412,-0.19386 0,-0.27621 0.91608,-0.91609 -0.13021,0.26041 0.27621,-0.55243 0.12241,-0.24482 0.66102,-0.5772 0.82864,-0.82864 0.93025,-1.39538 0.002,-0.006 0.27622,-0.82864 0.0651,-0.19532 0.21111,-0.35712 0.27621,-0.55243 0.0291,-0.0874 -0.0412,-0.19386 0,-0.27621 0.0582,-0.11647 0.21798,-0.15976 0.27621,-0.27622 0.34015,-0.6803 -0.80177,0.24935 0.27622,-0.82864 0.57149,-0.57149 -0.0223,0.87332 0.55242,-0.27621 0.0412,-0.0823 -0.0412,-0.19386 0,-0.27622 0.0582,-0.11646 0.21799,-0.15975 0.27622,-0.27621 0.0412,-0.0824 -0.0412,-0.19386 0,-0.27621 0.0582,-0.11646 0.21798,-0.15975 0.27621,-0.27622 0.0412,-0.0824 -0.0651,-0.21111 0,-0.27621 0.0651,-0.0651 0.21111,0.0651 0.27622,0 0.1302,-0.13021 -0.13021,-0.42222 0,-0.55243 0.0651,-0.0651 0.2111,0.0651 0.27621,0 0.0651,-0.0651 -0.0651,-0.21111 0,-0.27621 0.0651,-0.0651 0.21111,0.0651 0.27621,0 0.0651,-0.0651 -0.0412,-0.19386 0,-0.27621 0.0582,-0.11647 0.21799,-0.15976 0.27622,-0.27622 0.0412,-0.0824 -0.0651,-0.21111 0,-0.27621 0.0651,-0.0651 0.21111,0.0651 0.27621,0 0.14558,-0.14558 0.21111,-0.35712 0.27621,-0.55243 0.0291,-0.0874 -0.0651,-0.21111 0,-0.27621 0.0651,-0.0651 0.21111,0.0651 0.27622,0 0.13021,-0.13021 -0.13021,-0.42222 0,-0.55243 0.0651,-0.0651 0.21111,0.0651 0.27621,0 0.0651,-0.0651 -0.0651,-0.21111 0,-0.27621 0.0651,-0.0651 0.21111,0.0651 0.27621,0 0.0651,-0.0651 -0.0651,-0.21111 0,-0.27622 0.0651,-0.0651 0.21111,0.0651 0.27622,0 0.13021,-0.13021 -0.0823,-0.38772 0,-0.55242 0.0582,-0.11647 0.21798,-0.15976 0.27621,-0.27622 0.0823,-0.1647 -0.13021,-0.42222 0,-0.55242 0.0651,-0.0651 0.21111,0.0651 0.27622,0 0.0651,-0.0651 -0.0651,-0.21111 0,-0.27622 0.0651,-0.0651 0.2111,0.0651 0.27621,0 0.0651,-0.0651 -0.0412,-0.19386 0,-0.27621 0.11646,-0.23293 0.43596,-0.31951 0.55243,-0.55243 0.0412,-0.0824 -0.0412,-0.19386 0,-0.27621 0.0571,-0.11429 0.71156,-0.75059 0.82864,-0.82864 0.1713,-0.1142 0.38112,-0.16202 0.55242,-0.27622 0.10834,-0.0722 0.18415,-0.18414 0.27622,-0.27621 0.0921,-0.0921 0.20398,-0.16787 0.27621,-0.27621 0.66889,-1.00334 -0.0809,-0.19533 0.55243,-0.82865 0.27621,-0.27621 0.55243,-0.55242 0.82864,-0.82864 0.18414,-0.18414 0.40797,-0.33574 0.55243,-0.55242 0.1142,-0.1713 0.21111,-0.35712 0.27621,-0.55243 0.0291,-0.0874 -0.0651,-0.21111 0,-0.27621 0.0651,-0.0651 0.21111,0.0651 0.27621,0 0.0651,-0.0651 -0.0651,-0.21111 0,-0.27622 0.0651,-0.0651 0.21111,0.0651 0.27622,0 0.0651,-0.0651 -0.0651,-0.21111 0,-0.27621 0.0651,-0.0651 0.21111,0.0651 0.27621,0 0.0651,-0.0651 -0.0412,-0.19386 0,-0.27621 0.14713,-0.29426 0.4053,-0.25818 0.55243,-0.55243 0.0412,-0.0824 -0.0412,-0.19386 0,-0.27622 0.0582,-0.11646 0.21798,-0.15975 0.27621,-0.27621 0.0412,-0.0823 -0.0412,-0.19386 0,-0.27621 0.0582,-0.11646 0.21798,-0.15975 0.27621,-0.27622 0.0412,-0.0824 -0.0412,-0.19386 0,-0.27621 0.0582,-0.11646 0.21799,-0.15975 0.27622,-0.27621 0.0878,-0.17566 -0.0763,-1.15231 0,-1.38107 0.0412,-0.12353 0.23504,-0.15269 0.27621,-0.27621 0.0582,-0.1747 -0.0582,-0.37774 0,-0.55243 0.0412,-0.12353 0.21798,-0.15975 0.27622,-0.27622 0.0412,-0.0823 -0.0412,-0.19386 0,-0.27621 0.0582,-0.11646 0.21798,-0.15975 0.27621,-0.27621 0.11048,-0.22097 -0.11049,-0.60767 0,-0.82864 0.0582,-0.11647 0.23504,-0.15269 0.27621,-0.27622 0.0582,-0.17469 -0.0447,-0.37378 0,-0.55242 0.0499,-0.19973 0.21111,-0.35712 0.27622,-0.55243 0.0291,-0.0874 0,-0.18414 0,-0.27621 0,-0.18415 -0.0582,-0.37774 0,-0.55243 0.0412,-0.12353 0.23503,-0.15269 0.27621,-0.27622 0.0582,-0.17469 -0.0823,-0.38772 0,-0.55242 0.0412,-0.0824 0.21111,0.0651 0.27621,0 0.0651,-0.0651 -0.0412,-0.19387 0,-0.27622 0.0582,-0.11646 0.21799,-0.15975 0.27622,-0.27621 0.11048,-0.22097 -0.11049,-0.60767 0,-0.82864 0.0582,-0.11646 0.21798,-0.15975 0.27621,-0.27621 0.0412,-0.0824 0,-0.18415 0,-0.27622 0.0921,-0.18414 0.16201,-0.38112 0.27621,-0.55243 0.0722,-0.10834 0.23504,-0.15268 0.27622,-0.27621 0.0582,-0.17469 -0.0447,-0.37378 0,-0.55243 0.0499,-0.19973 0.22628,-0.35269 0.27621,-0.55242 0.0447,-0.17865 -0.0582,-0.37774 0,-0.55243 0.0624,-0.18704 0.72314,-0.61764 0.82864,-0.82864 0.0615,-0.12291 -0.0421,-0.97852 0,-1.10486 0.0412,-0.12352 0.20399,-0.16787 0.27622,-0.27621 0.60854,-0.1391 0.146,-0.56822 0.27621,-0.82864 0.63206,-1.26412 -0.11448,1.17209 0.55243,-0.82864 0.27408,-0.82224 -0.65404,0.56674 0.27621,-0.82864 0.0722,-0.10834 0.21798,-0.15975 0.27621,-0.27621 0.0412,-0.0824 -0.0651,-0.21111 0,-0.27622 0.0651,-0.0651 0.21111,0.0651 0.27622,0 0.0651,-0.0651 -0.0651,-0.21111 0,-0.27621 0.0651,-0.0651 0.21111,0.0651 0.27621,0 0.0651,-0.0651 -0.0651,-0.21111 0,-0.27622 0.5715,-0.57149 -0.0223,0.87333 0.55243,-0.27621 0.0412,-0.0824 -0.0412,-0.19386 0,-0.27621 0.11646,-0.23293 0.43596,-0.31951 0.55243,-0.55243 0.0823,-0.1647 -0.13021,-0.42222 0,-0.55243 0.57149,-0.57149 -0.0223,0.87332 0.55242,-0.27621 0.1905,-0.381 -0.33451,-0.24707 0.27622,-0.55243 0.38099,-0.1905 0.24706,0.33451 0.55242,-0.27621 0.0824,-0.1647 -0.0823,-0.38773 0,-0.55243 0.25426,-0.50851 0.57439,-0.0439 0.82864,-0.55243 0.0412,-0.0824 -0.0412,-0.19386 0,-0.27621 0.63206,-1.26412 -0.11448,1.17209 0.55243,-0.82864 0.0291,-0.0874 -0.0412,-0.19386 0,-0.27621 0.11646,-0.23293 0.43597,-0.31951 0.55243,-0.55243 0.0412,-0.0823 -0.0651,-0.21111 0,-0.27621 0.0651,-0.0651 0.21111,0.0651 0.27621,0 0.0651,-0.0651 -0.0651,-0.21111 0,-0.27622 0.0651,-0.0651 0.21111,0.0651 0.27622,0 0.0651,-0.0651 -0.0412,-0.19386 0,-0.27621 0.0582,-0.11646 0.21798,-0.15975 0.27621,-0.27622 0.0412,-0.0824 -0.0412,-0.19386 0,-0.27621 0.1359,-0.2718 0.96895,-0.83305 1.10485,-1.10485 0.0823,-0.16471 -0.0824,-0.38773 0,-0.55243 0.57477,-1.14954 -0.0191,0.29528 0.55243,-0.27621 0.13021,-0.13021 -0.13021,-0.42222 0,-0.55243 0.0651,-0.0651 0.21111,0.0651 0.27621,0 0.5715,-0.5715 -0.87332,0.0223 0.27622,-0.55243 0.0823,-0.0412 0.21111,0.0651 0.27621,0 0.13021,-0.13021 -0.13021,-0.42222 0,-0.55243 0.0651,-0.0651 0.21111,0.0651 0.27621,0 0.13021,-0.1302 -0.1302,-0.42221 0,-0.55242 0.5715,-0.5715 -0.0223,0.87332 0.55243,-0.27622 0.0412,-0.0824 -0.0412,-0.19386 0,-0.27621 0.0582,-0.11646 0.21798,-0.15975 0.27622,-0.27621 0.0412,-0.0823 -0.0651,-0.21111 0,-0.27622 0.1302,-0.13021 0.42221,0.13021 0.55242,0 0.13021,-0.13021 -0.13021,-0.42222 0,-0.55242 0.0651,-0.0651 0.19387,0.0412 0.27622,0 0.33145,-0.16573 0.49718,-0.66292 0.82864,-0.82865 0.1647,-0.0824 0.38772,0.0824 0.55242,0 0.11647,-0.0582 0.15976,-0.21798 0.27622,-0.27621 0.0823,-0.0412 0.21111,0.0651 0.27621,0 0.0651,-0.0651 -0.0651,-0.21111 0,-0.27621 0.0651,-0.0651 0.19386,0.0412 0.27622,0 0.11646,-0.0582 0.15975,-0.21798 0.27621,-0.27622 0.0823,-0.0412 0.18887,0.0291 0.27621,0 0.19531,-0.0651 0.35712,-0.21111 0.55243,-0.27621 0.25765,-0.0859 1.12578,0.0851 1.38107,0 0.12352,-0.0412 0.15975,-0.21798 0.27621,-0.27621 0.0841,-0.042 0.70425,0 0.82864,0 0.14444,0 1.03223,-0.0363 1.10486,0 0.11646,0.0582 0.15268,0.23504 0.27621,0.27621 0.18791,0.0626 1.23461,-0.0732 1.38107,0 0.35337,0.17669 0.19905,0.37574 0.55242,0.55243 0.14985,0.0749 1.02928,-0.0756 1.10486,0 0.0651,0.0651 -0.0651,0.21111 0,0.27621 0.13021,0.13021 0.38772,-0.0824 0.55243,0 0.11646,0.0582 0.15975,0.21798 0.27621,0.27621 0.1647,0.0824 0.38773,-0.0824 0.55243,0 0.11646,0.0582 0.15975,0.21799 0.27621,0.27622 0.1647,0.0823 0.37774,-0.0582 0.55243,0 0.19531,0.0651 0.35711,0.21111 0.55243,0.27621 0.17896,0.0597 1.15493,0 1.38106,0 0.82864,0 1.65728,0 2.48593,0 3.13042,0 6.26084,0 9.39126,0 0.18414,0 0.36828,0 0.55242,0 0.0921,0 0.18887,-0.0291 0.27622,0 0.19531,0.0651 0.35711,0.21111 0.55243,0.27622 0.0873,0.0291 0.18414,0 0.27621,0 0.18414,0 0.36828,0 0.55243,0 0.18414,0 0.37378,-0.0447 0.55242,0 0.19973,0.0499 0.3527,0.22628 0.55243,0.27621 0.37624,0.0941 1.32312,-0.11139 1.65728,0 0.12353,0.0412 0.15269,0.23504 0.27622,0.27621 0.1616,0.0539 1.42019,0 1.65728,0 0.0921,0 0.19386,-0.0412 0.27621,0 0.11646,0.0582 0.15975,0.21799 0.27621,0.27622 0.0619,0.031 1.03922,0 1.10486,0 1.01278,0 2.02556,0 3.03835,0 0.46035,0 0.92071,0 1.38107,0 0.0921,0 0.21111,0.0651 0.27621,0 0.0651,-0.0651 -0.0651,-0.21111 0,-0.27622 0.0651,-0.0651 0.18414,0 0.27621,0 0.46036,0 0.92071,0 1.38107,0 0.18414,0 0.38773,0.0823 0.55243,0 0.0823,-0.0412 -0.0651,-0.21111 0,-0.27621 0.0651,-0.0651 0.18414,0 0.27621,0 0.18414,0 0.36829,0 0.55243,0 1.65728,0 3.31456,0 4.97184,0 0.55243,0 1.10486,0 1.65728,0 0.0656,0 1.04295,0.0309 1.10486,0 0.11646,-0.0582 0.15975,-0.21798 0.27621,-0.27621 0.19079,-0.0954 1.28411,0.097 1.38107,0 0.0651,-0.0651 -0.0651,-0.21111 0,-0.27622 0.0651,-0.0651 0.18414,0 0.27621,0 0.24686,0 1.29305,0.044 1.38107,0 0.11646,-0.0582 0.15975,-0.21798 0.27622,-0.27621 0.0841,-0.042 0.70424,0 0.82864,0 0.55242,0 1.10485,0 1.65728,0 2.67006,0 5.34013,0 8.01019,0 0.6445,0 1.289,0 1.9335,0 0.0656,0 1.04294,0.0309 1.10485,0 0.11646,-0.0582 0.15975,-0.21798 0.27622,-0.27622 0.0736,-0.0368 1.53232,0 1.65728,0 0.0921,0 0.19386,0.0412 0.27621,0 0.11646,-0.0582 0.15269,-0.23503 0.27621,-0.27621 0.26204,-0.0874 0.55243,0 0.82864,0 0.6445,0 1.289,0 1.9335,0 0.73657,0 1.47314,0 2.20971,0 0.18414,0 0.36828,0 0.55243,0 0.18414,0 0.37773,-0.0582 0.55242,0 0.12353,0.0412 0.15269,0.23504 0.27622,0.27621 0.37714,0.12572 1.28014,-0.12571 1.65728,0 0.12352,0.0412 0.15269,0.23504 0.27621,0.27622 0.37714,0.12571 1.28014,-0.12571 1.65728,0 0.12353,0.0412 0.15975,0.21798 0.27622,0.27621 0.0963,0.0481 1.45452,0 1.65728,0 0.19212,0 1.28118,-0.0499 1.38107,0 0.11646,0.0582 0.15268,0.23504 0.27621,0.27622 0.17469,0.0582 0.36828,0 0.55243,0 0.0921,0 0.19386,-0.0412 0.27621,0 0.11646,0.0582 0.15975,0.21798 0.27621,0.27621 0.0824,0.0412 0.18415,0 0.27622,0 0.0921,0 0.18414,0 0.27621,0 0.55243,0 1.10486,0 1.65728,0 0.18415,0 0.37774,-0.0582 0.55243,0 0.19531,0.0651 0.35711,0.21111 0.55243,0.27621 0.17469,0.0582 0.36828,0 0.55242,0 0.27622,0 0.55243,0 0.82865,0 0.0921,0 0.18886,-0.0291 0.27621,0 0.19531,0.0651 0.35711,0.21111 0.55243,0.27622 0.0873,0.0291 0.18414,0 0.27621,0 0.18414,0 0.36828,0 0.55243,0 0.6445,0 1.28899,0 1.93349,0 0.0921,0 0.18414,0 0.27622,0 0.0921,0 0.2111,0.0651 0.27621,0 0.0651,-0.0651 -0.0824,-0.23504 0,-0.27622 0.16952,-0.0848 1.20984,0.0856 1.38107,0 0.11646,-0.0582 0.15268,-0.23504 0.27621,-0.27621 0.17469,-0.0582 0.37378,0.0447 0.55243,0 0.19973,-0.0499 0.35711,-0.21111 0.55242,-0.27621 0.0874,-0.0291 0.18887,0.0291 0.27622,0 0.19531,-0.0651 0.3527,-0.22629 0.55243,-0.27622 0.17864,-0.0447 0.37773,0.0582 0.55242,0 0.12353,-0.0412 0.1499,-0.24463 0.27622,-0.27621 0.26796,-0.067 0.56067,0.067 0.82864,0 0.12632,-0.0316 0.15268,-0.23504 0.27621,-0.27622 0.15227,-0.0507 1.42287,0 1.65728,0 0.0921,0 0.19386,0.0412 0.27622,0 0.11646,-0.0582 0.15268,-0.23503 0.27621,-0.27621 0.14849,-0.0495 0.871,0 1.10485,0 0.15417,0 1.25463,0.0421 1.38107,0 0.12353,-0.0412 0.15269,-0.23504 0.27622,-0.27621 0.12644,-0.0421 1.22689,0 1.38106,0 1.19693,0 2.39385,0 3.59078,0 0.55243,0 1.10485,0 1.65728,0 0.0921,0 0.18414,0 0.27622,0 0.0921,0 0.19386,-0.0412 0.27621,0 0.11646,0.0582 0.15975,0.21798 0.27621,0.27621 0.0726,0.0363 0.96042,0 1.10486,0 0.64777,0 -0.13021,-0.0651 0.55242,0.27621 0.0841,0.042 0.70425,0 0.82864,0 0.18415,0 0.36829,0 0.55243,0 0.0921,0 0.27622,-0.0921 0.27622,0 0,0.0921 -0.27622,-0.0921 -0.27622,0 0,0.5519 0.66407,0.11165 0.82864,0.27622 0.0651,0.0651 -0.0651,0.21111 0,0.27621 0.0651,0.0651 0.21111,-0.0651 0.27622,0 0.0651,0.0651 -0.0651,0.21111 0,0.27622 0.0651,0.0651 0.21111,-0.0651 0.27621,0 0.13021,0.1302 -0.13021,0.42221 0,0.55242 0.0651,0.0651 0.21111,-0.0651 0.27621,0 0.009,0.009 0,0.76165 0,0.82864 0,0.10144 0.0111,1.09374 0,1.10486 -0.0651,0.0651 -0.21111,-0.0651 -0.27621,0 -0.0651,0.0651 0,0.18414 0,0.27621 -0.0921,0 -0.21111,-0.0651 -0.27621,0 -0.13021,0.13021 0.1302,0.42222 0,0.55243 -0.0651,0.0651 -0.19387,-0.0412 -0.27622,0 -0.11646,0.0582 -0.15975,0.21798 -0.27621,0.27621 -0.0824,0.0412 -0.21111,-0.0651 -0.27621,0 -0.0651,0.0651 0.0651,0.21111 0,0.27622 -0.0651,0.0651 -0.18415,0 -0.27622,0 0,0.0921 0.0651,0.21111 0,0.27621 -0.18764,0.18764 -0.54932,-0.28242 -0.82864,0.27621 -0.0412,0.0824 0.0651,0.21111 0,0.27622 -0.13021,0.13021 -0.42222,-0.13021 -0.55243,0 -0.0651,0.0651 0,0.18414 0,0.27621 -0.0921,0 -0.21111,-0.0651 -0.27621,0 -0.0651,0.0651 0.0412,0.19386 0,0.27621 -0.0582,0.11647 -0.21798,0.15976 -0.27621,0.27622 -0.0824,0.1647 0.1302,0.42222 0,0.55242 -0.0651,0.0651 -0.21111,-0.0651 -0.27622,0 -0.0125,0.0125 0,1.25084 0,1.38107 0,0.10144 0.0111,1.09374 0,1.10486 -0.0651,0.0651 -0.21111,-0.0651 -0.27621,0 -0.0651,0.0651 0,0.18414 0,0.27621 0,0.31973 0.0616,1.13447 0,1.38107 -0.0499,0.19973 -0.21111,0.35711 -0.27621,0.55243 -0.0291,0.0873 0.0412,0.19386 0,0.27621 -0.0582,0.11646 -0.21799,0.15975 -0.27622,0.27621 -0.14734,0.29468 0.14734,0.25775 0,0.55243 -0.0582,0.11646 -0.21798,0.15975 -0.27621,0.27621 -0.0412,0.0824 0.0291,0.18887 0,0.27622 -0.0651,0.19531 -0.21111,0.35711 -0.27621,0.55242 -0.0358,0.10749 0.0429,0.78578 0,0.82865 -0.0651,0.0651 -0.21111,-0.0651 -0.27622,0 -0.0651,0.0651 0.0651,0.2111 0,0.27621 -0.0651,0.0651 -0.21111,-0.0651 -0.27621,0 -0.0651,0.0651 0.0412,0.19386 0,0.27621 -0.0582,0.11646 -0.21798,0.15975 -0.27622,0.27622 -0.0412,0.0824 0.0651,0.21111 0,0.27621 -0.0651,0.0651 -0.21111,-0.0651 -0.27621,0 -0.0651,0.0651 0,0.18414 0,0.27621 0,0.18415 0.0824,0.38773 0,0.55243 -0.0412,0.0823 -0.21111,-0.0651 -0.27621,0 -0.0651,0.0651 0.0412,0.19386 0,0.27621 -0.11646,0.23293 -0.43597,0.31951 -0.55243,0.55243 -0.0412,0.0824 0.0651,0.21111 0,0.27621 -0.0651,0.0651 -0.21111,-0.0651 -0.27621,0 -0.0651,0.0651 0.0412,0.19387 0,0.27622 -0.0582,0.11646 -0.21799,0.15975 -0.27622,0.27621 -0.0412,0.0824 0.0412,0.19386 0,0.27622 -0.30536,0.61072 -0.17143,0.0857 -0.55242,0.27621 -1.14954,0.57477 0.29528,-0.0191 -0.27622,0.55243 -0.0651,0.0651 -0.21111,-0.0651 -0.27621,0 -0.0651,0.0651 0.0651,0.21111 0,0.27621 -0.5715,0.5715 0.0223,-0.87332 -0.55243,0.27621 -0.0412,0.0824 0.0651,0.21111 0,0.27622 -0.0651,0.0651 -0.21111,-0.0651 -0.27621,0 -0.0651,0.0651 0.0412,0.19386 0,0.27621 -0.0582,0.11646 -0.21799,0.15975 -0.27622,0.27621 -0.0412,0.0824 0.0651,0.21111 0,0.27622 -0.1302,0.13021 -0.38772,-0.0823 -0.55242,0 -1.14954,0.57477 0.29528,-0.0191 -0.27622,0.55242 -0.0651,0.0651 -0.19386,-0.0412 -0.27621,0 -1.14954,0.57477 0.29528,-0.0191 -0.27621,0.55243 -0.0651,0.0651 -0.19387,-0.0412 -0.27622,0 -0.23292,0.11646 -0.3195,0.43597 -0.55242,0.55243 -0.0824,0.0412 -0.21111,-0.0651 -0.27622,0 -0.33642,0.33642 -0.12938,0.61712 -0.55243,0.82864 -0.0824,0.0412 -0.19386,-0.0412 -0.27621,0 -0.78618,0.39309 0.23375,0.15934 -0.55243,0.55243 -0.0824,0.0412 -0.21111,-0.0651 -0.27621,0 -0.0651,0.0651 0.0651,0.21111 0,0.27621 -0.0651,0.0651 -0.21111,-0.0651 -0.27621,0 -0.0651,0.0651 0.0412,0.19386 0,0.27621 -0.33071,0.66142 -0.55243,-0.17406 -0.55243,0.55243 0,0.8422 -0.27995,0.004 -0.55243,0.27622 -0.0651,0.0651 0.0651,0.2111 0,0.27621 -0.0651,0.0651 -0.21111,-0.0651 -0.27621,0 -0.0651,0.0651 0.0651,0.21111 0,0.27621 -0.73657,0 0.0921,-0.0921 -0.27621,0.27622 -0.13021,0.1302 -0.42222,-0.13021 -0.55243,0 -0.0651,0.0651 0.0651,0.21111 0,0.27621 -0.0651,0.0651 -0.21111,-0.0651 -0.27622,0 -0.1302,0.13021 0.13021,0.42222 0,0.55243 -0.1302,0.1302 -0.42221,-0.13021 -0.55242,0 -0.0651,0.0651 0.0651,0.21111 0,0.27621 -0.0651,0.0651 -0.21111,-0.0651 -0.27622,0 -0.1302,0.13021 0.13021,0.42222 0,0.55243 -0.1302,0.13021 -0.42222,-0.13021 -0.55242,0 -0.18409,0.18408 0.18408,0.36834 0,0.55242 -0.0651,0.0651 -0.21111,-0.0651 -0.27622,0 -0.0651,0.0651 0,0.18415 0,0.27622 0,0.36828 0,0.73657 0,1.10485 0,0.10144 -0.0111,1.09374 0,1.10486 0.0651,0.0651 0.21111,-0.0651 0.27622,0 0.0565,0.0565 -0.0548,0.71912 0,0.82864 0.0582,0.11646 0.21798,0.15975 0.27621,0.27621 0.14734,0.29468 -0.14734,0.25775 0,0.55243 0.0582,0.11646 0.21798,0.15975 0.27621,0.27621 0.0412,0.0824 -0.0412,0.19386 0,0.27622 0.34132,0.68263 0.27622,-0.0953 0.27622,0.55242 0,0.64777 -0.0651,-0.13021 0.27621,0.55243 0.0412,0.0824 -0.0412,0.19386 0,0.27621 0.0582,0.11647 0.21798,0.15976 0.27621,0.27622 0.0824,0.1647 -0.1302,0.68263 0,0.55242 0.14558,-0.14557 0.15269,-0.38772 0.27622,-0.55242 0.15625,-0.20834 0.38974,-0.34908 0.55243,-0.55243 0.20737,-0.25922 0.35947,-0.55851 0.55242,-0.82864 0.26758,-0.37461 0.56107,-0.73025 0.82864,-1.10486 0.19296,-0.27013 0.33991,-0.57361 0.55243,-0.82864 0.25007,-0.30008 0.55243,-0.55242 0.82864,-0.82864 0.82864,-0.82864 1.65728,-1.65728 2.48592,-2.48592 0.18415,-0.18414 0.36829,-0.36828 0.55243,-0.55243 0.0921,-0.0921 0.20399,-0.16787 0.27621,-0.27621 0.80425,-1.20637 -0.12242,0.091 0.27622,-1.10485 0.0823,-0.24706 0.43596,-0.31951 0.55242,-0.55243 0.0824,-0.1647 -0.1302,-0.42222 0,-0.55243 0.0651,-0.0651 0.18415,0 0.27622,0 0.0921,-0.0921 0.20399,-0.16787 0.27621,-0.27621 0.0343,-0.0515 0.53473,-1.08716 0.55243,-1.10486 0.0651,-0.0651 0.21111,0.0651 0.27621,0 0.14558,-0.14557 0.16202,-0.38112 0.27622,-0.55242 0.0722,-0.10834 0.21798,-0.15976 0.27621,-0.27622 0.0412,-0.0823 -0.0291,-0.18886 0,-0.27621 0.13021,-0.39063 0.45256,-0.70539 0.55243,-1.10486 0.0447,-0.17864 -0.0447,-0.37378 0,-0.55242 0.0499,-0.19973 0.23583,-0.35055 0.27621,-0.55243 0.0903,-0.45142 -0.11165,-0.93446 0,-1.38107 0.0499,-0.19973 0.21111,-0.35711 0.27621,-0.55242 0.0882,-0.26468 -0.0853,-1.12519 0,-1.38107 0.40643,-1.21927 0.27622,1.00353 0.27622,-0.82864 0,-0.18415 -0.0447,-0.37379 0,-0.55243 0.0999,-0.39946 0.45256,-0.70539 0.55243,-1.10485 0.0447,-0.17865 -0.0447,-0.37379 0,-0.55243 0.0999,-0.39946 0.45256,-0.7054 0.55242,-1.10486 0.0447,-0.17864 -0.0582,-0.37773 0,-0.55242 0.0412,-0.12353 0.24464,-0.1499 0.27622,-0.27622 0.067,-0.26796 -0.067,-0.56067 0,-0.82864 0.0316,-0.12632 0.23503,-0.15269 0.27621,-0.27621 0.0582,-0.17469 0,-0.36829 0,-0.55243 0,-0.0921 -0.0412,-0.19386 0,-0.27621 0.0582,-0.11646 0.21798,-0.15975 0.27621,-0.27622 0.0412,-0.0824 0.0921,-0.27621 0,-0.27621 -0.49695,0 -0.16616,0.38735 -0.27621,0.55243 -0.14445,0.21668 -0.38975,0.34907 -0.55243,0.55242 -0.81446,1.01808 -0.31228,0.52048 -0.82864,1.38107 -0.52266,0.8711 -0.45436,0.73058 -1.10485,1.38107 -0.18415,0.18414 -0.39618,0.34409 -0.55243,0.55243 -0.12353,0.1647 -0.16201,0.38112 -0.27621,0.55243 -0.0722,0.10833 -0.20399,0.16787 -0.27622,0.27621 -0.1142,0.1713 -0.16201,0.38113 -0.27621,0.55243 -0.0722,0.10834 -0.20399,0.16787 -0.27621,0.27621 -0.80425,1.20637 0.12242,-0.091 -0.27622,1.10485 -0.0412,0.12353 -0.23504,0.15269 -0.27621,0.27622 -0.39863,1.1959 0.52803,-0.10152 -0.27622,1.10485 -0.0722,0.10834 -0.20398,0.16788 -0.27621,0.27622 -0.1142,0.1713 -0.13064,0.40685 -0.27621,0.55242 -0.14558,0.14558 -0.40685,0.13064 -0.55243,0.27622 -0.14558,0.14557 -0.18414,0.36828 -0.27621,0.55242 -0.0921,0.18415 -0.22628,0.3527 -0.27622,0.55243 -0.0447,0.17864 0.0447,0.37378 0,0.55243 -0.0499,0.19973 -0.18414,0.36828 -0.27621,0.55242 -0.0921,0.18415 -0.18414,0.36829 -0.27621,0.55243 -0.73657,1.47314 0.27621,-0.27621 -0.82864,0.82864 -0.14558,0.14558 -0.18415,0.36829 -0.27622,0.55243 -0.0921,0.18414 -0.18414,0.36828 -0.27621,0.55243 -1.00136,2.00271 0.29115,-0.43673 -0.55243,0.82864 -0.1142,0.1713 -0.18414,0.36828 -0.27621,0.55243 -0.0921,0.18414 -0.22628,0.35269 -0.27622,0.55242 -0.0447,0.17865 0.0447,0.37379 0,0.55243 -0.0499,0.19973 -0.18414,0.36828 -0.27621,0.55243 -0.0921,0.18414 -0.18414,0.36828 -0.27621,0.55242 -0.0921,0.18415 -0.16202,0.38113 -0.27622,0.55243 -0.42137,0.63206 -0.21864,-0.17271 -0.55242,0.82864 -0.0291,0.0874 0.0412,0.19386 0,0.27622 -0.0582,0.11646 -0.23504,0.15268 -0.27622,0.27621 -0.0582,0.17469 0.0582,0.37773 0,0.55243 -0.0412,0.12352 -0.21798,0.15975 -0.27621,0.27621 -0.0412,0.0823 0.0291,0.18887 0,0.27621 -0.0651,0.19532 -0.21111,0.35712 -0.27621,0.55243 -0.0291,0.0873 0.0291,0.18887 0,0.27621 -0.13021,0.39063 -0.42222,0.71423 -0.55243,1.10486 -0.0291,0.0873 0.0291,0.18887 0,0.27621 -0.2233,0.66988 -0.66731,0.73573 -0.82864,1.38107 -0.0447,0.17864 0.0582,0.37773 0,0.55243 -0.0412,0.12352 -0.18415,0.18414 -0.27622,0.27621 -0.0921,0.18414 -0.22628,0.3527 -0.27621,0.55243 -0.0447,0.17864 0.0582,0.37773 0,0.55242 -0.0412,0.12353 -0.20399,0.16788 -0.27621,0.27622 -0.1142,0.1713 -0.18415,0.36828 -0.27622,0.55243 -0.0921,0.18414 -0.22628,0.35269 -0.27621,0.55242 -0.23918,0.95672 0.34976,0.16589 -0.27621,1.10486 -0.21668,0.32502 -0.59427,0.51614 -0.82865,0.82864 -0.12352,0.1647 -0.16201,0.38112 -0.27621,0.55243 -0.0722,0.10834 -0.18414,0.18414 -0.27621,0.27621 -0.0921,0.18414 -0.16202,0.38113 -0.27622,0.55243 -0.16762,0.25144 -0.70623,0.58382 -0.82864,0.82864 -0.0412,0.0824 0.0412,0.19386 0,0.27621 -0.11646,0.23292 -0.43596,0.3195 -0.55242,0.55243 -0.0412,0.0824 0.0412,0.19386 0,0.27621 -0.11647,0.23292 -0.43597,0.3195 -0.55243,0.55243 -0.0412,0.0824 0.0412,0.19386 0,0.27621 -0.30536,0.61073 -0.17143,0.0857 -0.55243,0.27622 -0.11646,0.0582 -0.18414,0.18414 -0.27621,0.27621 -0.0921,0.0921 -0.21798,0.15975 -0.27622,0.27621 -0.0412,0.0824 0.0412,0.19387 0,0.27622 -0.1224,0.24481 -0.66101,0.5772 -0.82864,0.82864 -0.1142,0.1713 -0.18414,0.36828 -0.27621,0.55242 -0.0921,0.18415 -0.21111,0.35712 -0.27621,0.55243 -0.17008,0.51023 0.42147,0.13095 -0.27622,0.82864 -0.0651,0.0651 -0.21111,-0.0651 -0.27621,0 -0.0877,0.0877 -0.77603,1.49944 -0.82864,1.65728 -0.0291,0.0874 0.0291,0.18887 0,0.27622 -0.0651,0.19531 -0.16201,0.38112 -0.27621,0.55242 -0.0722,0.10834 -0.23504,0.15269 -0.27622,0.27622 -0.0582,0.17469 0.0582,0.37773 0,0.55243 -0.0412,0.12352 -0.21798,0.15975 -0.27621,0.27621 -0.0823,0.1647 0.0824,0.38772 0,0.55243 -0.0582,0.11646 -0.21798,0.15975 -0.27622,0.27621 -0.0815,0.16297 0.0633,0.63865 0,0.82864 -0.0651,0.19531 -0.2111,0.35711 -0.27621,0.55243 -0.0291,0.0873 0.0412,0.19386 0,0.27621 -0.0582,0.11646 -0.21798,0.15975 -0.27621,0.27621 -0.0824,0.16471 0.13021,0.42222 0,0.55243 -0.0651,0.0651 -0.21111,-0.0651 -0.27622,0 -0.1381,0.13811 0.13811,0.69054 0,0.82864 -0.0651,0.0651 -0.21111,-0.0651 -0.27621,0 -0.0855,0.0855 0.0855,1.29554 0,1.38107 -0.0651,0.0651 -0.21111,-0.0651 -0.27621,0 -0.13811,0.13811 0.1381,0.69053 0,0.82864 -0.0651,0.0651 -0.23504,-0.0823 -0.27622,0 -0.0824,0.1647 0.0824,0.38773 0,0.55243 -0.0412,0.0824 -0.21111,-0.0651 -0.27621,0 -0.13021,0.13021 0.0824,0.38772 0,0.55243 -0.0582,0.11646 -0.21798,0.15975 -0.27621,0.27621 -0.0412,0.0824 0.0651,0.21111 0,0.27621 -0.0651,0.0651 -0.21111,-0.0651 -0.27622,0 -0.1381,0.13811 0.13811,0.69054 0,0.82864 -0.0651,0.0651 -0.21111,-0.0651 -0.27621,0 -0.0651,0.0651 0.0412,0.19387 0,0.27622 -0.0582,0.11646 -0.20399,0.16787 -0.27622,0.27621 -0.1142,0.1713 -0.16201,0.38113 -0.27621,0.55243 -0.0722,0.10834 -0.21798,0.15975 -0.27621,0.27621 -0.18409,0.36817 0.18408,0.18426 0,0.55243 -0.57477,1.14953 0.0191,-0.29528 -0.55243,0.27621 -0.0565,0.0565 0.0548,0.71913 0,0.82864 -0.0582,0.11646 -0.21798,0.15975 -0.27621,0.27622 -0.0412,0.0823 0.0412,0.19386 0,0.27621 -0.0582,0.11646 -0.21799,0.15975 -0.27622,0.27621 -0.0412,0.0824 0.0412,0.19387 0,0.27622 -0.0582,0.11646 -0.21798,0.15975 -0.27621,0.27621 -0.0823,0.1647 0.0823,0.38773 0,0.55243 -0.0582,0.11646 -0.21798,0.15975 -0.27621,0.27621 -0.0412,0.0824 0.0651,0.21111 0,0.27622 -0.0651,0.0651 -0.21111,-0.0651 -0.27622,0 -0.27612,0.27612 0.27613,0.2763 0,0.55242 -0.0651,0.0651 -0.19386,-0.0412 -0.27621,0 -0.31666,0.15833 -0.38422,0.57633 -0.55243,0.82864 -0.0722,0.10834 -0.21798,0.15975 -0.27621,0.27622 -0.0412,0.0823 0.0651,0.21111 0,0.27621 -0.0651,0.0651 -0.21111,-0.0651 -0.27622,0 -0.0651,0.0651 0.0291,0.18887 0,0.27621 -0.0651,0.19532 -0.13063,0.40685 -0.27621,0.55243 -0.57149,0.5715 0.0223,-0.87332 -0.55243,0.27621 -0.0412,0.0824 0.0412,0.19387 0,0.27622 -0.0582,0.11646 -0.21798,0.15975 -0.27621,0.27621 -0.0412,0.0824 0.0651,0.21111 0,0.27622 -0.13021,0.1302 -0.38772,-0.0824 -0.55243,0 -0.11646,0.0582 -0.18414,0.18414 -0.27621,0.27621 -0.0921,0.0921 -0.23504,0.15269 -0.27621,0.27621 -0.0582,0.1747 0.0582,0.37774 0,0.55243 -0.0823,0.24705 -0.43597,0.3195 -0.55243,0.55243 -0.0412,0.0823 0.0651,0.21111 0,0.27621 -0.0651,0.0651 -0.21111,-0.0651 -0.27621,0 -0.13021,0.13021 0.0823,0.38773 0,0.55243 -0.57477,1.14953 0.0191,-0.29528 -0.55243,0.27621 -0.0651,0.0651 0.0651,0.21111 0,0.27621 -0.0651,0.0651 -0.21111,-0.0651 -0.27622,0 -0.1381,0.13811 0.13811,0.69054 0,0.82865 -0.0651,0.0651 -0.2111,-0.0651 -0.27621,0 -0.57149,0.57149 0.87332,-0.0223 -0.27621,0.55242 -0.0714,0.0357 -1.4615,0 -1.65728,0 -0.0921,0 -0.21111,0.0651 -0.27622,0 -0.0651,-0.0651 0.0651,-0.21111 0,-0.27621 -0.0651,-0.0651 -0.18414,0 -0.27621,0 -0.46036,0 -0.92071,0 -1.38107,0 -0.0921,0 -0.21111,0.0651 -0.27621,0 -0.0651,-0.0651 0.0651,-0.21111 0,-0.27621 -2.7e-4,-2.7e-4 -0.82739,4.1e-4 -0.82864,0 -0.12353,-0.0412 -0.15976,-0.21799 -0.27622,-0.27622 -0.0841,-0.042 -0.70424,0 -0.82864,0 -0.55243,0 -1.10485,0 -1.65728,0 -1.93349,0 -3.86699,0 -5.80048,0 -1.56522,0 -3.13043,0 -4.69564,0 -0.46035,0 -0.92071,0 -1.38106,0 -0.27622,0 -0.56661,0.0873 -0.82864,0 -0.12353,-0.0412 -0.15976,-0.21798 -0.27622,-0.27621 -0.1736,-0.0868 -0.93125,0.0868 -1.10485,0 -0.11646,-0.0582 -0.15975,-0.21798 -0.27622,-0.27622 -0.0819,-0.041 -1.39012,0 -1.65728,0 -1.28899,0 -2.57799,0 -3.86699,0 -0.0921,0 -0.18414,0 -0.27621,0 -0.0921,0 -0.21111,-0.0651 -0.27622,0 -0.0651,0.0651 0.0651,0.21111 0,0.27622 -0.0651,0.0651 -0.18414,0 -0.27621,0 -0.0921,0 -0.18414,0 -0.27621,0 -0.21115,0 -1.85579,-0.0389 -1.9335,0 -0.11646,0.0582 -0.15975,0.21798 -0.27621,0.27621 -0.0841,0.042 -0.70425,0 -0.82864,0 -0.6445,0 -1.289,0 -1.9335,0 -0.0921,0 -0.18414,0 -0.27621,0 -0.0921,0 -0.21111,-0.0651 -0.27621,0 -0.0651,0.0651 0.0651,0.21111 0,0.27622 -0.0111,0.0111 -1.00342,0 -1.10486,0 -0.73657,0 -1.47314,0 -2.20971,0 -0.0921,0 -0.18414,0 -0.27621,0 -0.0921,0 -0.21111,0.0651 -0.27621,0 -0.0651,-0.0651 0.0651,-0.21111 0,-0.27622 -0.009,-0.009 -0.76166,0 -0.82864,0 -0.1244,0 -0.74458,0.042 -0.82865,0 -0.11646,-0.0582 -0.15975,-0.21798 -0.27621,-0.27621 -0.0823,-0.0412 -0.18414,0 -0.27621,0 -0.0921,0 -0.18415,0 -0.27622,0 -0.46035,0 -0.92071,0 -1.38106,0 -0.27622,0 -0.56661,0.0873 -0.82865,0 -0.12352,-0.0412 -0.15975,-0.21798 -0.27621,-0.27622 -0.0963,-0.0481 -1.45452,0 -1.65728,0 -1.01278,0 -2.02557,0 -3.03835,0 -2.11764,0 -4.23527,0 -6.35291,0 -0.10144,0 -1.09374,-0.0111 -1.10486,0 -0.0651,0.0651 0.0651,0.21111 0,0.27622 -0.0651,0.0651 -0.18414,0 -0.27621,0 -0.0921,0 -0.18414,0 -0.27621,0 -1.01279,0 -2.02557,0 -3.03835,0 -1.289,0 -2.578,0 -3.86699,0 -0.19578,0 -1.58587,-0.0357 -1.65728,0 -0.11647,0.0582 -0.15976,0.21798 -0.27622,0.27621 -0.22097,0.11049 -0.60767,-0.11048 -0.82864,0 -0.11646,0.0582 -0.15975,0.21798 -0.27621,0.27622 -0.0726,0.0363 -0.96042,0 -1.10486,0 -1.74935,0 -3.4987,0 -5.24806,0 -0.067,0 -0.81975,0.009 -0.82864,0 -0.0651,-0.0651 0.0651,-0.21111 0,-0.27622 -0.0756,-0.0756 -0.95501,0.0749 -1.10485,0 -0.11646,-0.0582 -0.15975,-0.21798 -0.27621,-0.27621 -0.0824,-0.0412 -0.18415,0 -0.27622,0 -0.0921,0 -0.18414,0 -0.27621,0 -0.55243,0 -1.10486,0 -1.65728,0 -0.14444,0 -1.03223,0.0363 -1.10486,0 -0.11646,-0.0582 -0.15975,-0.21798 -0.27621,-0.27622 -0.0726,-0.0363 -0.96042,0 -1.10486,0 -0.73656,0 -1.47313,0 -2.2097,0 -0.73657,0 -1.47314,0 -2.20971,0 -0.14444,0 -1.03223,-0.0363 -1.10486,0 -0.11646,0.0582 -0.15975,0.21799 -0.27621,0.27622 -0.0726,0.0363 -0.96042,0 -1.10485,0 -0.73657,0 -1.47314,0 -2.20971,0 -1.19693,0 -2.39385,0 -3.59078,0 -0.12496,0 -1.58367,0.0368 -1.65728,0 -0.11646,-0.0582 -0.15975,-0.21798 -0.27622,-0.27622 -0.17945,-0.0897 -1.47782,0.0897 -1.65728,0 -0.11646,-0.0582 -0.15268,-0.23503 -0.27621,-0.27621 -0.17469,-0.0582 -0.36829,0 -0.55243,0 -0.55242,0 -1.10485,0 -1.65728,0 -0.82864,0 -1.65728,0 -2.48592,0 -0.14444,0 -1.03223,-0.0363 -1.10486,0 -0.11646,0.0582 -0.15975,0.21798 -0.27621,0.27621 -0.0823,0.0412 -0.18414,0 -0.27621,0 -0.0921,0 -0.18415,0 -0.27622,0 -0.2509,0 -1.75418,-0.0598 -1.93349,0 -0.12353,0.0412 -0.15975,0.21799 -0.27622,0.27622 -0.10951,0.0548 -0.77217,-0.0565 -0.82864,0 -0.0651,0.0651 0.0651,0.21111 0,0.27621 -0.0651,0.0651 -0.18414,0 -0.27621,0 -0.18414,0 -0.38772,-0.0824 -0.55243,0 -0.0823,0.0412 0.0823,0.23504 0,0.27622 -0.0432,0.0216 -1.30384,0 -1.38106,0 -0.1244,0 -0.74458,-0.042 -0.82865,0 -0.11646,0.0582 -0.15975,0.21798 -0.27621,0.27621 -0.0841,0.042 -0.70424,0 -0.82864,0 -0.55243,0 -1.10485,0 -1.65728,0 -0.15417,0 -1.25463,0.0421 -1.38107,0 -0.12353,-0.0412 -0.15269,-0.23504 -0.27621,-0.27621 -0.1485,-0.0495 -0.871,0 -1.10486,0 -0.82864,0 -1.65728,0 -2.48592,0 -0.73657,0 -1.47314,0 -2.20971,0 -0.0921,0 -0.21111,0.0651 -0.27621,0 -0.0651,-0.0651 0,-0.18415 0,-0.27622 0,-0.0921 -0.0651,-0.21111 0,-0.27621 0.0651,-0.0651 0.21111,0.0651 0.27621,0 0.0651,-0.0651 -0.0651,-0.21111 0,-0.27622 0.0651,-0.0651 0.21111,0.0651 0.27622,0 0.0651,-0.0651 -0.0558,-0.203 0,-0.27621 0.63739,-0.83577 1.36177,-1.60148 2.04266,-2.40222"
       id="path4641"
       inkscape:connector-curvature="0"
       inkscape:export-xdpi="46.707264"
       inkscape:export-ydpi="46.707264" />
  </g>
</svg>
